<?xml version="1.0" encoding="UTF-8" standalone="no"?>
<!DOCTYPE svg PUBLIC "-//W3C//DTD SVG 1.1//EN"
 "http://www.w3.org/Graphics/SVG/1.1/DTD/svg11.dtd">
<!-- Generated by graphviz version 2.40.1 (20161225.0304)
 -->
<!-- Title: actor Pages: 1 -->
<svg width="508pt" height="502pt"
 viewBox="0.00 0.00 507.50 502.00" xmlns="http://www.w3.org/2000/svg" xmlns:xlink="http://www.w3.org/1999/xlink">
<g id="graph0" class="graph" transform="scale(1 1) rotate(0) translate(4 498)">
<title>actor</title>
<polygon fill="#ffffff" stroke="transparent" points="-4,4 -4,-498 503.5,-498 503.5,4 -4,4"/>
<!-- actor -->
<g id="node1" class="node">
<title>actor</title>
<polygon fill="#efefef" stroke="transparent" points="271,-165.5 271,-200.5 454,-200.5 454,-165.5 271,-165.5"/>
<polygon fill="none" stroke="#000000" points="271,-165.5 271,-200.5 454,-200.5 454,-165.5 271,-165.5"/>
<text text-anchor="start" x="293.8697" y="-178.3" font-family="Arial Bold" font-size="18.00" fill="#000000">actor</text>
<text text-anchor="start" x="333.8765" y="-178.3" font-family="Arial" font-size="14.00" fill="#000000"> </text>
<text text-anchor="start" x="337.7671" y="-178.3" font-family="Arial" font-size="14.00" fill="#666666">[BASE TABLE]</text>
<polygon fill="none" stroke="#000000" points="271,-135.5 271,-165.5 454,-165.5 454,-135.5 271,-135.5"/>
<text text-anchor="start" x="277.7055" y="-146.9" font-family="Arial" font-size="14.00" fill="#000000">actor_id </text>
<text text-anchor="start" x="331.3843" y="-146.9" font-family="Arial" font-size="14.00" fill="#666666">[smallint unsigned]</text>
<polygon fill="none" stroke="#000000" points="271,-105.5 271,-135.5 454,-135.5 454,-105.5 271,-105.5"/>
<text text-anchor="start" x="278" y="-116.9" font-family="Arial" font-size="14.00" fill="#000000">first_name </text>
<text text-anchor="start" x="347.23" y="-116.9" font-family="Arial" font-size="14.00" fill="#666666">[varchar(45)]</text>
<polygon fill="none" stroke="#000000" points="271,-75.5 271,-105.5 454,-105.5 454,-75.5 271,-75.5"/>
<text text-anchor="start" x="278" y="-86.9" font-family="Arial" font-size="14.00" fill="#000000">last_name </text>
<text text-anchor="start" x="346.4614" y="-86.9" font-family="Arial" font-size="14.00" fill="#666666">[varchar(45)]</text>
<polygon fill="none" stroke="#000000" points="271,-45.5 271,-75.5 454,-75.5 454,-45.5 271,-45.5"/>
<text text-anchor="start" x="278" y="-56.9" font-family="Arial" font-size="14.00" fill="#000000">last_update </text>
<text text-anchor="start" x="354.2566" y="-56.9" font-family="Arial" font-size="14.00" fill="#666666">[timestamp]</text>
<polygon fill="none" stroke="#000000" stroke-width="3" points="269,-44.5 269,-202.5 455,-202.5 455,-44.5 269,-44.5"/>
</g>
<!-- film_actor -->
<g id="node2" class="node">
<title>film_actor</title>
<polygon fill="#efefef" stroke="transparent" points="268,-415.5 268,-450.5 457,-450.5 457,-415.5 268,-415.5"/>
<polygon fill="none" stroke="#000000" points="268,-415.5 268,-450.5 457,-450.5 457,-415.5 268,-415.5"/>
<text text-anchor="start" x="274.8752" y="-428.3" font-family="Arial Bold" font-size="18.00" fill="#000000">film_actor</text>
<text text-anchor="start" x="352.871" y="-428.3" font-family="Arial" font-size="14.00" fill="#000000"> </text>
<text text-anchor="start" x="356.7616" y="-428.3" font-family="Arial" font-size="14.00" fill="#666666">[BASE TABLE]</text>
<polygon fill="none" stroke="#000000" points="268,-385.5 268,-415.5 457,-415.5 457,-385.5 268,-385.5"/>
<text text-anchor="start" x="275" y="-396.9" font-family="Arial" font-size="14.00" fill="#000000">actor_id </text>
<text text-anchor="start" x="328.6788" y="-396.9" font-family="Arial" font-size="14.00" fill="#666666">[smallint unsigned]</text>
<polygon fill="none" stroke="#000000" points="268,-355.5 268,-385.5 457,-385.5 457,-355.5 268,-355.5"/>
<text text-anchor="start" x="275" y="-366.9" font-family="Arial" font-size="14.00" fill="#000000">film_id </text>
<text text-anchor="start" x="319.3268" y="-366.9" font-family="Arial" font-size="14.00" fill="#666666">[smallint unsigned]</text>
<polygon fill="none" stroke="#000000" points="268,-325.5 268,-355.5 457,-355.5 457,-325.5 268,-325.5"/>
<text text-anchor="start" x="275" y="-336.9" font-family="Arial" font-size="14.00" fill="#000000">last_update </text>
<text text-anchor="start" x="351.2566" y="-336.9" font-family="Arial" font-size="14.00" fill="#666666">[timestamp]</text>
</g>
<!-- film_actor&#45;&gt;actor -->
<g id="edge1" class="edge">
<title>film_actor:actor_id&#45;&gt;actor:actor_id</title>
<path fill="none" stroke="#000000" d="M258.2674,-397.6924C213.0208,-370.2266 218.9129,-150.5 271,-150.5"/>
<polygon fill="#000000" stroke="#000000" points="258.3918,-397.7282 266.7527,-404.8237 263.1959,-399.1141 268,-400.5 268,-400.5 268,-400.5 263.1959,-399.1141 269.2473,-396.1763 258.3918,-397.7282 258.3918,-397.7282"/>
<text text-anchor="start" x="6.7735" y="-410.5" font-family="Arial" font-size="10.00" fill="#000000">FOREIGN KEY (actor_id) REFERENCES actor (actor_id)</text>
</g>
</g>
</svg>
