<?xml version="1.0" encoding="UTF-8" standalone="no"?>
<!DOCTYPE svg PUBLIC "-//W3C//DTD SVG 1.1//EN"
 "http://www.w3.org/Graphics/SVG/1.1/DTD/svg11.dtd">
<!-- Generated by graphviz version 2.40.1 (20161225.0304)
 -->
<!-- Title: actor_info Pages: 1 -->
<svg width="283pt" height="255pt"
 viewBox="0.00 0.00 283.00 255.00" xmlns="http://www.w3.org/2000/svg" xmlns:xlink="http://www.w3.org/1999/xlink">
<g id="graph0" class="graph" transform="scale(1 1) rotate(0) translate(4 251)">
<title>actor_info</title>
<polygon fill="#ffffff" stroke="transparent" points="-4,4 -4,-251 279,-251 279,4 -4,4"/>
<!-- actor_info -->
<g id="node1" class="node">
<title>actor_info</title>
<polygon fill="#efefef" stroke="transparent" points="46.5,-165.5 46.5,-200.5 229.5,-200.5 229.5,-165.5 46.5,-165.5"/>
<polygon fill="none" stroke="#000000" points="46.5,-165.5 46.5,-200.5 229.5,-200.5 229.5,-165.5 46.5,-165.5"/>
<text text-anchor="start" x="74.764" y="-178.3" font-family="Arial Bold" font-size="18.00" fill="#000000">actor_info</text>
<text text-anchor="start" x="153.7858" y="-178.3" font-family="Arial" font-size="14.00" fill="#000000"> </text>
<text text-anchor="start" x="157.6764" y="-178.3" font-family="Arial" font-size="14.00" fill="#666666">[VIEW]</text>
<polygon fill="none" stroke="#000000" points="46.5,-135.5 46.5,-165.5 229.5,-165.5 229.5,-135.5 46.5,-135.5"/>
<text text-anchor="start" x="53.2055" y="-146.9" font-family="Arial" font-size="14.00" fill="#000000">actor_id </text>
<text text-anchor="start" x="106.8843" y="-146.9" font-family="Arial" font-size="14.00" fill="#666666">[smallint unsigned]</text>
<polygon fill="none" stroke="#000000" points="46.5,-105.5 46.5,-135.5 229.5,-135.5 229.5,-105.5 46.5,-105.5"/>
<text text-anchor="start" x="53.5" y="-116.9" font-family="Arial" font-size="14.00" fill="#000000">first_name </text>
<text text-anchor="start" x="122.73" y="-116.9" font-family="Arial" font-size="14.00" fill="#666666">[varchar(45)]</text>
<polygon fill="none" stroke="#000000" points="46.5,-75.5 46.5,-105.5 229.5,-105.5 229.5,-75.5 46.5,-75.5"/>
<text text-anchor="start" x="53.5" y="-86.9" font-family="Arial" font-size="14.00" fill="#000000">last_name </text>
<text text-anchor="start" x="121.9614" y="-86.9" font-family="Arial" font-size="14.00" fill="#666666">[varchar(45)]</text>
<polygon fill="none" stroke="#000000" points="46.5,-45.5 46.5,-75.5 229.5,-75.5 229.5,-45.5 46.5,-45.5"/>
<text text-anchor="start" x="53.5" y="-56.9" font-family="Arial" font-size="14.00" fill="#000000">film_info </text>
<text text-anchor="start" x="109.5" y="-56.9" font-family="Arial" font-size="14.00" fill="#666666">[text]</text>
<polygon fill="none" stroke="#000000" stroke-width="3" points="44.5,-44.5 44.5,-202.5 230.5,-202.5 230.5,-44.5 44.5,-44.5"/>
</g>
</g>
</svg>
