<?xml version="1.0" encoding="UTF-8" standalone="no"?>
<!DOCTYPE svg PUBLIC "-//W3C//DTD SVG 1.1//EN"
 "http://www.w3.org/Graphics/SVG/1.1/DTD/svg11.dtd">
<!-- Generated by graphviz version 2.40.1 (20161225.0304)
 -->
<!-- Title: address Pages: 1 -->
<svg width="1035pt" height="1169pt"
 viewBox="0.00 0.00 1035.00 1169.00" xmlns="http://www.w3.org/2000/svg" xmlns:xlink="http://www.w3.org/1999/xlink">
<g id="graph0" class="graph" transform="scale(1 1) rotate(0) translate(4 1165)">
<title>address</title>
<polygon fill="#ffffff" stroke="transparent" points="-4,4 -4,-1165 1031,-1165 1031,4 -4,4"/>
<!-- address -->
<g id="node1" class="node">
<title>address</title>
<polygon fill="#efefef" stroke="transparent" points="412,-592.5 412,-627.5 614,-627.5 614,-592.5 412,-592.5"/>
<polygon fill="none" stroke="#000000" points="412,-592.5 412,-627.5 614,-627.5 614,-592.5 412,-592.5"/>
<text text-anchor="start" x="432.3646" y="-605.3" font-family="Arial Bold" font-size="18.00" fill="#000000">address</text>
<text text-anchor="start" x="496.3816" y="-605.3" font-family="Arial" font-size="14.00" fill="#000000"> </text>
<text text-anchor="start" x="500.2722" y="-605.3" font-family="Arial" font-size="14.00" fill="#666666">[BASE TABLE]</text>
<polygon fill="none" stroke="#000000" points="412,-562.5 412,-592.5 614,-592.5 614,-562.5 412,-562.5"/>
<text text-anchor="start" x="418.8682" y="-573.9" font-family="Arial" font-size="14.00" fill="#000000">address_id </text>
<text text-anchor="start" x="491.2216" y="-573.9" font-family="Arial" font-size="14.00" fill="#666666">[smallint unsigned]</text>
<polygon fill="none" stroke="#000000" points="412,-532.5 412,-562.5 614,-562.5 614,-532.5 412,-532.5"/>
<text text-anchor="start" x="419" y="-543.9" font-family="Arial" font-size="14.00" fill="#000000">address </text>
<text text-anchor="start" x="472.6816" y="-543.9" font-family="Arial" font-size="14.00" fill="#666666">[varchar(50)]</text>
<polygon fill="none" stroke="#000000" points="412,-502.5 412,-532.5 614,-532.5 614,-502.5 412,-502.5"/>
<text text-anchor="start" x="419" y="-513.9" font-family="Arial" font-size="14.00" fill="#000000">address2 </text>
<text text-anchor="start" x="480.4642" y="-513.9" font-family="Arial" font-size="14.00" fill="#666666">[varchar(50)]</text>
<polygon fill="none" stroke="#000000" points="412,-472.5 412,-502.5 614,-502.5 614,-472.5 412,-472.5"/>
<text text-anchor="start" x="419" y="-483.9" font-family="Arial" font-size="14.00" fill="#000000">district </text>
<text text-anchor="start" x="463.3282" y="-483.9" font-family="Arial" font-size="14.00" fill="#666666">[varchar(20)]</text>
<polygon fill="none" stroke="#000000" points="412,-442.5 412,-472.5 614,-472.5 614,-442.5 412,-442.5"/>
<text text-anchor="start" x="419" y="-453.9" font-family="Arial" font-size="14.00" fill="#000000">city_id </text>
<text text-anchor="start" x="462.5596" y="-453.9" font-family="Arial" font-size="14.00" fill="#666666">[smallint unsigned]</text>
<polygon fill="none" stroke="#000000" points="412,-412.5 412,-442.5 614,-442.5 614,-412.5 412,-412.5"/>
<text text-anchor="start" x="419" y="-423.9" font-family="Arial" font-size="14.00" fill="#000000">postal_code </text>
<text text-anchor="start" x="498.366" y="-423.9" font-family="Arial" font-size="14.00" fill="#666666">[varchar(10)]</text>
<polygon fill="none" stroke="#000000" points="412,-382.5 412,-412.5 614,-412.5 614,-382.5 412,-382.5"/>
<text text-anchor="start" x="419" y="-393.9" font-family="Arial" font-size="14.00" fill="#000000">phone </text>
<text text-anchor="start" x="461.8036" y="-393.9" font-family="Arial" font-size="14.00" fill="#666666">[varchar(20)]</text>
<polygon fill="none" stroke="#000000" points="412,-352.5 412,-382.5 614,-382.5 614,-352.5 412,-352.5"/>
<text text-anchor="start" x="419" y="-363.9" font-family="Arial" font-size="14.00" fill="#000000">location </text>
<text text-anchor="start" x="471.1248" y="-363.9" font-family="Arial" font-size="14.00" fill="#666666">[geometry]</text>
<polygon fill="none" stroke="#000000" points="412,-322.5 412,-352.5 614,-352.5 614,-322.5 412,-322.5"/>
<text text-anchor="start" x="419" y="-333.9" font-family="Arial" font-size="14.00" fill="#000000">last_update </text>
<text text-anchor="start" x="495.2566" y="-333.9" font-family="Arial" font-size="14.00" fill="#666666">[timestamp]</text>
<polygon fill="none" stroke="#000000" stroke-width="3" points="410.5,-321.5 410.5,-629.5 615.5,-629.5 615.5,-321.5 410.5,-321.5"/>
</g>
<!-- city -->
<g id="node5" class="node">
<title>city</title>
<polygon fill="#efefef" stroke="transparent" points="414,-162.5 414,-197.5 612,-197.5 612,-162.5 414,-162.5"/>
<polygon fill="none" stroke="#000000" points="414,-162.5 414,-197.5 612,-197.5 612,-162.5 414,-162.5"/>
<text text-anchor="start" x="450.8749" y="-175.3" font-family="Arial Bold" font-size="18.00" fill="#000000">city</text>
<text text-anchor="start" x="477.8713" y="-175.3" font-family="Arial" font-size="14.00" fill="#000000"> </text>
<text text-anchor="start" x="481.7619" y="-175.3" font-family="Arial" font-size="14.00" fill="#666666">[BASE TABLE]</text>
<polygon fill="none" stroke="#000000" points="414,-132.5 414,-162.5 612,-162.5 612,-132.5 414,-132.5"/>
<text text-anchor="start" x="421" y="-143.9" font-family="Arial" font-size="14.00" fill="#000000">city_id </text>
<text text-anchor="start" x="464.5596" y="-143.9" font-family="Arial" font-size="14.00" fill="#666666">[smallint unsigned]</text>
<polygon fill="none" stroke="#000000" points="414,-102.5 414,-132.5 612,-132.5 612,-102.5 414,-102.5"/>
<text text-anchor="start" x="421" y="-113.9" font-family="Arial" font-size="14.00" fill="#000000">city </text>
<text text-anchor="start" x="445.8878" y="-113.9" font-family="Arial" font-size="14.00" fill="#666666">[varchar(50)]</text>
<polygon fill="none" stroke="#000000" points="414,-72.5 414,-102.5 612,-102.5 612,-72.5 414,-72.5"/>
<text text-anchor="start" x="420.8142" y="-83.9" font-family="Arial" font-size="14.00" fill="#000000">country_id </text>
<text text-anchor="start" x="489.2756" y="-83.9" font-family="Arial" font-size="14.00" fill="#666666">[smallint unsigned]</text>
<polygon fill="none" stroke="#000000" points="414,-42.5 414,-72.5 612,-72.5 612,-42.5 414,-42.5"/>
<text text-anchor="start" x="421" y="-53.9" font-family="Arial" font-size="14.00" fill="#000000">last_update </text>
<text text-anchor="start" x="497.2566" y="-53.9" font-family="Arial" font-size="14.00" fill="#666666">[timestamp]</text>
</g>
<!-- address&#45;&gt;city -->
<g id="edge4" class="edge">
<title>address:city_id&#45;&gt;city:city_id</title>
<path fill="none" stroke="#000000" d="M624.2247,-456.9106C751.5915,-441.9577 746.2823,-147.5 612,-147.5"/>
<polygon fill="#000000" stroke="#000000" points="623.9834,-456.9244 613.741,-453.0075 618.9917,-457.2122 614,-457.5 614,-457.5 614,-457.5 618.9917,-457.2122 614.259,-461.9925 623.9834,-456.9244 623.9834,-456.9244"/>
<text text-anchor="start" x="620.6155" y="-467.5" font-family="Arial" font-size="10.00" fill="#000000">FOREIGN KEY (city_id) REFERENCES city (city_id)</text>
</g>
<!-- customer -->
<g id="node2" class="node">
<title>customer</title>
<polygon fill="#efefef" stroke="transparent" points="98,-1052.5 98,-1087.5 308,-1087.5 308,-1052.5 98,-1052.5"/>
<polygon fill="none" stroke="#000000" points="98,-1052.5 98,-1087.5 308,-1087.5 308,-1052.5 98,-1052.5"/>
<text text-anchor="start" x="117.3705" y="-1065.3" font-family="Arial Bold" font-size="18.00" fill="#000000">customer</text>
<text text-anchor="start" x="191.3757" y="-1065.3" font-family="Arial" font-size="14.00" fill="#000000"> </text>
<text text-anchor="start" x="195.2663" y="-1065.3" font-family="Arial" font-size="14.00" fill="#666666">[BASE TABLE]</text>
<polygon fill="none" stroke="#000000" points="98,-1022.5 98,-1052.5 308,-1052.5 308,-1022.5 98,-1022.5"/>
<text text-anchor="start" x="104.9839" y="-1033.9" font-family="Arial" font-size="14.00" fill="#000000">customer_id </text>
<text text-anchor="start" x="185.1059" y="-1033.9" font-family="Arial" font-size="14.00" fill="#666666">[smallint unsigned]</text>
<polygon fill="none" stroke="#000000" points="98,-992.5 98,-1022.5 308,-1022.5 308,-992.5 98,-992.5"/>
<text text-anchor="start" x="105" y="-1003.9" font-family="Arial" font-size="14.00" fill="#000000">store_id </text>
<text text-anchor="start" x="158.6788" y="-1003.9" font-family="Arial" font-size="14.00" fill="#666666">[tinyint unsigned]</text>
<polygon fill="none" stroke="#000000" points="98,-962.5 98,-992.5 308,-992.5 308,-962.5 98,-962.5"/>
<text text-anchor="start" x="105" y="-973.9" font-family="Arial" font-size="14.00" fill="#000000">first_name </text>
<text text-anchor="start" x="174.23" y="-973.9" font-family="Arial" font-size="14.00" fill="#666666">[varchar(45)]</text>
<polygon fill="none" stroke="#000000" points="98,-932.5 98,-962.5 308,-962.5 308,-932.5 98,-932.5"/>
<text text-anchor="start" x="105" y="-943.9" font-family="Arial" font-size="14.00" fill="#000000">last_name </text>
<text text-anchor="start" x="173.4614" y="-943.9" font-family="Arial" font-size="14.00" fill="#666666">[varchar(45)]</text>
<polygon fill="none" stroke="#000000" points="98,-902.5 98,-932.5 308,-932.5 308,-902.5 98,-902.5"/>
<text text-anchor="start" x="105" y="-913.9" font-family="Arial" font-size="14.00" fill="#000000">email </text>
<text text-anchor="start" x="142.3296" y="-913.9" font-family="Arial" font-size="14.00" fill="#666666">[varchar(50)]</text>
<polygon fill="none" stroke="#000000" points="98,-872.5 98,-902.5 308,-902.5 308,-872.5 98,-872.5"/>
<text text-anchor="start" x="105" y="-883.9" font-family="Arial" font-size="14.00" fill="#000000">address_id </text>
<text text-anchor="start" x="177.3534" y="-883.9" font-family="Arial" font-size="14.00" fill="#666666">[smallint unsigned]</text>
<polygon fill="none" stroke="#000000" points="98,-842.5 98,-872.5 308,-872.5 308,-842.5 98,-842.5"/>
<text text-anchor="start" x="105" y="-853.9" font-family="Arial" font-size="14.00" fill="#000000">active </text>
<text text-anchor="start" x="145.453" y="-853.9" font-family="Arial" font-size="14.00" fill="#666666">[tinyint(1)]</text>
<polygon fill="none" stroke="#000000" points="98,-812.5 98,-842.5 308,-842.5 308,-812.5 98,-812.5"/>
<text text-anchor="start" x="105" y="-823.9" font-family="Arial" font-size="14.00" fill="#000000">create_date </text>
<text text-anchor="start" x="182.8106" y="-823.9" font-family="Arial" font-size="14.00" fill="#666666">[datetime]</text>
<polygon fill="none" stroke="#000000" points="98,-782.5 98,-812.5 308,-812.5 308,-782.5 98,-782.5"/>
<text text-anchor="start" x="105" y="-793.9" font-family="Arial" font-size="14.00" fill="#000000">last_update </text>
<text text-anchor="start" x="181.2566" y="-793.9" font-family="Arial" font-size="14.00" fill="#666666">[timestamp]</text>
</g>
<!-- customer&#45;&gt;address -->
<g id="edge1" class="edge">
<title>customer:address_id&#45;&gt;address:address_id</title>
<path fill="none" stroke="#000000" d="M318.257,-886.9073C385.2695,-878.5853 334.5972,-784.2885 360,-710 380.4685,-650.1413 348.7384,-577.5 412,-577.5"/>
<polygon fill="#000000" stroke="#000000" points="317.9833,-886.9231 307.7404,-883.0075 312.9917,-887.2115 308,-887.5 308,-887.5 308,-887.5 312.9917,-887.2115 308.2596,-891.9925 317.9833,-886.9231 317.9833,-886.9231"/>
<text text-anchor="start" x="6.765" y="-897.5" font-family="Arial" font-size="10.00" fill="#000000">FOREIGN KEY (address_id) REFERENCES address (address_id)</text>
</g>
<!-- staff -->
<g id="node3" class="node">
<title>staff</title>
<polygon fill="#efefef" stroke="transparent" points="412,-1082.5 412,-1117.5 614,-1117.5 614,-1082.5 412,-1082.5"/>
<polygon fill="none" stroke="#000000" points="412,-1082.5 412,-1117.5 614,-1117.5 614,-1082.5 412,-1082.5"/>
<text text-anchor="start" x="447.3667" y="-1095.3" font-family="Arial Bold" font-size="18.00" fill="#000000">staff</text>
<text text-anchor="start" x="481.3795" y="-1095.3" font-family="Arial" font-size="14.00" fill="#000000"> </text>
<text text-anchor="start" x="485.2701" y="-1095.3" font-family="Arial" font-size="14.00" fill="#666666">[BASE TABLE]</text>
<polygon fill="none" stroke="#000000" points="412,-1052.5 412,-1082.5 614,-1082.5 614,-1052.5 412,-1052.5"/>
<text text-anchor="start" x="419" y="-1063.9" font-family="Arial" font-size="14.00" fill="#000000">staff_id </text>
<text text-anchor="start" x="468.0168" y="-1063.9" font-family="Arial" font-size="14.00" fill="#666666">[tinyint unsigned]</text>
<polygon fill="none" stroke="#000000" points="412,-1022.5 412,-1052.5 614,-1052.5 614,-1022.5 412,-1022.5"/>
<text text-anchor="start" x="419" y="-1033.9" font-family="Arial" font-size="14.00" fill="#000000">first_name </text>
<text text-anchor="start" x="488.23" y="-1033.9" font-family="Arial" font-size="14.00" fill="#666666">[varchar(45)]</text>
<polygon fill="none" stroke="#000000" points="412,-992.5 412,-1022.5 614,-1022.5 614,-992.5 412,-992.5"/>
<text text-anchor="start" x="419" y="-1003.9" font-family="Arial" font-size="14.00" fill="#000000">last_name </text>
<text text-anchor="start" x="487.4614" y="-1003.9" font-family="Arial" font-size="14.00" fill="#666666">[varchar(45)]</text>
<polygon fill="none" stroke="#000000" points="412,-962.5 412,-992.5 614,-992.5 614,-962.5 412,-962.5"/>
<text text-anchor="start" x="418.8682" y="-973.9" font-family="Arial" font-size="14.00" fill="#000000">address_id </text>
<text text-anchor="start" x="491.2216" y="-973.9" font-family="Arial" font-size="14.00" fill="#666666">[smallint unsigned]</text>
<polygon fill="none" stroke="#000000" points="412,-932.5 412,-962.5 614,-962.5 614,-932.5 412,-932.5"/>
<text text-anchor="start" x="419" y="-943.9" font-family="Arial" font-size="14.00" fill="#000000">picture </text>
<text text-anchor="start" x="464.8962" y="-943.9" font-family="Arial" font-size="14.00" fill="#666666">[blob]</text>
<polygon fill="none" stroke="#000000" points="412,-902.5 412,-932.5 614,-932.5 614,-902.5 412,-902.5"/>
<text text-anchor="start" x="419" y="-913.9" font-family="Arial" font-size="14.00" fill="#000000">email </text>
<text text-anchor="start" x="456.3296" y="-913.9" font-family="Arial" font-size="14.00" fill="#666666">[varchar(50)]</text>
<polygon fill="none" stroke="#000000" points="412,-872.5 412,-902.5 614,-902.5 614,-872.5 412,-872.5"/>
<text text-anchor="start" x="419" y="-883.9" font-family="Arial" font-size="14.00" fill="#000000">store_id </text>
<text text-anchor="start" x="472.6788" y="-883.9" font-family="Arial" font-size="14.00" fill="#666666">[tinyint unsigned]</text>
<polygon fill="none" stroke="#000000" points="412,-842.5 412,-872.5 614,-872.5 614,-842.5 412,-842.5"/>
<text text-anchor="start" x="419" y="-853.9" font-family="Arial" font-size="14.00" fill="#000000">active </text>
<text text-anchor="start" x="459.453" y="-853.9" font-family="Arial" font-size="14.00" fill="#666666">[tinyint(1)]</text>
<polygon fill="none" stroke="#000000" points="412,-812.5 412,-842.5 614,-842.5 614,-812.5 412,-812.5"/>
<text text-anchor="start" x="419" y="-823.9" font-family="Arial" font-size="14.00" fill="#000000">username </text>
<text text-anchor="start" x="485.1248" y="-823.9" font-family="Arial" font-size="14.00" fill="#666666">[varchar(16)]</text>
<polygon fill="none" stroke="#000000" points="412,-782.5 412,-812.5 614,-812.5 614,-782.5 412,-782.5"/>
<text text-anchor="start" x="419" y="-793.9" font-family="Arial" font-size="14.00" fill="#000000">password </text>
<text text-anchor="start" x="482.7882" y="-793.9" font-family="Arial" font-size="14.00" fill="#666666">[varchar(40)]</text>
<polygon fill="none" stroke="#000000" points="412,-752.5 412,-782.5 614,-782.5 614,-752.5 412,-752.5"/>
<text text-anchor="start" x="419" y="-763.9" font-family="Arial" font-size="14.00" fill="#000000">last_update </text>
<text text-anchor="start" x="495.2566" y="-763.9" font-family="Arial" font-size="14.00" fill="#666666">[timestamp]</text>
</g>
<!-- staff&#45;&gt;address -->
<g id="edge2" class="edge">
<title>staff:address_id&#45;&gt;address:address_id</title>
<path fill="none" stroke="#000000" d="M622.4915,-972.1479C658.2368,-924.6817 655.4063,-577.5 614,-577.5"/>
<polygon fill="#000000" stroke="#000000" points="622.4599,-972.1679 611.6005,-973.6931 618.2299,-974.8339 614,-977.5 614,-977.5 614,-977.5 618.2299,-974.8339 616.3995,-981.3069 622.4599,-972.1679 622.4599,-972.1679"/>
<text text-anchor="start" x="312.765" y="-987.5" font-family="Arial" font-size="10.00" fill="#000000">FOREIGN KEY (address_id) REFERENCES address (address_id)</text>
</g>
<!-- store -->
<g id="node4" class="node">
<title>store</title>
<polygon fill="#efefef" stroke="transparent" points="719,-977.5 719,-1012.5 950,-1012.5 950,-977.5 719,-977.5"/>
<polygon fill="none" stroke="#000000" points="719,-977.5 719,-1012.5 950,-1012.5 950,-977.5 719,-977.5"/>
<text text-anchor="start" x="765.8697" y="-990.3" font-family="Arial Bold" font-size="18.00" fill="#000000">store</text>
<text text-anchor="start" x="805.8765" y="-990.3" font-family="Arial" font-size="14.00" fill="#000000"> </text>
<text text-anchor="start" x="809.7671" y="-990.3" font-family="Arial" font-size="14.00" fill="#666666">[BASE TABLE]</text>
<polygon fill="none" stroke="#000000" points="719,-947.5 719,-977.5 950,-977.5 950,-947.5 719,-947.5"/>
<text text-anchor="start" x="726" y="-958.9" font-family="Arial" font-size="14.00" fill="#000000">store_id </text>
<text text-anchor="start" x="779.6788" y="-958.9" font-family="Arial" font-size="14.00" fill="#666666">[tinyint unsigned]</text>
<polygon fill="none" stroke="#000000" points="719,-917.5 719,-947.5 950,-947.5 950,-917.5 719,-917.5"/>
<text text-anchor="start" x="725.9664" y="-928.9" font-family="Arial" font-size="14.00" fill="#000000">manager_staff_id </text>
<text text-anchor="start" x="838" y="-928.9" font-family="Arial" font-size="14.00" fill="#666666">[tinyint unsigned]</text>
<polygon fill="none" stroke="#000000" points="719,-887.5 719,-917.5 950,-917.5 950,-887.5 719,-887.5"/>
<text text-anchor="start" x="726" y="-898.9" font-family="Arial" font-size="14.00" fill="#000000">address_id </text>
<text text-anchor="start" x="798.3534" y="-898.9" font-family="Arial" font-size="14.00" fill="#666666">[smallint unsigned]</text>
<polygon fill="none" stroke="#000000" points="719,-857.5 719,-887.5 950,-887.5 950,-857.5 719,-857.5"/>
<text text-anchor="start" x="726" y="-868.9" font-family="Arial" font-size="14.00" fill="#000000">last_update </text>
<text text-anchor="start" x="802.2566" y="-868.9" font-family="Arial" font-size="14.00" fill="#666666">[timestamp]</text>
</g>
<!-- store&#45;&gt;address -->
<g id="edge3" class="edge">
<title>store:address_id&#45;&gt;address:address_id</title>
<path fill="none" stroke="#000000" d="M708.8337,-901.9625C635.3373,-893.6563 692.8765,-790.7438 666,-710 646.0204,-649.9763 677.2616,-577.5 614,-577.5"/>
<polygon fill="#000000" stroke="#000000" points="709.0139,-901.972 718.7624,-906.9937 714.007,-902.236 719,-902.5 719,-902.5 719,-902.5 714.007,-902.236 719.2376,-898.0063 709.0139,-901.972 709.0139,-901.972"/>
<text text-anchor="start" x="725.765" y="-912.5" font-family="Arial" font-size="10.00" fill="#000000">FOREIGN KEY (address_id) REFERENCES address (address_id)</text>
</g>
</g>
</svg>
