<?xml version="1.0" encoding="UTF-8" standalone="no"?>
<!DOCTYPE svg PUBLIC "-//W3C//DTD SVG 1.1//EN"
 "http://www.w3.org/Graphics/SVG/1.1/DTD/svg11.dtd">
<!-- Generated by graphviz version 2.40.1 (20161225.0304)
 -->
<!-- Title: category Pages: 1 -->
<svg width="585pt" height="472pt"
 viewBox="0.00 0.00 585.00 472.00" xmlns="http://www.w3.org/2000/svg" xmlns:xlink="http://www.w3.org/1999/xlink">
<g id="graph0" class="graph" transform="scale(1 1) rotate(0) translate(4 468)">
<title>category</title>
<polygon fill="#ffffff" stroke="transparent" points="-4,4 -4,-468 581,-468 581,4 -4,4"/>
<!-- category -->
<g id="node1" class="node">
<title>category</title>
<polygon fill="#efefef" stroke="transparent" points="327,-135.5 327,-170.5 522,-170.5 522,-135.5 327,-135.5"/>
<polygon fill="none" stroke="#000000" points="327,-135.5 327,-170.5 522,-170.5 522,-135.5 327,-135.5"/>
<text text-anchor="start" x="341.3635" y="-148.3" font-family="Arial Bold" font-size="18.00" fill="#000000">category</text>
<text text-anchor="start" x="410.3827" y="-148.3" font-family="Arial" font-size="14.00" fill="#000000"> </text>
<text text-anchor="start" x="414.2733" y="-148.3" font-family="Arial" font-size="14.00" fill="#666666">[BASE TABLE]</text>
<polygon fill="none" stroke="#000000" points="327,-105.5 327,-135.5 522,-135.5 522,-105.5 327,-105.5"/>
<text text-anchor="start" x="333.8612" y="-116.9" font-family="Arial" font-size="14.00" fill="#000000">category_id </text>
<text text-anchor="start" x="410.1052" y="-116.9" font-family="Arial" font-size="14.00" fill="#666666">[tinyint unsigned]</text>
<polygon fill="none" stroke="#000000" points="327,-75.5 327,-105.5 522,-105.5 522,-75.5 327,-75.5"/>
<text text-anchor="start" x="334" y="-86.9" font-family="Arial" font-size="14.00" fill="#000000">name </text>
<text text-anchor="start" x="372.899" y="-86.9" font-family="Arial" font-size="14.00" fill="#666666">[varchar(25)]</text>
<polygon fill="none" stroke="#000000" points="327,-45.5 327,-75.5 522,-75.5 522,-45.5 327,-45.5"/>
<text text-anchor="start" x="334" y="-56.9" font-family="Arial" font-size="14.00" fill="#000000">last_update </text>
<text text-anchor="start" x="410.2566" y="-56.9" font-family="Arial" font-size="14.00" fill="#666666">[timestamp]</text>
<polygon fill="none" stroke="#000000" stroke-width="3" points="325,-44.5 325,-172.5 523,-172.5 523,-44.5 325,-44.5"/>
</g>
<!-- film_category -->
<g id="node2" class="node">
<title>film_category</title>
<polygon fill="#efefef" stroke="transparent" points="316,-385.5 316,-420.5 534,-420.5 534,-385.5 316,-385.5"/>
<polygon fill="none" stroke="#000000" points="316,-385.5 316,-420.5 534,-420.5 534,-385.5 316,-385.5"/>
<text text-anchor="start" x="322.869" y="-398.3" font-family="Arial Bold" font-size="18.00" fill="#000000">film_category</text>
<text text-anchor="start" x="429.8772" y="-398.3" font-family="Arial" font-size="14.00" fill="#000000"> </text>
<text text-anchor="start" x="433.7678" y="-398.3" font-family="Arial" font-size="14.00" fill="#666666">[BASE TABLE]</text>
<polygon fill="none" stroke="#000000" points="316,-355.5 316,-385.5 534,-385.5 534,-355.5 316,-355.5"/>
<text text-anchor="start" x="323" y="-366.9" font-family="Arial" font-size="14.00" fill="#000000">film_id </text>
<text text-anchor="start" x="367.3268" y="-366.9" font-family="Arial" font-size="14.00" fill="#666666">[smallint unsigned]</text>
<polygon fill="none" stroke="#000000" points="316,-325.5 316,-355.5 534,-355.5 534,-325.5 316,-325.5"/>
<text text-anchor="start" x="323" y="-336.9" font-family="Arial" font-size="14.00" fill="#000000">category_id </text>
<text text-anchor="start" x="399.244" y="-336.9" font-family="Arial" font-size="14.00" fill="#666666">[tinyint unsigned]</text>
<polygon fill="none" stroke="#000000" points="316,-295.5 316,-325.5 534,-325.5 534,-295.5 316,-295.5"/>
<text text-anchor="start" x="323" y="-306.9" font-family="Arial" font-size="14.00" fill="#000000">last_update </text>
<text text-anchor="start" x="399.2566" y="-306.9" font-family="Arial" font-size="14.00" fill="#666666">[timestamp]</text>
</g>
<!-- film_category&#45;&gt;category -->
<g id="edge1" class="edge">
<title>film_category:category_id&#45;&gt;category:category_id</title>
<path fill="none" stroke="#000000" d="M306.0774,-338.9282C279.9262,-329.4915 293.4234,-279.8642 316,-253 375.7969,-181.847 462.2031,-288.153 522,-217 549.5935,-184.1662 564.8889,-120.5 522,-120.5"/>
<polygon fill="#000000" stroke="#000000" points="306.1232,-338.9353 315.2959,-344.9446 311.0616,-339.7177 316,-340.5 316,-340.5 316,-340.5 311.0616,-339.7177 316.7041,-336.0554 306.1232,-338.9353 306.1232,-338.9353"/>
<text text-anchor="start" x="6.5965" y="-350.5" font-family="Arial" font-size="10.00" fill="#000000">FOREIGN KEY (category_id) REFERENCES category (category_id)</text>
</g>
</g>
</svg>
