<?xml version="1.0" encoding="UTF-8" standalone="no"?>
<!DOCTYPE svg PUBLIC "-//W3C//DTD SVG 1.1//EN"
 "http://www.w3.org/Graphics/SVG/1.1/DTD/svg11.dtd">
<!-- Generated by graphviz version 2.40.1 (20161225.0304)
 -->
<!-- Title: city Pages: 1 -->
<svg width="552pt" height="929pt"
 viewBox="0.00 0.00 552.00 929.00" xmlns="http://www.w3.org/2000/svg" xmlns:xlink="http://www.w3.org/1999/xlink">
<g id="graph0" class="graph" transform="scale(1 1) rotate(0) translate(4 925)">
<title>city</title>
<polygon fill="#ffffff" stroke="transparent" points="-4,4 -4,-925 548,-925 548,4 -4,4"/>
<!-- city -->
<g id="node1" class="node">
<title>city</title>
<polygon fill="#efefef" stroke="transparent" points="46,-412.5 46,-447.5 244,-447.5 244,-412.5 46,-412.5"/>
<polygon fill="none" stroke="#000000" points="46,-412.5 46,-447.5 244,-447.5 244,-412.5 46,-412.5"/>
<text text-anchor="start" x="82.8749" y="-425.3" font-family="Arial Bold" font-size="18.00" fill="#000000">city</text>
<text text-anchor="start" x="109.8713" y="-425.3" font-family="Arial" font-size="14.00" fill="#000000"> </text>
<text text-anchor="start" x="113.7619" y="-425.3" font-family="Arial" font-size="14.00" fill="#666666">[BASE TABLE]</text>
<polygon fill="none" stroke="#000000" points="46,-382.5 46,-412.5 244,-412.5 244,-382.5 46,-382.5"/>
<text text-anchor="start" x="53" y="-393.9" font-family="Arial" font-size="14.00" fill="#000000">city_id </text>
<text text-anchor="start" x="96.5596" y="-393.9" font-family="Arial" font-size="14.00" fill="#666666">[smallint unsigned]</text>
<polygon fill="none" stroke="#000000" points="46,-352.5 46,-382.5 244,-382.5 244,-352.5 46,-352.5"/>
<text text-anchor="start" x="53" y="-363.9" font-family="Arial" font-size="14.00" fill="#000000">city </text>
<text text-anchor="start" x="77.8878" y="-363.9" font-family="Arial" font-size="14.00" fill="#666666">[varchar(50)]</text>
<polygon fill="none" stroke="#000000" points="46,-322.5 46,-352.5 244,-352.5 244,-322.5 46,-322.5"/>
<text text-anchor="start" x="52.8142" y="-333.9" font-family="Arial" font-size="14.00" fill="#000000">country_id </text>
<text text-anchor="start" x="121.2756" y="-333.9" font-family="Arial" font-size="14.00" fill="#666666">[smallint unsigned]</text>
<polygon fill="none" stroke="#000000" points="46,-292.5 46,-322.5 244,-322.5 244,-292.5 46,-292.5"/>
<text text-anchor="start" x="53" y="-303.9" font-family="Arial" font-size="14.00" fill="#000000">last_update </text>
<text text-anchor="start" x="129.2566" y="-303.9" font-family="Arial" font-size="14.00" fill="#666666">[timestamp]</text>
<polygon fill="none" stroke="#000000" stroke-width="3" points="44.5,-291.5 44.5,-449.5 245.5,-449.5 245.5,-291.5 44.5,-291.5"/>
</g>
<!-- country -->
<g id="node3" class="node">
<title>country</title>
<polygon fill="#efefef" stroke="transparent" points="46,-132.5 46,-167.5 244,-167.5 244,-132.5 46,-132.5"/>
<polygon fill="none" stroke="#000000" points="46,-132.5 46,-167.5 244,-167.5 244,-132.5 46,-132.5"/>
<text text-anchor="start" x="66.8666" y="-145.3" font-family="Arial Bold" font-size="18.00" fill="#000000">country</text>
<text text-anchor="start" x="125.8796" y="-145.3" font-family="Arial" font-size="14.00" fill="#000000"> </text>
<text text-anchor="start" x="129.7702" y="-145.3" font-family="Arial" font-size="14.00" fill="#666666">[BASE TABLE]</text>
<polygon fill="none" stroke="#000000" points="46,-102.5 46,-132.5 244,-132.5 244,-102.5 46,-102.5"/>
<text text-anchor="start" x="52.8142" y="-113.9" font-family="Arial" font-size="14.00" fill="#000000">country_id </text>
<text text-anchor="start" x="121.2756" y="-113.9" font-family="Arial" font-size="14.00" fill="#666666">[smallint unsigned]</text>
<polygon fill="none" stroke="#000000" points="46,-72.5 46,-102.5 244,-102.5 244,-72.5 46,-72.5"/>
<text text-anchor="start" x="53" y="-83.9" font-family="Arial" font-size="14.00" fill="#000000">country </text>
<text text-anchor="start" x="102.7896" y="-83.9" font-family="Arial" font-size="14.00" fill="#666666">[varchar(50)]</text>
<polygon fill="none" stroke="#000000" points="46,-42.5 46,-72.5 244,-72.5 244,-42.5 46,-42.5"/>
<text text-anchor="start" x="53" y="-53.9" font-family="Arial" font-size="14.00" fill="#000000">last_update </text>
<text text-anchor="start" x="129.2566" y="-53.9" font-family="Arial" font-size="14.00" fill="#666666">[timestamp]</text>
</g>
<!-- city&#45;&gt;country -->
<g id="edge2" class="edge">
<title>city:country_id&#45;&gt;country:country_id</title>
<path fill="none" stroke="#000000" d="M254.216,-336.6591C341.6501,-321.8888 338.2448,-117.5 244,-117.5"/>
<polygon fill="#000000" stroke="#000000" points="253.9663,-336.6795 243.6308,-333.0152 248.9831,-337.0898 244,-337.5 244,-337.5 244,-337.5 248.9831,-337.0898 244.3692,-341.9848 253.9663,-336.6795 253.9663,-336.6795"/>
<text text-anchor="start" x="250.935" y="-347.5" font-family="Arial" font-size="10.00" fill="#000000">FOREIGN KEY (country_id) REFERENCES country (country_id)</text>
</g>
<!-- address -->
<g id="node2" class="node">
<title>address</title>
<polygon fill="#efefef" stroke="transparent" points="44,-842.5 44,-877.5 246,-877.5 246,-842.5 44,-842.5"/>
<polygon fill="none" stroke="#000000" points="44,-842.5 44,-877.5 246,-877.5 246,-842.5 44,-842.5"/>
<text text-anchor="start" x="64.3646" y="-855.3" font-family="Arial Bold" font-size="18.00" fill="#000000">address</text>
<text text-anchor="start" x="128.3816" y="-855.3" font-family="Arial" font-size="14.00" fill="#000000"> </text>
<text text-anchor="start" x="132.2722" y="-855.3" font-family="Arial" font-size="14.00" fill="#666666">[BASE TABLE]</text>
<polygon fill="none" stroke="#000000" points="44,-812.5 44,-842.5 246,-842.5 246,-812.5 44,-812.5"/>
<text text-anchor="start" x="50.8682" y="-823.9" font-family="Arial" font-size="14.00" fill="#000000">address_id </text>
<text text-anchor="start" x="123.2216" y="-823.9" font-family="Arial" font-size="14.00" fill="#666666">[smallint unsigned]</text>
<polygon fill="none" stroke="#000000" points="44,-782.5 44,-812.5 246,-812.5 246,-782.5 44,-782.5"/>
<text text-anchor="start" x="51" y="-793.9" font-family="Arial" font-size="14.00" fill="#000000">address </text>
<text text-anchor="start" x="104.6816" y="-793.9" font-family="Arial" font-size="14.00" fill="#666666">[varchar(50)]</text>
<polygon fill="none" stroke="#000000" points="44,-752.5 44,-782.5 246,-782.5 246,-752.5 44,-752.5"/>
<text text-anchor="start" x="51" y="-763.9" font-family="Arial" font-size="14.00" fill="#000000">address2 </text>
<text text-anchor="start" x="112.4642" y="-763.9" font-family="Arial" font-size="14.00" fill="#666666">[varchar(50)]</text>
<polygon fill="none" stroke="#000000" points="44,-722.5 44,-752.5 246,-752.5 246,-722.5 44,-722.5"/>
<text text-anchor="start" x="51" y="-733.9" font-family="Arial" font-size="14.00" fill="#000000">district </text>
<text text-anchor="start" x="95.3282" y="-733.9" font-family="Arial" font-size="14.00" fill="#666666">[varchar(20)]</text>
<polygon fill="none" stroke="#000000" points="44,-692.5 44,-722.5 246,-722.5 246,-692.5 44,-692.5"/>
<text text-anchor="start" x="51" y="-703.9" font-family="Arial" font-size="14.00" fill="#000000">city_id </text>
<text text-anchor="start" x="94.5596" y="-703.9" font-family="Arial" font-size="14.00" fill="#666666">[smallint unsigned]</text>
<polygon fill="none" stroke="#000000" points="44,-662.5 44,-692.5 246,-692.5 246,-662.5 44,-662.5"/>
<text text-anchor="start" x="51" y="-673.9" font-family="Arial" font-size="14.00" fill="#000000">postal_code </text>
<text text-anchor="start" x="130.366" y="-673.9" font-family="Arial" font-size="14.00" fill="#666666">[varchar(10)]</text>
<polygon fill="none" stroke="#000000" points="44,-632.5 44,-662.5 246,-662.5 246,-632.5 44,-632.5"/>
<text text-anchor="start" x="51" y="-643.9" font-family="Arial" font-size="14.00" fill="#000000">phone </text>
<text text-anchor="start" x="93.8036" y="-643.9" font-family="Arial" font-size="14.00" fill="#666666">[varchar(20)]</text>
<polygon fill="none" stroke="#000000" points="44,-602.5 44,-632.5 246,-632.5 246,-602.5 44,-602.5"/>
<text text-anchor="start" x="51" y="-613.9" font-family="Arial" font-size="14.00" fill="#000000">location </text>
<text text-anchor="start" x="103.1248" y="-613.9" font-family="Arial" font-size="14.00" fill="#666666">[geometry]</text>
<polygon fill="none" stroke="#000000" points="44,-572.5 44,-602.5 246,-602.5 246,-572.5 44,-572.5"/>
<text text-anchor="start" x="51" y="-583.9" font-family="Arial" font-size="14.00" fill="#000000">last_update </text>
<text text-anchor="start" x="127.2566" y="-583.9" font-family="Arial" font-size="14.00" fill="#666666">[timestamp]</text>
</g>
<!-- address&#45;&gt;city -->
<g id="edge1" class="edge">
<title>address:city_id&#45;&gt;city:city_id</title>
<path fill="none" stroke="#000000" d="M255.9471,-705.183C314.5147,-676.815 309.392,-397.5 244,-397.5"/>
<polygon fill="#000000" stroke="#000000" points="255.7393,-705.2313 244.9791,-703.1173 250.8696,-706.3657 246,-707.5 246,-707.5 246,-707.5 250.8696,-706.3657 247.0209,-711.8827 255.7393,-705.2313 255.7393,-705.2313"/>
<text text-anchor="start" x="252.6155" y="-717.5" font-family="Arial" font-size="10.00" fill="#000000">FOREIGN KEY (city_id) REFERENCES city (city_id)</text>
</g>
</g>
</svg>
