<?xml version="1.0" encoding="UTF-8" standalone="no"?>
<!DOCTYPE svg PUBLIC "-//W3C//DTD SVG 1.1//EN"
 "http://www.w3.org/Graphics/SVG/1.1/DTD/svg11.dtd">
<!-- Generated by graphviz version 2.40.1 (20161225.0304)
 -->
<!-- Title: country Pages: 1 -->
<svg width="552pt" height="502pt"
 viewBox="0.00 0.00 552.00 502.00" xmlns="http://www.w3.org/2000/svg" xmlns:xlink="http://www.w3.org/1999/xlink">
<g id="graph0" class="graph" transform="scale(1 1) rotate(0) translate(4 498)">
<title>country</title>
<polygon fill="#ffffff" stroke="transparent" points="-4,4 -4,-498 548,-498 548,4 -4,4"/>
<!-- country -->
<g id="node1" class="node">
<title>country</title>
<polygon fill="#efefef" stroke="transparent" points="46,-135.5 46,-170.5 244,-170.5 244,-135.5 46,-135.5"/>
<polygon fill="none" stroke="#000000" points="46,-135.5 46,-170.5 244,-170.5 244,-135.5 46,-135.5"/>
<text text-anchor="start" x="66.8666" y="-148.3" font-family="Arial Bold" font-size="18.00" fill="#000000">country</text>
<text text-anchor="start" x="125.8796" y="-148.3" font-family="Arial" font-size="14.00" fill="#000000"> </text>
<text text-anchor="start" x="129.7702" y="-148.3" font-family="Arial" font-size="14.00" fill="#666666">[BASE TABLE]</text>
<polygon fill="none" stroke="#000000" points="46,-105.5 46,-135.5 244,-135.5 244,-105.5 46,-105.5"/>
<text text-anchor="start" x="52.8142" y="-116.9" font-family="Arial" font-size="14.00" fill="#000000">country_id </text>
<text text-anchor="start" x="121.2756" y="-116.9" font-family="Arial" font-size="14.00" fill="#666666">[smallint unsigned]</text>
<polygon fill="none" stroke="#000000" points="46,-75.5 46,-105.5 244,-105.5 244,-75.5 46,-75.5"/>
<text text-anchor="start" x="53" y="-86.9" font-family="Arial" font-size="14.00" fill="#000000">country </text>
<text text-anchor="start" x="102.7896" y="-86.9" font-family="Arial" font-size="14.00" fill="#666666">[varchar(50)]</text>
<polygon fill="none" stroke="#000000" points="46,-45.5 46,-75.5 244,-75.5 244,-45.5 46,-45.5"/>
<text text-anchor="start" x="53" y="-56.9" font-family="Arial" font-size="14.00" fill="#000000">last_update </text>
<text text-anchor="start" x="129.2566" y="-56.9" font-family="Arial" font-size="14.00" fill="#666666">[timestamp]</text>
<polygon fill="none" stroke="#000000" stroke-width="3" points="44.5,-44.5 44.5,-172.5 245.5,-172.5 245.5,-44.5 44.5,-44.5"/>
</g>
<!-- city -->
<g id="node2" class="node">
<title>city</title>
<polygon fill="#efefef" stroke="transparent" points="46,-415.5 46,-450.5 244,-450.5 244,-415.5 46,-415.5"/>
<polygon fill="none" stroke="#000000" points="46,-415.5 46,-450.5 244,-450.5 244,-415.5 46,-415.5"/>
<text text-anchor="start" x="82.8749" y="-428.3" font-family="Arial Bold" font-size="18.00" fill="#000000">city</text>
<text text-anchor="start" x="109.8713" y="-428.3" font-family="Arial" font-size="14.00" fill="#000000"> </text>
<text text-anchor="start" x="113.7619" y="-428.3" font-family="Arial" font-size="14.00" fill="#666666">[BASE TABLE]</text>
<polygon fill="none" stroke="#000000" points="46,-385.5 46,-415.5 244,-415.5 244,-385.5 46,-385.5"/>
<text text-anchor="start" x="53" y="-396.9" font-family="Arial" font-size="14.00" fill="#000000">city_id </text>
<text text-anchor="start" x="96.5596" y="-396.9" font-family="Arial" font-size="14.00" fill="#666666">[smallint unsigned]</text>
<polygon fill="none" stroke="#000000" points="46,-355.5 46,-385.5 244,-385.5 244,-355.5 46,-355.5"/>
<text text-anchor="start" x="53" y="-366.9" font-family="Arial" font-size="14.00" fill="#000000">city </text>
<text text-anchor="start" x="77.8878" y="-366.9" font-family="Arial" font-size="14.00" fill="#666666">[varchar(50)]</text>
<polygon fill="none" stroke="#000000" points="46,-325.5 46,-355.5 244,-355.5 244,-325.5 46,-325.5"/>
<text text-anchor="start" x="52.8142" y="-336.9" font-family="Arial" font-size="14.00" fill="#000000">country_id </text>
<text text-anchor="start" x="121.2756" y="-336.9" font-family="Arial" font-size="14.00" fill="#666666">[smallint unsigned]</text>
<polygon fill="none" stroke="#000000" points="46,-295.5 46,-325.5 244,-325.5 244,-295.5 46,-295.5"/>
<text text-anchor="start" x="53" y="-306.9" font-family="Arial" font-size="14.00" fill="#000000">last_update </text>
<text text-anchor="start" x="129.2566" y="-306.9" font-family="Arial" font-size="14.00" fill="#666666">[timestamp]</text>
</g>
<!-- city&#45;&gt;country -->
<g id="edge1" class="edge">
<title>city:country_id&#45;&gt;country:country_id</title>
<path fill="none" stroke="#000000" d="M254.216,-339.6591C341.6501,-324.8888 338.2448,-120.5 244,-120.5"/>
<polygon fill="#000000" stroke="#000000" points="253.9663,-339.6795 243.6308,-336.0152 248.9831,-340.0898 244,-340.5 244,-340.5 244,-340.5 248.9831,-340.0898 244.3692,-344.9848 253.9663,-339.6795 253.9663,-339.6795"/>
<text text-anchor="start" x="250.935" y="-350.5" font-family="Arial" font-size="10.00" fill="#000000">FOREIGN KEY (country_id) REFERENCES country (country_id)</text>
</g>
</g>
</svg>
