<?xml version="1.0" encoding="UTF-8" standalone="no"?>
<!DOCTYPE svg PUBLIC "-//W3C//DTD SVG 1.1//EN"
 "http://www.w3.org/Graphics/SVG/1.1/DTD/svg11.dtd">
<!-- Generated by graphviz version 2.40.1 (20161225.0304)
 -->
<!-- Title: customer Pages: 1 -->
<svg width="802pt" height="1199pt"
 viewBox="0.00 0.00 802.00 1199.00" xmlns="http://www.w3.org/2000/svg" xmlns:xlink="http://www.w3.org/1999/xlink">
<g id="graph0" class="graph" transform="scale(1 1) rotate(0) translate(4 1195)">
<title>customer</title>
<polygon fill="#ffffff" stroke="transparent" points="-4,4 -4,-1195 798,-1195 798,4 -4,4"/>
<!-- customer -->
<g id="node1" class="node">
<title>customer</title>
<polygon fill="#efefef" stroke="transparent" points="276,-742.5 276,-777.5 486,-777.5 486,-742.5 276,-742.5"/>
<polygon fill="none" stroke="#000000" points="276,-742.5 276,-777.5 486,-777.5 486,-742.5 276,-742.5"/>
<text text-anchor="start" x="295.3705" y="-755.3" font-family="Arial Bold" font-size="18.00" fill="#000000">customer</text>
<text text-anchor="start" x="369.3757" y="-755.3" font-family="Arial" font-size="14.00" fill="#000000"> </text>
<text text-anchor="start" x="373.2663" y="-755.3" font-family="Arial" font-size="14.00" fill="#666666">[BASE TABLE]</text>
<polygon fill="none" stroke="#000000" points="276,-712.5 276,-742.5 486,-742.5 486,-712.5 276,-712.5"/>
<text text-anchor="start" x="282.9839" y="-723.9" font-family="Arial" font-size="14.00" fill="#000000">customer_id </text>
<text text-anchor="start" x="363.1059" y="-723.9" font-family="Arial" font-size="14.00" fill="#666666">[smallint unsigned]</text>
<polygon fill="none" stroke="#000000" points="276,-682.5 276,-712.5 486,-712.5 486,-682.5 276,-682.5"/>
<text text-anchor="start" x="283" y="-693.9" font-family="Arial" font-size="14.00" fill="#000000">store_id </text>
<text text-anchor="start" x="336.6788" y="-693.9" font-family="Arial" font-size="14.00" fill="#666666">[tinyint unsigned]</text>
<polygon fill="none" stroke="#000000" points="276,-652.5 276,-682.5 486,-682.5 486,-652.5 276,-652.5"/>
<text text-anchor="start" x="283" y="-663.9" font-family="Arial" font-size="14.00" fill="#000000">first_name </text>
<text text-anchor="start" x="352.23" y="-663.9" font-family="Arial" font-size="14.00" fill="#666666">[varchar(45)]</text>
<polygon fill="none" stroke="#000000" points="276,-622.5 276,-652.5 486,-652.5 486,-622.5 276,-622.5"/>
<text text-anchor="start" x="283" y="-633.9" font-family="Arial" font-size="14.00" fill="#000000">last_name </text>
<text text-anchor="start" x="351.4614" y="-633.9" font-family="Arial" font-size="14.00" fill="#666666">[varchar(45)]</text>
<polygon fill="none" stroke="#000000" points="276,-592.5 276,-622.5 486,-622.5 486,-592.5 276,-592.5"/>
<text text-anchor="start" x="283" y="-603.9" font-family="Arial" font-size="14.00" fill="#000000">email </text>
<text text-anchor="start" x="320.3296" y="-603.9" font-family="Arial" font-size="14.00" fill="#666666">[varchar(50)]</text>
<polygon fill="none" stroke="#000000" points="276,-562.5 276,-592.5 486,-592.5 486,-562.5 276,-562.5"/>
<text text-anchor="start" x="283" y="-573.9" font-family="Arial" font-size="14.00" fill="#000000">address_id </text>
<text text-anchor="start" x="355.3534" y="-573.9" font-family="Arial" font-size="14.00" fill="#666666">[smallint unsigned]</text>
<polygon fill="none" stroke="#000000" points="276,-532.5 276,-562.5 486,-562.5 486,-532.5 276,-532.5"/>
<text text-anchor="start" x="283" y="-543.9" font-family="Arial" font-size="14.00" fill="#000000">active </text>
<text text-anchor="start" x="323.453" y="-543.9" font-family="Arial" font-size="14.00" fill="#666666">[tinyint(1)]</text>
<polygon fill="none" stroke="#000000" points="276,-502.5 276,-532.5 486,-532.5 486,-502.5 276,-502.5"/>
<text text-anchor="start" x="283" y="-513.9" font-family="Arial" font-size="14.00" fill="#000000">create_date </text>
<text text-anchor="start" x="360.8106" y="-513.9" font-family="Arial" font-size="14.00" fill="#666666">[datetime]</text>
<polygon fill="none" stroke="#000000" points="276,-472.5 276,-502.5 486,-502.5 486,-472.5 276,-472.5"/>
<text text-anchor="start" x="283" y="-483.9" font-family="Arial" font-size="14.00" fill="#000000">last_update </text>
<text text-anchor="start" x="359.2566" y="-483.9" font-family="Arial" font-size="14.00" fill="#666666">[timestamp]</text>
<polygon fill="none" stroke="#000000" stroke-width="3" points="274.5,-471.5 274.5,-779.5 487.5,-779.5 487.5,-471.5 274.5,-471.5"/>
</g>
<!-- store -->
<g id="node4" class="node">
<title>store</title>
<polygon fill="#efefef" stroke="transparent" points="105,-237.5 105,-272.5 336,-272.5 336,-237.5 105,-237.5"/>
<polygon fill="none" stroke="#000000" points="105,-237.5 105,-272.5 336,-272.5 336,-237.5 105,-237.5"/>
<text text-anchor="start" x="151.8697" y="-250.3" font-family="Arial Bold" font-size="18.00" fill="#000000">store</text>
<text text-anchor="start" x="191.8765" y="-250.3" font-family="Arial" font-size="14.00" fill="#000000"> </text>
<text text-anchor="start" x="195.7671" y="-250.3" font-family="Arial" font-size="14.00" fill="#666666">[BASE TABLE]</text>
<polygon fill="none" stroke="#000000" points="105,-207.5 105,-237.5 336,-237.5 336,-207.5 105,-207.5"/>
<text text-anchor="start" x="112" y="-218.9" font-family="Arial" font-size="14.00" fill="#000000">store_id </text>
<text text-anchor="start" x="165.6788" y="-218.9" font-family="Arial" font-size="14.00" fill="#666666">[tinyint unsigned]</text>
<polygon fill="none" stroke="#000000" points="105,-177.5 105,-207.5 336,-207.5 336,-177.5 105,-177.5"/>
<text text-anchor="start" x="111.9664" y="-188.9" font-family="Arial" font-size="14.00" fill="#000000">manager_staff_id </text>
<text text-anchor="start" x="224" y="-188.9" font-family="Arial" font-size="14.00" fill="#666666">[tinyint unsigned]</text>
<polygon fill="none" stroke="#000000" points="105,-147.5 105,-177.5 336,-177.5 336,-147.5 105,-147.5"/>
<text text-anchor="start" x="112" y="-158.9" font-family="Arial" font-size="14.00" fill="#000000">address_id </text>
<text text-anchor="start" x="184.3534" y="-158.9" font-family="Arial" font-size="14.00" fill="#666666">[smallint unsigned]</text>
<polygon fill="none" stroke="#000000" points="105,-117.5 105,-147.5 336,-147.5 336,-117.5 105,-117.5"/>
<text text-anchor="start" x="112" y="-128.9" font-family="Arial" font-size="14.00" fill="#000000">last_update </text>
<text text-anchor="start" x="188.2566" y="-128.9" font-family="Arial" font-size="14.00" fill="#666666">[timestamp]</text>
</g>
<!-- customer&#45;&gt;store -->
<g id="edge3" class="edge">
<title>customer:store_id&#45;&gt;store:store_id</title>
<path fill="none" stroke="#000000" d="M265.97,-697.1084C161.0419,-688.5116 247.3795,-540.1361 276,-427 289.7534,-372.6333 322.2466,-370.3667 336,-316 346.1914,-275.7135 377.5556,-222.5 336,-222.5"/>
<polygon fill="#000000" stroke="#000000" points="266.0076,-697.1098 275.8244,-701.9966 271.0038,-697.3049 276,-697.5 276,-697.5 276,-697.5 271.0038,-697.3049 276.1756,-693.0034 266.0076,-697.1098 266.0076,-697.1098"/>
<text text-anchor="start" x="14.7735" y="-707.5" font-family="Arial" font-size="10.00" fill="#000000">FOREIGN KEY (store_id) REFERENCES store (store_id)</text>
</g>
<!-- address -->
<g id="node5" class="node">
<title>address</title>
<polygon fill="#efefef" stroke="transparent" points="440,-312.5 440,-347.5 642,-347.5 642,-312.5 440,-312.5"/>
<polygon fill="none" stroke="#000000" points="440,-312.5 440,-347.5 642,-347.5 642,-312.5 440,-312.5"/>
<text text-anchor="start" x="460.3646" y="-325.3" font-family="Arial Bold" font-size="18.00" fill="#000000">address</text>
<text text-anchor="start" x="524.3816" y="-325.3" font-family="Arial" font-size="14.00" fill="#000000"> </text>
<text text-anchor="start" x="528.2722" y="-325.3" font-family="Arial" font-size="14.00" fill="#666666">[BASE TABLE]</text>
<polygon fill="none" stroke="#000000" points="440,-282.5 440,-312.5 642,-312.5 642,-282.5 440,-282.5"/>
<text text-anchor="start" x="446.8682" y="-293.9" font-family="Arial" font-size="14.00" fill="#000000">address_id </text>
<text text-anchor="start" x="519.2216" y="-293.9" font-family="Arial" font-size="14.00" fill="#666666">[smallint unsigned]</text>
<polygon fill="none" stroke="#000000" points="440,-252.5 440,-282.5 642,-282.5 642,-252.5 440,-252.5"/>
<text text-anchor="start" x="447" y="-263.9" font-family="Arial" font-size="14.00" fill="#000000">address </text>
<text text-anchor="start" x="500.6816" y="-263.9" font-family="Arial" font-size="14.00" fill="#666666">[varchar(50)]</text>
<polygon fill="none" stroke="#000000" points="440,-222.5 440,-252.5 642,-252.5 642,-222.5 440,-222.5"/>
<text text-anchor="start" x="447" y="-233.9" font-family="Arial" font-size="14.00" fill="#000000">address2 </text>
<text text-anchor="start" x="508.4642" y="-233.9" font-family="Arial" font-size="14.00" fill="#666666">[varchar(50)]</text>
<polygon fill="none" stroke="#000000" points="440,-192.5 440,-222.5 642,-222.5 642,-192.5 440,-192.5"/>
<text text-anchor="start" x="447" y="-203.9" font-family="Arial" font-size="14.00" fill="#000000">district </text>
<text text-anchor="start" x="491.3282" y="-203.9" font-family="Arial" font-size="14.00" fill="#666666">[varchar(20)]</text>
<polygon fill="none" stroke="#000000" points="440,-162.5 440,-192.5 642,-192.5 642,-162.5 440,-162.5"/>
<text text-anchor="start" x="447" y="-173.9" font-family="Arial" font-size="14.00" fill="#000000">city_id </text>
<text text-anchor="start" x="490.5596" y="-173.9" font-family="Arial" font-size="14.00" fill="#666666">[smallint unsigned]</text>
<polygon fill="none" stroke="#000000" points="440,-132.5 440,-162.5 642,-162.5 642,-132.5 440,-132.5"/>
<text text-anchor="start" x="447" y="-143.9" font-family="Arial" font-size="14.00" fill="#000000">postal_code </text>
<text text-anchor="start" x="526.366" y="-143.9" font-family="Arial" font-size="14.00" fill="#666666">[varchar(10)]</text>
<polygon fill="none" stroke="#000000" points="440,-102.5 440,-132.5 642,-132.5 642,-102.5 440,-102.5"/>
<text text-anchor="start" x="447" y="-113.9" font-family="Arial" font-size="14.00" fill="#000000">phone </text>
<text text-anchor="start" x="489.8036" y="-113.9" font-family="Arial" font-size="14.00" fill="#666666">[varchar(20)]</text>
<polygon fill="none" stroke="#000000" points="440,-72.5 440,-102.5 642,-102.5 642,-72.5 440,-72.5"/>
<text text-anchor="start" x="447" y="-83.9" font-family="Arial" font-size="14.00" fill="#000000">location </text>
<text text-anchor="start" x="499.1248" y="-83.9" font-family="Arial" font-size="14.00" fill="#666666">[geometry]</text>
<polygon fill="none" stroke="#000000" points="440,-42.5 440,-72.5 642,-72.5 642,-42.5 440,-42.5"/>
<text text-anchor="start" x="447" y="-53.9" font-family="Arial" font-size="14.00" fill="#000000">last_update </text>
<text text-anchor="start" x="523.2566" y="-53.9" font-family="Arial" font-size="14.00" fill="#666666">[timestamp]</text>
</g>
<!-- customer&#45;&gt;address -->
<g id="edge4" class="edge">
<title>customer:address_id&#45;&gt;address:address_id</title>
<path fill="none" stroke="#000000" d="M496.055,-576.7089C548.8021,-567.7064 513.6953,-483.8429 486,-427 474.629,-403.6617 451.371,-414.3383 440,-391 421.7986,-353.6426 398.4444,-297.5 440,-297.5"/>
<polygon fill="#000000" stroke="#000000" points="495.9692,-576.7156 485.647,-573.0139 490.9846,-577.1078 486,-577.5 486,-577.5 486,-577.5 490.9846,-577.1078 486.353,-581.9861 495.9692,-576.7156 495.9692,-576.7156"/>
<text text-anchor="start" x="492.765" y="-587.5" font-family="Arial" font-size="10.00" fill="#000000">FOREIGN KEY (address_id) REFERENCES address (address_id)</text>
</g>
<!-- payment -->
<g id="node2" class="node">
<title>payment</title>
<polygon fill="#efefef" stroke="transparent" points="115,-1112.5 115,-1147.5 325,-1147.5 325,-1112.5 115,-1112.5"/>
<polygon fill="none" stroke="#000000" points="115,-1112.5 115,-1147.5 325,-1147.5 325,-1112.5 115,-1112.5"/>
<text text-anchor="start" x="136.8635" y="-1125.3" font-family="Arial Bold" font-size="18.00" fill="#000000">payment</text>
<text text-anchor="start" x="205.8827" y="-1125.3" font-family="Arial" font-size="14.00" fill="#000000"> </text>
<text text-anchor="start" x="209.7733" y="-1125.3" font-family="Arial" font-size="14.00" fill="#666666">[BASE TABLE]</text>
<polygon fill="none" stroke="#000000" points="115,-1082.5 115,-1112.5 325,-1112.5 325,-1082.5 115,-1082.5"/>
<text text-anchor="start" x="122" y="-1093.9" font-family="Arial" font-size="14.00" fill="#000000">payment_id </text>
<text text-anchor="start" x="198.244" y="-1093.9" font-family="Arial" font-size="14.00" fill="#666666">[smallint unsigned]</text>
<polygon fill="none" stroke="#000000" points="115,-1052.5 115,-1082.5 325,-1082.5 325,-1052.5 115,-1052.5"/>
<text text-anchor="start" x="121.9839" y="-1063.9" font-family="Arial" font-size="14.00" fill="#000000">customer_id </text>
<text text-anchor="start" x="202.1059" y="-1063.9" font-family="Arial" font-size="14.00" fill="#666666">[smallint unsigned]</text>
<polygon fill="none" stroke="#000000" points="115,-1022.5 115,-1052.5 325,-1052.5 325,-1022.5 115,-1022.5"/>
<text text-anchor="start" x="122" y="-1033.9" font-family="Arial" font-size="14.00" fill="#000000">staff_id </text>
<text text-anchor="start" x="171.0168" y="-1033.9" font-family="Arial" font-size="14.00" fill="#666666">[tinyint unsigned]</text>
<polygon fill="none" stroke="#000000" points="115,-992.5 115,-1022.5 325,-1022.5 325,-992.5 115,-992.5"/>
<text text-anchor="start" x="122" y="-1003.9" font-family="Arial" font-size="14.00" fill="#000000">rental_id </text>
<text text-anchor="start" x="179.568" y="-1003.9" font-family="Arial" font-size="14.00" fill="#666666">[int]</text>
<polygon fill="none" stroke="#000000" points="115,-962.5 115,-992.5 325,-992.5 325,-962.5 115,-962.5"/>
<text text-anchor="start" x="122" y="-973.9" font-family="Arial" font-size="14.00" fill="#000000">amount </text>
<text text-anchor="start" x="172.5722" y="-973.9" font-family="Arial" font-size="14.00" fill="#666666">[decimal(5,2)]</text>
<polygon fill="none" stroke="#000000" points="115,-932.5 115,-962.5 325,-962.5 325,-932.5 115,-932.5"/>
<text text-anchor="start" x="122" y="-943.9" font-family="Arial" font-size="14.00" fill="#000000">payment_date </text>
<text text-anchor="start" x="214.5932" y="-943.9" font-family="Arial" font-size="14.00" fill="#666666">[datetime]</text>
<polygon fill="none" stroke="#000000" points="115,-902.5 115,-932.5 325,-932.5 325,-902.5 115,-902.5"/>
<text text-anchor="start" x="122" y="-913.9" font-family="Arial" font-size="14.00" fill="#000000">last_update </text>
<text text-anchor="start" x="198.2566" y="-913.9" font-family="Arial" font-size="14.00" fill="#666666">[timestamp]</text>
</g>
<!-- payment&#45;&gt;customer -->
<g id="edge1" class="edge">
<title>payment:customer_id&#45;&gt;customer:customer_id</title>
<path fill="none" stroke="#000000" d="M335.1627,-1066.9368C413.2848,-1057.7828 365.0226,-939.0674 325,-860 312.7956,-835.8893 288.2044,-848.1107 276,-824 256.6305,-785.7341 233.1111,-727.5 276,-727.5"/>
<polygon fill="#000000" stroke="#000000" points="334.9847,-1066.9466 324.751,-1063.0069 329.9923,-1067.2233 325,-1067.5 325,-1067.5 325,-1067.5 329.9923,-1067.2233 325.249,-1071.9931 334.9847,-1066.9466 334.9847,-1066.9466"/>
<text text-anchor="start" x="7.4415" y="-1077.5" font-family="Arial" font-size="10.00" fill="#000000">FOREIGN KEY (customer_id) REFERENCES customer (customer_id)</text>
</g>
<!-- rental -->
<g id="node3" class="node">
<title>rental</title>
<polygon fill="#efefef" stroke="transparent" points="429,-1112.5 429,-1147.5 655,-1147.5 655,-1112.5 429,-1112.5"/>
<polygon fill="none" stroke="#000000" points="429,-1112.5 429,-1147.5 655,-1147.5 655,-1112.5 429,-1112.5"/>
<text text-anchor="start" x="470.8695" y="-1125.3" font-family="Arial Bold" font-size="18.00" fill="#000000">rental</text>
<text text-anchor="start" x="515.8767" y="-1125.3" font-family="Arial" font-size="14.00" fill="#000000"> </text>
<text text-anchor="start" x="519.7673" y="-1125.3" font-family="Arial" font-size="14.00" fill="#666666">[BASE TABLE]</text>
<polygon fill="none" stroke="#000000" points="429,-1082.5 429,-1112.5 655,-1112.5 655,-1082.5 429,-1082.5"/>
<text text-anchor="start" x="436" y="-1093.9" font-family="Arial" font-size="14.00" fill="#000000">rental_id </text>
<text text-anchor="start" x="493.568" y="-1093.9" font-family="Arial" font-size="14.00" fill="#666666">[int]</text>
<polygon fill="none" stroke="#000000" points="429,-1052.5 429,-1082.5 655,-1082.5 655,-1052.5 429,-1052.5"/>
<text text-anchor="start" x="436" y="-1063.9" font-family="Arial" font-size="14.00" fill="#000000">rental_date </text>
<text text-anchor="start" x="509.9172" y="-1063.9" font-family="Arial" font-size="14.00" fill="#666666">[datetime]</text>
<polygon fill="none" stroke="#000000" points="429,-1022.5 429,-1052.5 655,-1052.5 655,-1022.5 429,-1022.5"/>
<text text-anchor="start" x="435.81" y="-1033.9" font-family="Arial" font-size="14.00" fill="#000000">inventory_id </text>
<text text-anchor="start" x="515.1606" y="-1033.9" font-family="Arial" font-size="14.00" fill="#666666">[mediumint unsigned]</text>
<polygon fill="none" stroke="#000000" points="429,-992.5 429,-1022.5 655,-1022.5 655,-992.5 429,-992.5"/>
<text text-anchor="start" x="436" y="-1003.9" font-family="Arial" font-size="14.00" fill="#000000">customer_id </text>
<text text-anchor="start" x="516.122" y="-1003.9" font-family="Arial" font-size="14.00" fill="#666666">[smallint unsigned]</text>
<polygon fill="none" stroke="#000000" points="429,-962.5 429,-992.5 655,-992.5 655,-962.5 429,-962.5"/>
<text text-anchor="start" x="436" y="-973.9" font-family="Arial" font-size="14.00" fill="#000000">return_date </text>
<text text-anchor="start" x="511.4712" y="-973.9" font-family="Arial" font-size="14.00" fill="#666666">[datetime]</text>
<polygon fill="none" stroke="#000000" points="429,-932.5 429,-962.5 655,-962.5 655,-932.5 429,-932.5"/>
<text text-anchor="start" x="436" y="-943.9" font-family="Arial" font-size="14.00" fill="#000000">staff_id </text>
<text text-anchor="start" x="485.0168" y="-943.9" font-family="Arial" font-size="14.00" fill="#666666">[tinyint unsigned]</text>
<polygon fill="none" stroke="#000000" points="429,-902.5 429,-932.5 655,-932.5 655,-902.5 429,-902.5"/>
<text text-anchor="start" x="436" y="-913.9" font-family="Arial" font-size="14.00" fill="#000000">last_update </text>
<text text-anchor="start" x="512.2566" y="-913.9" font-family="Arial" font-size="14.00" fill="#666666">[timestamp]</text>
</g>
<!-- rental&#45;&gt;customer -->
<g id="edge2" class="edge">
<title>rental:customer_id&#45;&gt;customer:customer_id</title>
<path fill="none" stroke="#000000" d="M418.7995,-1006.6553C367.2787,-997.3996 399.1484,-914.1606 429,-860 443.4632,-833.759 471.5368,-850.241 486,-824 506.7027,-786.4386 528.8889,-727.5 486,-727.5"/>
<polygon fill="#000000" stroke="#000000" points="419.0341,-1006.6746 428.6286,-1011.9846 424.0171,-1007.0873 429,-1007.5 429,-1007.5 429,-1007.5 424.0171,-1007.0873 429.3714,-1003.0154 419.0341,-1006.6746 419.0341,-1006.6746"/>
<text text-anchor="start" x="436.4415" y="-1017.5" font-family="Arial" font-size="10.00" fill="#000000">FOREIGN KEY (customer_id) REFERENCES customer (customer_id)</text>
</g>
</g>
</svg>
