<?xml version="1.0" encoding="UTF-8" standalone="no"?>
<!DOCTYPE svg PUBLIC "-//W3C//DTD SVG 1.1//EN"
 "http://www.w3.org/Graphics/SVG/1.1/DTD/svg11.dtd">
<!-- Generated by graphviz version 2.40.1 (20161225.0304)
 -->
<!-- Title: film Pages: 1 -->
<svg width="1125pt" height="1049pt"
 viewBox="0.00 0.00 1125.00 1049.00" xmlns="http://www.w3.org/2000/svg" xmlns:xlink="http://www.w3.org/1999/xlink">
<g id="graph0" class="graph" transform="scale(1 1) rotate(0) translate(4 1045)">
<title>film</title>
<polygon fill="#ffffff" stroke="transparent" points="-4,4 -4,-1045 1121,-1045 1121,4 -4,4"/>
<!-- film -->
<g id="node1" class="node">
<title>film</title>
<polygon fill="#efefef" stroke="transparent" points="362,-682.5 362,-717.5 907,-717.5 907,-682.5 362,-682.5"/>
<polygon fill="none" stroke="#000000" points="362,-682.5 362,-717.5 907,-717.5 907,-682.5 362,-682.5"/>
<text text-anchor="start" x="571.8817" y="-695.3" font-family="Arial Bold" font-size="18.00" fill="#000000">film</text>
<text text-anchor="start" x="599.8645" y="-695.3" font-family="Arial" font-size="14.00" fill="#000000"> </text>
<text text-anchor="start" x="603.7551" y="-695.3" font-family="Arial" font-size="14.00" fill="#666666">[BASE TABLE]</text>
<polygon fill="none" stroke="#000000" points="362,-652.5 362,-682.5 907,-682.5 907,-652.5 362,-652.5"/>
<text text-anchor="start" x="369" y="-663.9" font-family="Arial" font-size="14.00" fill="#000000">film_id </text>
<text text-anchor="start" x="413.3268" y="-663.9" font-family="Arial" font-size="14.00" fill="#666666">[smallint unsigned]</text>
<polygon fill="none" stroke="#000000" points="362,-622.5 362,-652.5 907,-652.5 907,-622.5 362,-622.5"/>
<text text-anchor="start" x="369" y="-633.9" font-family="Arial" font-size="14.00" fill="#000000">title </text>
<text text-anchor="start" x="394.6676" y="-633.9" font-family="Arial" font-size="14.00" fill="#666666">[varchar(128)]</text>
<polygon fill="none" stroke="#000000" points="362,-592.5 362,-622.5 907,-622.5 907,-592.5 362,-592.5"/>
<text text-anchor="start" x="369" y="-603.9" font-family="Arial" font-size="14.00" fill="#000000">description </text>
<text text-anchor="start" x="440.568" y="-603.9" font-family="Arial" font-size="14.00" fill="#666666">[text]</text>
<polygon fill="none" stroke="#000000" points="362,-562.5 362,-592.5 907,-592.5 907,-562.5 362,-562.5"/>
<text text-anchor="start" x="369" y="-573.9" font-family="Arial" font-size="14.00" fill="#000000">release_year </text>
<text text-anchor="start" x="453.7966" y="-573.9" font-family="Arial" font-size="14.00" fill="#666666">[year]</text>
<polygon fill="none" stroke="#000000" points="362,-532.5 362,-562.5 907,-562.5 907,-532.5 362,-532.5"/>
<text text-anchor="start" x="369" y="-543.9" font-family="Arial" font-size="14.00" fill="#000000">language_id </text>
<text text-anchor="start" x="449.1472" y="-543.9" font-family="Arial" font-size="14.00" fill="#666666">[tinyint unsigned]</text>
<polygon fill="none" stroke="#000000" points="362,-502.5 362,-532.5 907,-532.5 907,-502.5 362,-502.5"/>
<text text-anchor="start" x="369" y="-513.9" font-family="Arial" font-size="14.00" fill="#000000">original_language_id </text>
<text text-anchor="start" x="502.0406" y="-513.9" font-family="Arial" font-size="14.00" fill="#666666">[tinyint unsigned]</text>
<polygon fill="none" stroke="#000000" points="362,-472.5 362,-502.5 907,-502.5 907,-472.5 362,-472.5"/>
<text text-anchor="start" x="369" y="-483.9" font-family="Arial" font-size="14.00" fill="#000000">rental_duration </text>
<text text-anchor="start" x="466.2496" y="-483.9" font-family="Arial" font-size="14.00" fill="#666666">[tinyint unsigned]</text>
<polygon fill="none" stroke="#000000" points="362,-442.5 362,-472.5 907,-472.5 907,-442.5 362,-442.5"/>
<text text-anchor="start" x="369" y="-453.9" font-family="Arial" font-size="14.00" fill="#000000">rental_rate </text>
<text text-anchor="start" x="439.7952" y="-453.9" font-family="Arial" font-size="14.00" fill="#666666">[decimal(4,2)]</text>
<polygon fill="none" stroke="#000000" points="362,-412.5 362,-442.5 907,-442.5 907,-412.5 362,-412.5"/>
<text text-anchor="start" x="369" y="-423.9" font-family="Arial" font-size="14.00" fill="#000000">length </text>
<text text-anchor="start" x="411.0182" y="-423.9" font-family="Arial" font-size="14.00" fill="#666666">[smallint unsigned]</text>
<polygon fill="none" stroke="#000000" points="362,-382.5 362,-412.5 907,-412.5 907,-382.5 362,-382.5"/>
<text text-anchor="start" x="369" y="-393.9" font-family="Arial" font-size="14.00" fill="#000000">replacement_cost </text>
<text text-anchor="start" x="483.3604" y="-393.9" font-family="Arial" font-size="14.00" fill="#666666">[decimal(5,2)]</text>
<polygon fill="none" stroke="#000000" points="362,-352.5 362,-382.5 907,-382.5 907,-352.5 362,-352.5"/>
<text text-anchor="start" x="369" y="-363.9" font-family="Arial" font-size="14.00" fill="#000000">rating </text>
<text text-anchor="start" x="407.8962" y="-363.9" font-family="Arial" font-size="14.00" fill="#666666">[enum(&#39;G&#39;,&#39;PG&#39;,&#39;PG&#45;13&#39;,&#39;R&#39;,&#39;NC&#45;17&#39;)]</text>
<polygon fill="none" stroke="#000000" points="362,-322.5 362,-352.5 907,-352.5 907,-322.5 362,-322.5"/>
<text text-anchor="start" x="368.5252" y="-333.9" font-family="Arial" font-size="14.00" fill="#000000">special_features </text>
<text text-anchor="start" x="474.3316" y="-333.9" font-family="Arial" font-size="14.00" fill="#666666">[set(&#39;Trailers&#39;,&#39;Commentaries&#39;,&#39;Deleted Scenes&#39;,&#39;Behind the Scenes&#39;)]</text>
<polygon fill="none" stroke="#000000" points="362,-292.5 362,-322.5 907,-322.5 907,-292.5 362,-292.5"/>
<text text-anchor="start" x="369" y="-303.9" font-family="Arial" font-size="14.00" fill="#000000">last_update </text>
<text text-anchor="start" x="445.2566" y="-303.9" font-family="Arial" font-size="14.00" fill="#666666">[timestamp]</text>
<polygon fill="none" stroke="#000000" stroke-width="3" points="360,-291.5 360,-719.5 908,-719.5 908,-291.5 360,-291.5"/>
</g>
<!-- language -->
<g id="node5" class="node">
<title>language</title>
<polygon fill="#efefef" stroke="transparent" points="535,-132.5 535,-167.5 734,-167.5 734,-132.5 535,-132.5"/>
<polygon fill="none" stroke="#000000" points="535,-132.5 535,-167.5 734,-167.5 734,-132.5 535,-132.5"/>
<text text-anchor="start" x="548.8543" y="-145.3" font-family="Arial Bold" font-size="18.00" fill="#000000">language</text>
<text text-anchor="start" x="622.8919" y="-145.3" font-family="Arial" font-size="14.00" fill="#000000"> </text>
<text text-anchor="start" x="626.7825" y="-145.3" font-family="Arial" font-size="14.00" fill="#666666">[BASE TABLE]</text>
<polygon fill="none" stroke="#000000" points="535,-102.5 535,-132.5 734,-132.5 734,-102.5 535,-102.5"/>
<text text-anchor="start" x="541.9096" y="-113.9" font-family="Arial" font-size="14.00" fill="#000000">language_id </text>
<text text-anchor="start" x="622.0568" y="-113.9" font-family="Arial" font-size="14.00" fill="#666666">[tinyint unsigned]</text>
<polygon fill="none" stroke="#000000" points="535,-72.5 535,-102.5 734,-102.5 734,-72.5 535,-72.5"/>
<text text-anchor="start" x="542" y="-83.9" font-family="Arial" font-size="14.00" fill="#000000">name </text>
<text text-anchor="start" x="580.899" y="-83.9" font-family="Arial" font-size="14.00" fill="#666666">[char(20)]</text>
<polygon fill="none" stroke="#000000" points="535,-42.5 535,-72.5 734,-72.5 734,-42.5 535,-42.5"/>
<text text-anchor="start" x="542" y="-53.9" font-family="Arial" font-size="14.00" fill="#000000">last_update </text>
<text text-anchor="start" x="618.2566" y="-53.9" font-family="Arial" font-size="14.00" fill="#666666">[timestamp]</text>
</g>
<!-- film&#45;&gt;language -->
<g id="edge4" class="edge">
<title>film:language_id&#45;&gt;language:language_id</title>
<path fill="none" stroke="#000000" d="M351.7689,-547.1275C161.9243,-532.9283 332.522,-117.5 535,-117.5"/>
<polygon fill="#000000" stroke="#000000" points="352.0066,-547.1361 361.8362,-551.997 357.0033,-547.318 362,-547.5 362,-547.5 362,-547.5 357.0033,-547.318 362.1638,-543.003 352.0066,-547.1361 352.0066,-547.1361"/>
<text text-anchor="start" x="44.4145" y="-557.5" font-family="Arial" font-size="10.00" fill="#000000">FOREIGN KEY (language_id) REFERENCES language (language_id)</text>
</g>
<!-- film&#45;&gt;language -->
<g id="edge5" class="edge">
<title>film:original_language_id&#45;&gt;language:language_id</title>
<path fill="none" stroke="#000000" d="M351.859,-517.113C174.5651,-503.1774 344.8067,-117.5 535,-117.5"/>
<polygon fill="#000000" stroke="#000000" points="352.0073,-517.1186 361.8284,-521.9967 357.0036,-517.3093 362,-517.5 362,-517.5 362,-517.5 357.0036,-517.3093 362.1716,-513.0033 352.0073,-517.1186 352.0073,-517.1186"/>
<text text-anchor="start" x="6.524" y="-527.5" font-family="Arial" font-size="10.00" fill="#000000">FOREIGN KEY (original_language_id) REFERENCES language (language_id)</text>
</g>
<!-- film_actor -->
<g id="node2" class="node">
<title>film_actor</title>
<polygon fill="#efefef" stroke="transparent" points="233,-947.5 233,-982.5 422,-982.5 422,-947.5 233,-947.5"/>
<polygon fill="none" stroke="#000000" points="233,-947.5 233,-982.5 422,-982.5 422,-947.5 233,-947.5"/>
<text text-anchor="start" x="239.8752" y="-960.3" font-family="Arial Bold" font-size="18.00" fill="#000000">film_actor</text>
<text text-anchor="start" x="317.871" y="-960.3" font-family="Arial" font-size="14.00" fill="#000000"> </text>
<text text-anchor="start" x="321.7616" y="-960.3" font-family="Arial" font-size="14.00" fill="#666666">[BASE TABLE]</text>
<polygon fill="none" stroke="#000000" points="233,-917.5 233,-947.5 422,-947.5 422,-917.5 233,-917.5"/>
<text text-anchor="start" x="240" y="-928.9" font-family="Arial" font-size="14.00" fill="#000000">actor_id </text>
<text text-anchor="start" x="293.6788" y="-928.9" font-family="Arial" font-size="14.00" fill="#666666">[smallint unsigned]</text>
<polygon fill="none" stroke="#000000" points="233,-887.5 233,-917.5 422,-917.5 422,-887.5 233,-887.5"/>
<text text-anchor="start" x="240" y="-898.9" font-family="Arial" font-size="14.00" fill="#000000">film_id </text>
<text text-anchor="start" x="284.3268" y="-898.9" font-family="Arial" font-size="14.00" fill="#666666">[smallint unsigned]</text>
<polygon fill="none" stroke="#000000" points="233,-857.5 233,-887.5 422,-887.5 422,-857.5 233,-857.5"/>
<text text-anchor="start" x="240" y="-868.9" font-family="Arial" font-size="14.00" fill="#000000">last_update </text>
<text text-anchor="start" x="316.2566" y="-868.9" font-family="Arial" font-size="14.00" fill="#666666">[timestamp]</text>
</g>
<!-- film_actor&#45;&gt;film -->
<g id="edge1" class="edge">
<title>film_actor:film_id&#45;&gt;film:film_id</title>
<path fill="none" stroke="#000000" d="M432.0182,-900.957C456.3696,-892.0707 436.6652,-846.7125 422,-815 407.31,-783.2338 376.69,-795.7662 362,-764 343.9981,-725.072 319.1111,-667.5 362,-667.5"/>
<polygon fill="#000000" stroke="#000000" points="431.8835,-900.9777 421.3149,-898.0524 426.9417,-901.7388 422,-902.5 422,-902.5 422,-902.5 426.9417,-901.7388 422.6851,-906.9476 431.8835,-900.9777 431.8835,-900.9777"/>
<text text-anchor="start" x="428.7935" y="-912.5" font-family="Arial" font-size="10.00" fill="#000000">FOREIGN KEY (film_id) REFERENCES film (film_id)</text>
</g>
<!-- film_category -->
<g id="node3" class="node">
<title>film_category</title>
<polygon fill="#efefef" stroke="transparent" points="526,-947.5 526,-982.5 744,-982.5 744,-947.5 526,-947.5"/>
<polygon fill="none" stroke="#000000" points="526,-947.5 526,-982.5 744,-982.5 744,-947.5 526,-947.5"/>
<text text-anchor="start" x="532.869" y="-960.3" font-family="Arial Bold" font-size="18.00" fill="#000000">film_category</text>
<text text-anchor="start" x="639.8772" y="-960.3" font-family="Arial" font-size="14.00" fill="#000000"> </text>
<text text-anchor="start" x="643.7678" y="-960.3" font-family="Arial" font-size="14.00" fill="#666666">[BASE TABLE]</text>
<polygon fill="none" stroke="#000000" points="526,-917.5 526,-947.5 744,-947.5 744,-917.5 526,-917.5"/>
<text text-anchor="start" x="533" y="-928.9" font-family="Arial" font-size="14.00" fill="#000000">film_id </text>
<text text-anchor="start" x="577.3268" y="-928.9" font-family="Arial" font-size="14.00" fill="#666666">[smallint unsigned]</text>
<polygon fill="none" stroke="#000000" points="526,-887.5 526,-917.5 744,-917.5 744,-887.5 526,-887.5"/>
<text text-anchor="start" x="533" y="-898.9" font-family="Arial" font-size="14.00" fill="#000000">category_id </text>
<text text-anchor="start" x="609.244" y="-898.9" font-family="Arial" font-size="14.00" fill="#666666">[tinyint unsigned]</text>
<polygon fill="none" stroke="#000000" points="526,-857.5 526,-887.5 744,-887.5 744,-857.5 526,-857.5"/>
<text text-anchor="start" x="533" y="-868.9" font-family="Arial" font-size="14.00" fill="#000000">last_update </text>
<text text-anchor="start" x="609.2566" y="-868.9" font-family="Arial" font-size="14.00" fill="#666666">[timestamp]</text>
</g>
<!-- film_category&#45;&gt;film -->
<g id="edge2" class="edge">
<title>film_category:film_id&#45;&gt;film:film_id</title>
<path fill="none" stroke="#000000" d="M516.0048,-931.3809C476.3673,-921.6954 494.0281,-851.5368 526,-815 582.2529,-750.7155 850.7471,-828.2845 907,-764 935.2436,-731.7238 949.8889,-667.5 907,-667.5"/>
<polygon fill="#000000" stroke="#000000" points="516.0621,-931.3872 525.4992,-936.9721 521.031,-931.9436 526,-932.5 526,-932.5 526,-932.5 521.031,-931.9436 526.5008,-928.0279 516.0621,-931.3872 516.0621,-931.3872"/>
<text text-anchor="start" x="532.7935" y="-942.5" font-family="Arial" font-size="10.00" fill="#000000">FOREIGN KEY (film_id) REFERENCES film (film_id)</text>
</g>
<!-- inventory -->
<g id="node4" class="node">
<title>inventory</title>
<polygon fill="#efefef" stroke="transparent" points="848,-962.5 848,-997.5 1074,-997.5 1074,-962.5 848,-962.5"/>
<polygon fill="none" stroke="#000000" points="848,-962.5 848,-997.5 1074,-997.5 1074,-962.5 848,-962.5"/>
<text text-anchor="start" x="875.8664" y="-975.3" font-family="Arial Bold" font-size="18.00" fill="#000000">inventory</text>
<text text-anchor="start" x="948.8798" y="-975.3" font-family="Arial" font-size="14.00" fill="#000000"> </text>
<text text-anchor="start" x="952.7704" y="-975.3" font-family="Arial" font-size="14.00" fill="#666666">[BASE TABLE]</text>
<polygon fill="none" stroke="#000000" points="848,-932.5 848,-962.5 1074,-962.5 1074,-932.5 848,-932.5"/>
<text text-anchor="start" x="854.81" y="-943.9" font-family="Arial" font-size="14.00" fill="#000000">inventory_id </text>
<text text-anchor="start" x="934.1606" y="-943.9" font-family="Arial" font-size="14.00" fill="#666666">[mediumint unsigned]</text>
<polygon fill="none" stroke="#000000" points="848,-902.5 848,-932.5 1074,-932.5 1074,-902.5 848,-902.5"/>
<text text-anchor="start" x="855" y="-913.9" font-family="Arial" font-size="14.00" fill="#000000">film_id </text>
<text text-anchor="start" x="899.3268" y="-913.9" font-family="Arial" font-size="14.00" fill="#666666">[smallint unsigned]</text>
<polygon fill="none" stroke="#000000" points="848,-872.5 848,-902.5 1074,-902.5 1074,-872.5 848,-872.5"/>
<text text-anchor="start" x="855" y="-883.9" font-family="Arial" font-size="14.00" fill="#000000">store_id </text>
<text text-anchor="start" x="908.6788" y="-883.9" font-family="Arial" font-size="14.00" fill="#666666">[tinyint unsigned]</text>
<polygon fill="none" stroke="#000000" points="848,-842.5 848,-872.5 1074,-872.5 1074,-842.5 848,-842.5"/>
<text text-anchor="start" x="855" y="-853.9" font-family="Arial" font-size="14.00" fill="#000000">last_update </text>
<text text-anchor="start" x="931.2566" y="-853.9" font-family="Arial" font-size="14.00" fill="#666666">[timestamp]</text>
</g>
<!-- inventory&#45;&gt;film -->
<g id="edge3" class="edge">
<title>inventory:film_id&#45;&gt;film:film_id</title>
<path fill="none" stroke="#000000" d="M837.6433,-916.3511C799.7293,-906.9639 824.3366,-842.1594 848,-800 863.0352,-773.2129 891.9648,-790.7871 907,-764 927.9922,-726.5997 949.8889,-667.5 907,-667.5"/>
<polygon fill="#000000" stroke="#000000" points="838.061,-916.3973 847.5038,-921.9726 843.0305,-916.9487 848,-917.5 848,-917.5 848,-917.5 843.0305,-916.9487 848.4962,-913.0274 838.061,-916.3973 838.061,-916.3973"/>
<text text-anchor="start" x="854.7935" y="-927.5" font-family="Arial" font-size="10.00" fill="#000000">FOREIGN KEY (film_id) REFERENCES film (film_id)</text>
</g>
</g>
</svg>
