<?xml version="1.0" encoding="UTF-8" standalone="no"?>
<!DOCTYPE svg PUBLIC "-//W3C//DTD SVG 1.1//EN"
 "http://www.w3.org/Graphics/SVG/1.1/DTD/svg11.dtd">
<!-- Generated by graphviz version 2.40.1 (20161225.0304)
 -->
<!-- Title: film_category Pages: 1 -->
<svg width="987pt" height="772pt"
 viewBox="0.00 0.00 986.50 772.00" xmlns="http://www.w3.org/2000/svg" xmlns:xlink="http://www.w3.org/1999/xlink">
<g id="graph0" class="graph" transform="scale(1 1) rotate(0) translate(4 768)">
<title>film_category</title>
<polygon fill="#ffffff" stroke="transparent" points="-4,4 -4,-768 982.5,-768 982.5,4 -4,4"/>
<!-- film_category -->
<g id="node1" class="node">
<title>film_category</title>
<polygon fill="#efefef" stroke="transparent" points="444.5,-682.5 444.5,-717.5 662.5,-717.5 662.5,-682.5 444.5,-682.5"/>
<polygon fill="none" stroke="#000000" points="444.5,-682.5 444.5,-717.5 662.5,-717.5 662.5,-682.5 444.5,-682.5"/>
<text text-anchor="start" x="451.369" y="-695.3" font-family="Arial Bold" font-size="18.00" fill="#000000">film_category</text>
<text text-anchor="start" x="558.3772" y="-695.3" font-family="Arial" font-size="14.00" fill="#000000"> </text>
<text text-anchor="start" x="562.2678" y="-695.3" font-family="Arial" font-size="14.00" fill="#666666">[BASE TABLE]</text>
<polygon fill="none" stroke="#000000" points="444.5,-652.5 444.5,-682.5 662.5,-682.5 662.5,-652.5 444.5,-652.5"/>
<text text-anchor="start" x="451.5" y="-663.9" font-family="Arial" font-size="14.00" fill="#000000">film_id </text>
<text text-anchor="start" x="495.8268" y="-663.9" font-family="Arial" font-size="14.00" fill="#666666">[smallint unsigned]</text>
<polygon fill="none" stroke="#000000" points="444.5,-622.5 444.5,-652.5 662.5,-652.5 662.5,-622.5 444.5,-622.5"/>
<text text-anchor="start" x="451.5" y="-633.9" font-family="Arial" font-size="14.00" fill="#000000">category_id </text>
<text text-anchor="start" x="527.744" y="-633.9" font-family="Arial" font-size="14.00" fill="#666666">[tinyint unsigned]</text>
<polygon fill="none" stroke="#000000" points="444.5,-592.5 444.5,-622.5 662.5,-622.5 662.5,-592.5 444.5,-592.5"/>
<text text-anchor="start" x="451.5" y="-603.9" font-family="Arial" font-size="14.00" fill="#000000">last_update </text>
<text text-anchor="start" x="527.7566" y="-603.9" font-family="Arial" font-size="14.00" fill="#666666">[timestamp]</text>
<polygon fill="none" stroke="#000000" stroke-width="3" points="443,-591.5 443,-719.5 664,-719.5 664,-591.5 443,-591.5"/>
</g>
<!-- film -->
<g id="node2" class="node">
<title>film</title>
<polygon fill="#efefef" stroke="transparent" points="43.5,-432.5 43.5,-467.5 588.5,-467.5 588.5,-432.5 43.5,-432.5"/>
<polygon fill="none" stroke="#000000" points="43.5,-432.5 43.5,-467.5 588.5,-467.5 588.5,-432.5 43.5,-432.5"/>
<text text-anchor="start" x="253.3817" y="-445.3" font-family="Arial Bold" font-size="18.00" fill="#000000">film</text>
<text text-anchor="start" x="281.3645" y="-445.3" font-family="Arial" font-size="14.00" fill="#000000"> </text>
<text text-anchor="start" x="285.2551" y="-445.3" font-family="Arial" font-size="14.00" fill="#666666">[BASE TABLE]</text>
<polygon fill="none" stroke="#000000" points="43.5,-402.5 43.5,-432.5 588.5,-432.5 588.5,-402.5 43.5,-402.5"/>
<text text-anchor="start" x="50.5" y="-413.9" font-family="Arial" font-size="14.00" fill="#000000">film_id </text>
<text text-anchor="start" x="94.8268" y="-413.9" font-family="Arial" font-size="14.00" fill="#666666">[smallint unsigned]</text>
<polygon fill="none" stroke="#000000" points="43.5,-372.5 43.5,-402.5 588.5,-402.5 588.5,-372.5 43.5,-372.5"/>
<text text-anchor="start" x="50.5" y="-383.9" font-family="Arial" font-size="14.00" fill="#000000">title </text>
<text text-anchor="start" x="76.1676" y="-383.9" font-family="Arial" font-size="14.00" fill="#666666">[varchar(128)]</text>
<polygon fill="none" stroke="#000000" points="43.5,-342.5 43.5,-372.5 588.5,-372.5 588.5,-342.5 43.5,-342.5"/>
<text text-anchor="start" x="50.5" y="-353.9" font-family="Arial" font-size="14.00" fill="#000000">description </text>
<text text-anchor="start" x="122.068" y="-353.9" font-family="Arial" font-size="14.00" fill="#666666">[text]</text>
<polygon fill="none" stroke="#000000" points="43.5,-312.5 43.5,-342.5 588.5,-342.5 588.5,-312.5 43.5,-312.5"/>
<text text-anchor="start" x="50.5" y="-323.9" font-family="Arial" font-size="14.00" fill="#000000">release_year </text>
<text text-anchor="start" x="135.2966" y="-323.9" font-family="Arial" font-size="14.00" fill="#666666">[year]</text>
<polygon fill="none" stroke="#000000" points="43.5,-282.5 43.5,-312.5 588.5,-312.5 588.5,-282.5 43.5,-282.5"/>
<text text-anchor="start" x="50.5" y="-293.9" font-family="Arial" font-size="14.00" fill="#000000">language_id </text>
<text text-anchor="start" x="130.6472" y="-293.9" font-family="Arial" font-size="14.00" fill="#666666">[tinyint unsigned]</text>
<polygon fill="none" stroke="#000000" points="43.5,-252.5 43.5,-282.5 588.5,-282.5 588.5,-252.5 43.5,-252.5"/>
<text text-anchor="start" x="50.5" y="-263.9" font-family="Arial" font-size="14.00" fill="#000000">original_language_id </text>
<text text-anchor="start" x="183.5406" y="-263.9" font-family="Arial" font-size="14.00" fill="#666666">[tinyint unsigned]</text>
<polygon fill="none" stroke="#000000" points="43.5,-222.5 43.5,-252.5 588.5,-252.5 588.5,-222.5 43.5,-222.5"/>
<text text-anchor="start" x="50.5" y="-233.9" font-family="Arial" font-size="14.00" fill="#000000">rental_duration </text>
<text text-anchor="start" x="147.7496" y="-233.9" font-family="Arial" font-size="14.00" fill="#666666">[tinyint unsigned]</text>
<polygon fill="none" stroke="#000000" points="43.5,-192.5 43.5,-222.5 588.5,-222.5 588.5,-192.5 43.5,-192.5"/>
<text text-anchor="start" x="50.5" y="-203.9" font-family="Arial" font-size="14.00" fill="#000000">rental_rate </text>
<text text-anchor="start" x="121.2952" y="-203.9" font-family="Arial" font-size="14.00" fill="#666666">[decimal(4,2)]</text>
<polygon fill="none" stroke="#000000" points="43.5,-162.5 43.5,-192.5 588.5,-192.5 588.5,-162.5 43.5,-162.5"/>
<text text-anchor="start" x="50.5" y="-173.9" font-family="Arial" font-size="14.00" fill="#000000">length </text>
<text text-anchor="start" x="92.5182" y="-173.9" font-family="Arial" font-size="14.00" fill="#666666">[smallint unsigned]</text>
<polygon fill="none" stroke="#000000" points="43.5,-132.5 43.5,-162.5 588.5,-162.5 588.5,-132.5 43.5,-132.5"/>
<text text-anchor="start" x="50.5" y="-143.9" font-family="Arial" font-size="14.00" fill="#000000">replacement_cost </text>
<text text-anchor="start" x="164.8604" y="-143.9" font-family="Arial" font-size="14.00" fill="#666666">[decimal(5,2)]</text>
<polygon fill="none" stroke="#000000" points="43.5,-102.5 43.5,-132.5 588.5,-132.5 588.5,-102.5 43.5,-102.5"/>
<text text-anchor="start" x="50.5" y="-113.9" font-family="Arial" font-size="14.00" fill="#000000">rating </text>
<text text-anchor="start" x="89.3962" y="-113.9" font-family="Arial" font-size="14.00" fill="#666666">[enum(&#39;G&#39;,&#39;PG&#39;,&#39;PG&#45;13&#39;,&#39;R&#39;,&#39;NC&#45;17&#39;)]</text>
<polygon fill="none" stroke="#000000" points="43.5,-72.5 43.5,-102.5 588.5,-102.5 588.5,-72.5 43.5,-72.5"/>
<text text-anchor="start" x="50.0252" y="-83.9" font-family="Arial" font-size="14.00" fill="#000000">special_features </text>
<text text-anchor="start" x="155.8316" y="-83.9" font-family="Arial" font-size="14.00" fill="#666666">[set(&#39;Trailers&#39;,&#39;Commentaries&#39;,&#39;Deleted Scenes&#39;,&#39;Behind the Scenes&#39;)]</text>
<polygon fill="none" stroke="#000000" points="43.5,-42.5 43.5,-72.5 588.5,-72.5 588.5,-42.5 43.5,-42.5"/>
<text text-anchor="start" x="50.5" y="-53.9" font-family="Arial" font-size="14.00" fill="#000000">last_update </text>
<text text-anchor="start" x="126.7566" y="-53.9" font-family="Arial" font-size="14.00" fill="#666666">[timestamp]</text>
</g>
<!-- film_category&#45;&gt;film -->
<g id="edge1" class="edge">
<title>film_category:film_id&#45;&gt;film:film_id</title>
<path fill="none" stroke="#000000" d="M434.5367,-666.439C393.8182,-656.9652 413.7943,-586.3271 444.5,-547 485.0986,-495.0023 547.9014,-562.9977 588.5,-511 614.0738,-478.2457 630.0556,-417.5 588.5,-417.5"/>
<polygon fill="#000000" stroke="#000000" points="434.5562,-666.441 444.0235,-671.9747 439.5281,-666.9705 444.5,-667.5 444.5,-667.5 444.5,-667.5 439.5281,-666.9705 444.9765,-663.0253 434.5562,-666.441 434.5562,-666.441"/>
<text text-anchor="start" x="203.2935" y="-677.5" font-family="Arial" font-size="10.00" fill="#000000">FOREIGN KEY (film_id) REFERENCES film (film_id)</text>
</g>
<!-- category -->
<g id="node3" class="node">
<title>category</title>
<polygon fill="#efefef" stroke="transparent" points="692.5,-282.5 692.5,-317.5 887.5,-317.5 887.5,-282.5 692.5,-282.5"/>
<polygon fill="none" stroke="#000000" points="692.5,-282.5 692.5,-317.5 887.5,-317.5 887.5,-282.5 692.5,-282.5"/>
<text text-anchor="start" x="706.8635" y="-295.3" font-family="Arial Bold" font-size="18.00" fill="#000000">category</text>
<text text-anchor="start" x="775.8827" y="-295.3" font-family="Arial" font-size="14.00" fill="#000000"> </text>
<text text-anchor="start" x="779.7733" y="-295.3" font-family="Arial" font-size="14.00" fill="#666666">[BASE TABLE]</text>
<polygon fill="none" stroke="#000000" points="692.5,-252.5 692.5,-282.5 887.5,-282.5 887.5,-252.5 692.5,-252.5"/>
<text text-anchor="start" x="699.3612" y="-263.9" font-family="Arial" font-size="14.00" fill="#000000">category_id </text>
<text text-anchor="start" x="775.6052" y="-263.9" font-family="Arial" font-size="14.00" fill="#666666">[tinyint unsigned]</text>
<polygon fill="none" stroke="#000000" points="692.5,-222.5 692.5,-252.5 887.5,-252.5 887.5,-222.5 692.5,-222.5"/>
<text text-anchor="start" x="699.5" y="-233.9" font-family="Arial" font-size="14.00" fill="#000000">name </text>
<text text-anchor="start" x="738.399" y="-233.9" font-family="Arial" font-size="14.00" fill="#666666">[varchar(25)]</text>
<polygon fill="none" stroke="#000000" points="692.5,-192.5 692.5,-222.5 887.5,-222.5 887.5,-192.5 692.5,-192.5"/>
<text text-anchor="start" x="699.5" y="-203.9" font-family="Arial" font-size="14.00" fill="#000000">last_update </text>
<text text-anchor="start" x="775.7566" y="-203.9" font-family="Arial" font-size="14.00" fill="#666666">[timestamp]</text>
</g>
<!-- film_category&#45;&gt;category -->
<g id="edge2" class="edge">
<title>film_category:category_id&#45;&gt;category:category_id</title>
<path fill="none" stroke="#000000" d="M672.4991,-636.995C814.8095,-621.7723 531.0605,-267.5 692.5,-267.5"/>
<polygon fill="#000000" stroke="#000000" points="672.4873,-636.9955 662.273,-633.0057 667.4936,-637.2477 662.5,-637.5 662.5,-637.5 662.5,-637.5 667.4936,-637.2477 662.727,-641.9943 672.4873,-636.9955 672.4873,-636.9955"/>
<text text-anchor="start" x="669.0965" y="-647.5" font-family="Arial" font-size="10.00" fill="#000000">FOREIGN KEY (category_id) REFERENCES category (category_id)</text>
</g>
</g>
</svg>
