<?xml version="1.0" encoding="UTF-8" standalone="no"?>
<!DOCTYPE svg PUBLIC "-//W3C//DTD SVG 1.1//EN"
 "http://www.w3.org/Graphics/SVG/1.1/DTD/svg11.dtd">
<!-- Generated by graphviz version 2.40.1 (20161225.0304)
 -->
<!-- Title: film_actor Pages: 1 -->
<svg width="926pt" height="772pt"
 viewBox="0.00 0.00 926.00 772.00" xmlns="http://www.w3.org/2000/svg" xmlns:xlink="http://www.w3.org/1999/xlink">
<g id="graph0" class="graph" transform="scale(1 1) rotate(0) translate(4 768)">
<title>film_actor</title>
<polygon fill="#ffffff" stroke="transparent" points="-4,4 -4,-768 922,-768 922,4 -4,4"/>
<!-- film_actor -->
<g id="node1" class="node">
<title>film_actor</title>
<polygon fill="#efefef" stroke="transparent" points="274.5,-682.5 274.5,-717.5 463.5,-717.5 463.5,-682.5 274.5,-682.5"/>
<polygon fill="none" stroke="#000000" points="274.5,-682.5 274.5,-717.5 463.5,-717.5 463.5,-682.5 274.5,-682.5"/>
<text text-anchor="start" x="281.3752" y="-695.3" font-family="Arial Bold" font-size="18.00" fill="#000000">film_actor</text>
<text text-anchor="start" x="359.371" y="-695.3" font-family="Arial" font-size="14.00" fill="#000000"> </text>
<text text-anchor="start" x="363.2616" y="-695.3" font-family="Arial" font-size="14.00" fill="#666666">[BASE TABLE]</text>
<polygon fill="none" stroke="#000000" points="274.5,-652.5 274.5,-682.5 463.5,-682.5 463.5,-652.5 274.5,-652.5"/>
<text text-anchor="start" x="281.5" y="-663.9" font-family="Arial" font-size="14.00" fill="#000000">actor_id </text>
<text text-anchor="start" x="335.1788" y="-663.9" font-family="Arial" font-size="14.00" fill="#666666">[smallint unsigned]</text>
<polygon fill="none" stroke="#000000" points="274.5,-622.5 274.5,-652.5 463.5,-652.5 463.5,-622.5 274.5,-622.5"/>
<text text-anchor="start" x="281.5" y="-633.9" font-family="Arial" font-size="14.00" fill="#000000">film_id </text>
<text text-anchor="start" x="325.8268" y="-633.9" font-family="Arial" font-size="14.00" fill="#666666">[smallint unsigned]</text>
<polygon fill="none" stroke="#000000" points="274.5,-592.5 274.5,-622.5 463.5,-622.5 463.5,-592.5 274.5,-592.5"/>
<text text-anchor="start" x="281.5" y="-603.9" font-family="Arial" font-size="14.00" fill="#000000">last_update </text>
<text text-anchor="start" x="357.7566" y="-603.9" font-family="Arial" font-size="14.00" fill="#666666">[timestamp]</text>
<polygon fill="none" stroke="#000000" stroke-width="3" points="272.5,-591.5 272.5,-719.5 464.5,-719.5 464.5,-591.5 272.5,-591.5"/>
</g>
<!-- actor -->
<g id="node2" class="node">
<title>actor</title>
<polygon fill="#efefef" stroke="transparent" points="43.5,-297.5 43.5,-332.5 226.5,-332.5 226.5,-297.5 43.5,-297.5"/>
<polygon fill="none" stroke="#000000" points="43.5,-297.5 43.5,-332.5 226.5,-332.5 226.5,-297.5 43.5,-297.5"/>
<text text-anchor="start" x="66.3697" y="-310.3" font-family="Arial Bold" font-size="18.00" fill="#000000">actor</text>
<text text-anchor="start" x="106.3765" y="-310.3" font-family="Arial" font-size="14.00" fill="#000000"> </text>
<text text-anchor="start" x="110.2671" y="-310.3" font-family="Arial" font-size="14.00" fill="#666666">[BASE TABLE]</text>
<polygon fill="none" stroke="#000000" points="43.5,-267.5 43.5,-297.5 226.5,-297.5 226.5,-267.5 43.5,-267.5"/>
<text text-anchor="start" x="50.2055" y="-278.9" font-family="Arial" font-size="14.00" fill="#000000">actor_id </text>
<text text-anchor="start" x="103.8843" y="-278.9" font-family="Arial" font-size="14.00" fill="#666666">[smallint unsigned]</text>
<polygon fill="none" stroke="#000000" points="43.5,-237.5 43.5,-267.5 226.5,-267.5 226.5,-237.5 43.5,-237.5"/>
<text text-anchor="start" x="50.5" y="-248.9" font-family="Arial" font-size="14.00" fill="#000000">first_name </text>
<text text-anchor="start" x="119.73" y="-248.9" font-family="Arial" font-size="14.00" fill="#666666">[varchar(45)]</text>
<polygon fill="none" stroke="#000000" points="43.5,-207.5 43.5,-237.5 226.5,-237.5 226.5,-207.5 43.5,-207.5"/>
<text text-anchor="start" x="50.5" y="-218.9" font-family="Arial" font-size="14.00" fill="#000000">last_name </text>
<text text-anchor="start" x="118.9614" y="-218.9" font-family="Arial" font-size="14.00" fill="#666666">[varchar(45)]</text>
<polygon fill="none" stroke="#000000" points="43.5,-177.5 43.5,-207.5 226.5,-207.5 226.5,-177.5 43.5,-177.5"/>
<text text-anchor="start" x="50.5" y="-188.9" font-family="Arial" font-size="14.00" fill="#000000">last_update </text>
<text text-anchor="start" x="126.7566" y="-188.9" font-family="Arial" font-size="14.00" fill="#666666">[timestamp]</text>
</g>
<!-- film_actor&#45;&gt;actor -->
<g id="edge1" class="edge">
<title>film_actor:actor_id&#45;&gt;actor:actor_id</title>
<path fill="none" stroke="#000000" d="M264.5193,-665.4286C198.5868,-635.1249 309.0133,-282.5 226.5,-282.5"/>
<polygon fill="#000000" stroke="#000000" points="264.7086,-665.4678 273.5855,-671.9061 269.6043,-666.4839 274.5,-667.5 274.5,-667.5 274.5,-667.5 269.6043,-666.4839 275.4145,-663.0939 264.7086,-665.4678 264.7086,-665.4678"/>
<text text-anchor="start" x="13.2735" y="-677.5" font-family="Arial" font-size="10.00" fill="#000000">FOREIGN KEY (actor_id) REFERENCES actor (actor_id)</text>
</g>
<!-- film -->
<g id="node3" class="node">
<title>film</title>
<polygon fill="#efefef" stroke="transparent" points="330.5,-432.5 330.5,-467.5 875.5,-467.5 875.5,-432.5 330.5,-432.5"/>
<polygon fill="none" stroke="#000000" points="330.5,-432.5 330.5,-467.5 875.5,-467.5 875.5,-432.5 330.5,-432.5"/>
<text text-anchor="start" x="540.3817" y="-445.3" font-family="Arial Bold" font-size="18.00" fill="#000000">film</text>
<text text-anchor="start" x="568.3645" y="-445.3" font-family="Arial" font-size="14.00" fill="#000000"> </text>
<text text-anchor="start" x="572.2551" y="-445.3" font-family="Arial" font-size="14.00" fill="#666666">[BASE TABLE]</text>
<polygon fill="none" stroke="#000000" points="330.5,-402.5 330.5,-432.5 875.5,-432.5 875.5,-402.5 330.5,-402.5"/>
<text text-anchor="start" x="337.5" y="-413.9" font-family="Arial" font-size="14.00" fill="#000000">film_id </text>
<text text-anchor="start" x="381.8268" y="-413.9" font-family="Arial" font-size="14.00" fill="#666666">[smallint unsigned]</text>
<polygon fill="none" stroke="#000000" points="330.5,-372.5 330.5,-402.5 875.5,-402.5 875.5,-372.5 330.5,-372.5"/>
<text text-anchor="start" x="337.5" y="-383.9" font-family="Arial" font-size="14.00" fill="#000000">title </text>
<text text-anchor="start" x="363.1676" y="-383.9" font-family="Arial" font-size="14.00" fill="#666666">[varchar(128)]</text>
<polygon fill="none" stroke="#000000" points="330.5,-342.5 330.5,-372.5 875.5,-372.5 875.5,-342.5 330.5,-342.5"/>
<text text-anchor="start" x="337.5" y="-353.9" font-family="Arial" font-size="14.00" fill="#000000">description </text>
<text text-anchor="start" x="409.068" y="-353.9" font-family="Arial" font-size="14.00" fill="#666666">[text]</text>
<polygon fill="none" stroke="#000000" points="330.5,-312.5 330.5,-342.5 875.5,-342.5 875.5,-312.5 330.5,-312.5"/>
<text text-anchor="start" x="337.5" y="-323.9" font-family="Arial" font-size="14.00" fill="#000000">release_year </text>
<text text-anchor="start" x="422.2966" y="-323.9" font-family="Arial" font-size="14.00" fill="#666666">[year]</text>
<polygon fill="none" stroke="#000000" points="330.5,-282.5 330.5,-312.5 875.5,-312.5 875.5,-282.5 330.5,-282.5"/>
<text text-anchor="start" x="337.5" y="-293.9" font-family="Arial" font-size="14.00" fill="#000000">language_id </text>
<text text-anchor="start" x="417.6472" y="-293.9" font-family="Arial" font-size="14.00" fill="#666666">[tinyint unsigned]</text>
<polygon fill="none" stroke="#000000" points="330.5,-252.5 330.5,-282.5 875.5,-282.5 875.5,-252.5 330.5,-252.5"/>
<text text-anchor="start" x="337.5" y="-263.9" font-family="Arial" font-size="14.00" fill="#000000">original_language_id </text>
<text text-anchor="start" x="470.5406" y="-263.9" font-family="Arial" font-size="14.00" fill="#666666">[tinyint unsigned]</text>
<polygon fill="none" stroke="#000000" points="330.5,-222.5 330.5,-252.5 875.5,-252.5 875.5,-222.5 330.5,-222.5"/>
<text text-anchor="start" x="337.5" y="-233.9" font-family="Arial" font-size="14.00" fill="#000000">rental_duration </text>
<text text-anchor="start" x="434.7496" y="-233.9" font-family="Arial" font-size="14.00" fill="#666666">[tinyint unsigned]</text>
<polygon fill="none" stroke="#000000" points="330.5,-192.5 330.5,-222.5 875.5,-222.5 875.5,-192.5 330.5,-192.5"/>
<text text-anchor="start" x="337.5" y="-203.9" font-family="Arial" font-size="14.00" fill="#000000">rental_rate </text>
<text text-anchor="start" x="408.2952" y="-203.9" font-family="Arial" font-size="14.00" fill="#666666">[decimal(4,2)]</text>
<polygon fill="none" stroke="#000000" points="330.5,-162.5 330.5,-192.5 875.5,-192.5 875.5,-162.5 330.5,-162.5"/>
<text text-anchor="start" x="337.5" y="-173.9" font-family="Arial" font-size="14.00" fill="#000000">length </text>
<text text-anchor="start" x="379.5182" y="-173.9" font-family="Arial" font-size="14.00" fill="#666666">[smallint unsigned]</text>
<polygon fill="none" stroke="#000000" points="330.5,-132.5 330.5,-162.5 875.5,-162.5 875.5,-132.5 330.5,-132.5"/>
<text text-anchor="start" x="337.5" y="-143.9" font-family="Arial" font-size="14.00" fill="#000000">replacement_cost </text>
<text text-anchor="start" x="451.8604" y="-143.9" font-family="Arial" font-size="14.00" fill="#666666">[decimal(5,2)]</text>
<polygon fill="none" stroke="#000000" points="330.5,-102.5 330.5,-132.5 875.5,-132.5 875.5,-102.5 330.5,-102.5"/>
<text text-anchor="start" x="337.5" y="-113.9" font-family="Arial" font-size="14.00" fill="#000000">rating </text>
<text text-anchor="start" x="376.3962" y="-113.9" font-family="Arial" font-size="14.00" fill="#666666">[enum(&#39;G&#39;,&#39;PG&#39;,&#39;PG&#45;13&#39;,&#39;R&#39;,&#39;NC&#45;17&#39;)]</text>
<polygon fill="none" stroke="#000000" points="330.5,-72.5 330.5,-102.5 875.5,-102.5 875.5,-72.5 330.5,-72.5"/>
<text text-anchor="start" x="337.0252" y="-83.9" font-family="Arial" font-size="14.00" fill="#000000">special_features </text>
<text text-anchor="start" x="442.8316" y="-83.9" font-family="Arial" font-size="14.00" fill="#666666">[set(&#39;Trailers&#39;,&#39;Commentaries&#39;,&#39;Deleted Scenes&#39;,&#39;Behind the Scenes&#39;)]</text>
<polygon fill="none" stroke="#000000" points="330.5,-42.5 330.5,-72.5 875.5,-72.5 875.5,-42.5 330.5,-42.5"/>
<text text-anchor="start" x="337.5" y="-53.9" font-family="Arial" font-size="14.00" fill="#000000">last_update </text>
<text text-anchor="start" x="413.7566" y="-53.9" font-family="Arial" font-size="14.00" fill="#666666">[timestamp]</text>
</g>
<!-- film_actor&#45;&gt;film -->
<g id="edge2" class="edge">
<title>film_actor:film_id&#45;&gt;film:film_id</title>
<path fill="none" stroke="#000000" d="M473.7258,-635.904C500.5581,-626.3166 485.5579,-575.8223 463.5,-547 426.2823,-498.3691 367.7177,-559.6309 330.5,-511 305.2445,-477.9996 288.9444,-417.5 330.5,-417.5"/>
<polygon fill="#000000" stroke="#000000" points="473.3804,-635.9578 462.806,-633.0538 468.4402,-636.7289 463.5,-637.5 463.5,-637.5 463.5,-637.5 468.4402,-636.7289 464.194,-641.9462 473.3804,-635.9578 473.3804,-635.9578"/>
<text text-anchor="start" x="470.2935" y="-647.5" font-family="Arial" font-size="10.00" fill="#000000">FOREIGN KEY (film_id) REFERENCES film (film_id)</text>
</g>
</g>
</svg>
