<?xml version="1.0" encoding="UTF-8" standalone="no"?>
<!DOCTYPE svg PUBLIC "-//W3C//DTD SVG 1.1//EN"
 "http://www.w3.org/Graphics/SVG/1.1/DTD/svg11.dtd">
<!-- Generated by graphviz version 2.40.1 (20161225.0304)
 -->
<!-- Title: inventory Pages: 1 -->
<svg width="1007pt" height="1169pt"
 viewBox="0.00 0.00 1006.50 1169.00" xmlns="http://www.w3.org/2000/svg" xmlns:xlink="http://www.w3.org/1999/xlink">
<g id="graph0" class="graph" transform="scale(1 1) rotate(0) translate(4 1165)">
<title>inventory</title>
<polygon fill="#ffffff" stroke="transparent" points="-4,4 -4,-1165 1002.5,-1165 1002.5,4 -4,4"/>
<!-- inventory -->
<g id="node1" class="node">
<title>inventory</title>
<polygon fill="#efefef" stroke="transparent" points="449.5,-712.5 449.5,-747.5 675.5,-747.5 675.5,-712.5 449.5,-712.5"/>
<polygon fill="none" stroke="#000000" points="449.5,-712.5 449.5,-747.5 675.5,-747.5 675.5,-712.5 449.5,-712.5"/>
<text text-anchor="start" x="477.3664" y="-725.3" font-family="Arial Bold" font-size="18.00" fill="#000000">inventory</text>
<text text-anchor="start" x="550.3798" y="-725.3" font-family="Arial" font-size="14.00" fill="#000000"> </text>
<text text-anchor="start" x="554.2704" y="-725.3" font-family="Arial" font-size="14.00" fill="#666666">[BASE TABLE]</text>
<polygon fill="none" stroke="#000000" points="449.5,-682.5 449.5,-712.5 675.5,-712.5 675.5,-682.5 449.5,-682.5"/>
<text text-anchor="start" x="456.31" y="-693.9" font-family="Arial" font-size="14.00" fill="#000000">inventory_id </text>
<text text-anchor="start" x="535.6606" y="-693.9" font-family="Arial" font-size="14.00" fill="#666666">[mediumint unsigned]</text>
<polygon fill="none" stroke="#000000" points="449.5,-652.5 449.5,-682.5 675.5,-682.5 675.5,-652.5 449.5,-652.5"/>
<text text-anchor="start" x="456.5" y="-663.9" font-family="Arial" font-size="14.00" fill="#000000">film_id </text>
<text text-anchor="start" x="500.8268" y="-663.9" font-family="Arial" font-size="14.00" fill="#666666">[smallint unsigned]</text>
<polygon fill="none" stroke="#000000" points="449.5,-622.5 449.5,-652.5 675.5,-652.5 675.5,-622.5 449.5,-622.5"/>
<text text-anchor="start" x="456.5" y="-633.9" font-family="Arial" font-size="14.00" fill="#000000">store_id </text>
<text text-anchor="start" x="510.1788" y="-633.9" font-family="Arial" font-size="14.00" fill="#666666">[tinyint unsigned]</text>
<polygon fill="none" stroke="#000000" points="449.5,-592.5 449.5,-622.5 675.5,-622.5 675.5,-592.5 449.5,-592.5"/>
<text text-anchor="start" x="456.5" y="-603.9" font-family="Arial" font-size="14.00" fill="#000000">last_update </text>
<text text-anchor="start" x="532.7566" y="-603.9" font-family="Arial" font-size="14.00" fill="#666666">[timestamp]</text>
<polygon fill="none" stroke="#000000" stroke-width="3" points="448,-591.5 448,-749.5 677,-749.5 677,-591.5 448,-591.5"/>
</g>
<!-- film -->
<g id="node3" class="node">
<title>film</title>
<polygon fill="#efefef" stroke="transparent" points="43.5,-432.5 43.5,-467.5 588.5,-467.5 588.5,-432.5 43.5,-432.5"/>
<polygon fill="none" stroke="#000000" points="43.5,-432.5 43.5,-467.5 588.5,-467.5 588.5,-432.5 43.5,-432.5"/>
<text text-anchor="start" x="253.3817" y="-445.3" font-family="Arial Bold" font-size="18.00" fill="#000000">film</text>
<text text-anchor="start" x="281.3645" y="-445.3" font-family="Arial" font-size="14.00" fill="#000000"> </text>
<text text-anchor="start" x="285.2551" y="-445.3" font-family="Arial" font-size="14.00" fill="#666666">[BASE TABLE]</text>
<polygon fill="none" stroke="#000000" points="43.5,-402.5 43.5,-432.5 588.5,-432.5 588.5,-402.5 43.5,-402.5"/>
<text text-anchor="start" x="50.5" y="-413.9" font-family="Arial" font-size="14.00" fill="#000000">film_id </text>
<text text-anchor="start" x="94.8268" y="-413.9" font-family="Arial" font-size="14.00" fill="#666666">[smallint unsigned]</text>
<polygon fill="none" stroke="#000000" points="43.5,-372.5 43.5,-402.5 588.5,-402.5 588.5,-372.5 43.5,-372.5"/>
<text text-anchor="start" x="50.5" y="-383.9" font-family="Arial" font-size="14.00" fill="#000000">title </text>
<text text-anchor="start" x="76.1676" y="-383.9" font-family="Arial" font-size="14.00" fill="#666666">[varchar(128)]</text>
<polygon fill="none" stroke="#000000" points="43.5,-342.5 43.5,-372.5 588.5,-372.5 588.5,-342.5 43.5,-342.5"/>
<text text-anchor="start" x="50.5" y="-353.9" font-family="Arial" font-size="14.00" fill="#000000">description </text>
<text text-anchor="start" x="122.068" y="-353.9" font-family="Arial" font-size="14.00" fill="#666666">[text]</text>
<polygon fill="none" stroke="#000000" points="43.5,-312.5 43.5,-342.5 588.5,-342.5 588.5,-312.5 43.5,-312.5"/>
<text text-anchor="start" x="50.5" y="-323.9" font-family="Arial" font-size="14.00" fill="#000000">release_year </text>
<text text-anchor="start" x="135.2966" y="-323.9" font-family="Arial" font-size="14.00" fill="#666666">[year]</text>
<polygon fill="none" stroke="#000000" points="43.5,-282.5 43.5,-312.5 588.5,-312.5 588.5,-282.5 43.5,-282.5"/>
<text text-anchor="start" x="50.5" y="-293.9" font-family="Arial" font-size="14.00" fill="#000000">language_id </text>
<text text-anchor="start" x="130.6472" y="-293.9" font-family="Arial" font-size="14.00" fill="#666666">[tinyint unsigned]</text>
<polygon fill="none" stroke="#000000" points="43.5,-252.5 43.5,-282.5 588.5,-282.5 588.5,-252.5 43.5,-252.5"/>
<text text-anchor="start" x="50.5" y="-263.9" font-family="Arial" font-size="14.00" fill="#000000">original_language_id </text>
<text text-anchor="start" x="183.5406" y="-263.9" font-family="Arial" font-size="14.00" fill="#666666">[tinyint unsigned]</text>
<polygon fill="none" stroke="#000000" points="43.5,-222.5 43.5,-252.5 588.5,-252.5 588.5,-222.5 43.5,-222.5"/>
<text text-anchor="start" x="50.5" y="-233.9" font-family="Arial" font-size="14.00" fill="#000000">rental_duration </text>
<text text-anchor="start" x="147.7496" y="-233.9" font-family="Arial" font-size="14.00" fill="#666666">[tinyint unsigned]</text>
<polygon fill="none" stroke="#000000" points="43.5,-192.5 43.5,-222.5 588.5,-222.5 588.5,-192.5 43.5,-192.5"/>
<text text-anchor="start" x="50.5" y="-203.9" font-family="Arial" font-size="14.00" fill="#000000">rental_rate </text>
<text text-anchor="start" x="121.2952" y="-203.9" font-family="Arial" font-size="14.00" fill="#666666">[decimal(4,2)]</text>
<polygon fill="none" stroke="#000000" points="43.5,-162.5 43.5,-192.5 588.5,-192.5 588.5,-162.5 43.5,-162.5"/>
<text text-anchor="start" x="50.5" y="-173.9" font-family="Arial" font-size="14.00" fill="#000000">length </text>
<text text-anchor="start" x="92.5182" y="-173.9" font-family="Arial" font-size="14.00" fill="#666666">[smallint unsigned]</text>
<polygon fill="none" stroke="#000000" points="43.5,-132.5 43.5,-162.5 588.5,-162.5 588.5,-132.5 43.5,-132.5"/>
<text text-anchor="start" x="50.5" y="-143.9" font-family="Arial" font-size="14.00" fill="#000000">replacement_cost </text>
<text text-anchor="start" x="164.8604" y="-143.9" font-family="Arial" font-size="14.00" fill="#666666">[decimal(5,2)]</text>
<polygon fill="none" stroke="#000000" points="43.5,-102.5 43.5,-132.5 588.5,-132.5 588.5,-102.5 43.5,-102.5"/>
<text text-anchor="start" x="50.5" y="-113.9" font-family="Arial" font-size="14.00" fill="#000000">rating </text>
<text text-anchor="start" x="89.3962" y="-113.9" font-family="Arial" font-size="14.00" fill="#666666">[enum(&#39;G&#39;,&#39;PG&#39;,&#39;PG&#45;13&#39;,&#39;R&#39;,&#39;NC&#45;17&#39;)]</text>
<polygon fill="none" stroke="#000000" points="43.5,-72.5 43.5,-102.5 588.5,-102.5 588.5,-72.5 43.5,-72.5"/>
<text text-anchor="start" x="50.0252" y="-83.9" font-family="Arial" font-size="14.00" fill="#000000">special_features </text>
<text text-anchor="start" x="155.8316" y="-83.9" font-family="Arial" font-size="14.00" fill="#666666">[set(&#39;Trailers&#39;,&#39;Commentaries&#39;,&#39;Deleted Scenes&#39;,&#39;Behind the Scenes&#39;)]</text>
<polygon fill="none" stroke="#000000" points="43.5,-42.5 43.5,-72.5 588.5,-72.5 588.5,-42.5 43.5,-42.5"/>
<text text-anchor="start" x="50.5" y="-53.9" font-family="Arial" font-size="14.00" fill="#000000">last_update </text>
<text text-anchor="start" x="126.7566" y="-53.9" font-family="Arial" font-size="14.00" fill="#666666">[timestamp]</text>
</g>
<!-- inventory&#45;&gt;film -->
<g id="edge2" class="edge">
<title>inventory:film_id&#45;&gt;film:film_id</title>
<path fill="none" stroke="#000000" d="M439.5391,-666.4408C398.8409,-656.9829 418.9606,-586.4565 449.5,-547 488.5604,-496.5344 549.4396,-561.4656 588.5,-511 613.9353,-478.138 630.0556,-417.5 588.5,-417.5"/>
<polygon fill="#000000" stroke="#000000" points="439.5561,-666.4426 449.0241,-671.9748 444.528,-666.9713 449.5,-667.5 449.5,-667.5 449.5,-667.5 444.528,-666.9713 449.9759,-663.0252 439.5561,-666.4426 439.5561,-666.4426"/>
<text text-anchor="start" x="208.2935" y="-677.5" font-family="Arial" font-size="10.00" fill="#000000">FOREIGN KEY (film_id) REFERENCES film (film_id)</text>
</g>
<!-- store -->
<g id="node4" class="node">
<title>store</title>
<polygon fill="#efefef" stroke="transparent" points="692.5,-297.5 692.5,-332.5 923.5,-332.5 923.5,-297.5 692.5,-297.5"/>
<polygon fill="none" stroke="#000000" points="692.5,-297.5 692.5,-332.5 923.5,-332.5 923.5,-297.5 692.5,-297.5"/>
<text text-anchor="start" x="739.3697" y="-310.3" font-family="Arial Bold" font-size="18.00" fill="#000000">store</text>
<text text-anchor="start" x="779.3765" y="-310.3" font-family="Arial" font-size="14.00" fill="#000000"> </text>
<text text-anchor="start" x="783.2671" y="-310.3" font-family="Arial" font-size="14.00" fill="#666666">[BASE TABLE]</text>
<polygon fill="none" stroke="#000000" points="692.5,-267.5 692.5,-297.5 923.5,-297.5 923.5,-267.5 692.5,-267.5"/>
<text text-anchor="start" x="699.5" y="-278.9" font-family="Arial" font-size="14.00" fill="#000000">store_id </text>
<text text-anchor="start" x="753.1788" y="-278.9" font-family="Arial" font-size="14.00" fill="#666666">[tinyint unsigned]</text>
<polygon fill="none" stroke="#000000" points="692.5,-237.5 692.5,-267.5 923.5,-267.5 923.5,-237.5 692.5,-237.5"/>
<text text-anchor="start" x="699.4664" y="-248.9" font-family="Arial" font-size="14.00" fill="#000000">manager_staff_id </text>
<text text-anchor="start" x="811.5" y="-248.9" font-family="Arial" font-size="14.00" fill="#666666">[tinyint unsigned]</text>
<polygon fill="none" stroke="#000000" points="692.5,-207.5 692.5,-237.5 923.5,-237.5 923.5,-207.5 692.5,-207.5"/>
<text text-anchor="start" x="699.5" y="-218.9" font-family="Arial" font-size="14.00" fill="#000000">address_id </text>
<text text-anchor="start" x="771.8534" y="-218.9" font-family="Arial" font-size="14.00" fill="#666666">[smallint unsigned]</text>
<polygon fill="none" stroke="#000000" points="692.5,-177.5 692.5,-207.5 923.5,-207.5 923.5,-177.5 692.5,-177.5"/>
<text text-anchor="start" x="699.5" y="-188.9" font-family="Arial" font-size="14.00" fill="#000000">last_update </text>
<text text-anchor="start" x="775.7566" y="-188.9" font-family="Arial" font-size="14.00" fill="#666666">[timestamp]</text>
</g>
<!-- inventory&#45;&gt;store -->
<g id="edge3" class="edge">
<title>inventory:store_id&#45;&gt;store:store_id</title>
<path fill="none" stroke="#000000" d="M685.8653,-636.9241C819.6978,-621.0544 538.2436,-282.5 692.5,-282.5"/>
<polygon fill="#000000" stroke="#000000" points="685.4846,-636.9452 675.2503,-633.0069 680.4923,-637.2226 675.5,-637.5 675.5,-637.5 675.5,-637.5 680.4923,-637.2226 675.7497,-641.9931 685.4846,-636.9452 685.4846,-636.9452"/>
<text text-anchor="start" x="682.2735" y="-647.5" font-family="Arial" font-size="10.00" fill="#000000">FOREIGN KEY (store_id) REFERENCES store (store_id)</text>
</g>
<!-- rental -->
<g id="node2" class="node">
<title>rental</title>
<polygon fill="#efefef" stroke="transparent" points="449.5,-1082.5 449.5,-1117.5 675.5,-1117.5 675.5,-1082.5 449.5,-1082.5"/>
<polygon fill="none" stroke="#000000" points="449.5,-1082.5 449.5,-1117.5 675.5,-1117.5 675.5,-1082.5 449.5,-1082.5"/>
<text text-anchor="start" x="491.3695" y="-1095.3" font-family="Arial Bold" font-size="18.00" fill="#000000">rental</text>
<text text-anchor="start" x="536.3767" y="-1095.3" font-family="Arial" font-size="14.00" fill="#000000"> </text>
<text text-anchor="start" x="540.2673" y="-1095.3" font-family="Arial" font-size="14.00" fill="#666666">[BASE TABLE]</text>
<polygon fill="none" stroke="#000000" points="449.5,-1052.5 449.5,-1082.5 675.5,-1082.5 675.5,-1052.5 449.5,-1052.5"/>
<text text-anchor="start" x="456.5" y="-1063.9" font-family="Arial" font-size="14.00" fill="#000000">rental_id </text>
<text text-anchor="start" x="514.068" y="-1063.9" font-family="Arial" font-size="14.00" fill="#666666">[int]</text>
<polygon fill="none" stroke="#000000" points="449.5,-1022.5 449.5,-1052.5 675.5,-1052.5 675.5,-1022.5 449.5,-1022.5"/>
<text text-anchor="start" x="456.5" y="-1033.9" font-family="Arial" font-size="14.00" fill="#000000">rental_date </text>
<text text-anchor="start" x="530.4172" y="-1033.9" font-family="Arial" font-size="14.00" fill="#666666">[datetime]</text>
<polygon fill="none" stroke="#000000" points="449.5,-992.5 449.5,-1022.5 675.5,-1022.5 675.5,-992.5 449.5,-992.5"/>
<text text-anchor="start" x="456.31" y="-1003.9" font-family="Arial" font-size="14.00" fill="#000000">inventory_id </text>
<text text-anchor="start" x="535.6606" y="-1003.9" font-family="Arial" font-size="14.00" fill="#666666">[mediumint unsigned]</text>
<polygon fill="none" stroke="#000000" points="449.5,-962.5 449.5,-992.5 675.5,-992.5 675.5,-962.5 449.5,-962.5"/>
<text text-anchor="start" x="456.5" y="-973.9" font-family="Arial" font-size="14.00" fill="#000000">customer_id </text>
<text text-anchor="start" x="536.622" y="-973.9" font-family="Arial" font-size="14.00" fill="#666666">[smallint unsigned]</text>
<polygon fill="none" stroke="#000000" points="449.5,-932.5 449.5,-962.5 675.5,-962.5 675.5,-932.5 449.5,-932.5"/>
<text text-anchor="start" x="456.5" y="-943.9" font-family="Arial" font-size="14.00" fill="#000000">return_date </text>
<text text-anchor="start" x="531.9712" y="-943.9" font-family="Arial" font-size="14.00" fill="#666666">[datetime]</text>
<polygon fill="none" stroke="#000000" points="449.5,-902.5 449.5,-932.5 675.5,-932.5 675.5,-902.5 449.5,-902.5"/>
<text text-anchor="start" x="456.5" y="-913.9" font-family="Arial" font-size="14.00" fill="#000000">staff_id </text>
<text text-anchor="start" x="505.5168" y="-913.9" font-family="Arial" font-size="14.00" fill="#666666">[tinyint unsigned]</text>
<polygon fill="none" stroke="#000000" points="449.5,-872.5 449.5,-902.5 675.5,-902.5 675.5,-872.5 449.5,-872.5"/>
<text text-anchor="start" x="456.5" y="-883.9" font-family="Arial" font-size="14.00" fill="#000000">last_update </text>
<text text-anchor="start" x="532.7566" y="-883.9" font-family="Arial" font-size="14.00" fill="#666666">[timestamp]</text>
</g>
<!-- rental&#45;&gt;inventory -->
<g id="edge1" class="edge">
<title>rental:inventory_id&#45;&gt;inventory:inventory_id</title>
<path fill="none" stroke="#000000" d="M685.7283,-1006.9106C813.189,-991.9577 809.7795,-697.5 675.5,-697.5"/>
<polygon fill="#000000" stroke="#000000" points="685.4834,-1006.9246 675.2411,-1003.0075 680.4917,-1007.2123 675.5,-1007.5 675.5,-1007.5 675.5,-1007.5 680.4917,-1007.2123 675.7589,-1011.9925 685.4834,-1006.9246 685.4834,-1006.9246"/>
<text text-anchor="start" x="682.768" y="-1017.5" font-family="Arial" font-size="10.00" fill="#000000">FOREIGN KEY (inventory_id) REFERENCES inventory (inventory_id)</text>
</g>
</g>
</svg>
