<?xml version="1.0" encoding="UTF-8" standalone="no"?>
<!DOCTYPE svg PUBLIC "-//W3C//DTD SVG 1.1//EN"
 "http://www.w3.org/Graphics/SVG/1.1/DTD/svg11.dtd">
<!-- Generated by graphviz version 2.40.1 (20161225.0304)
 -->
<!-- Title: language Pages: 1 -->
<svg width="958pt" height="772pt"
 viewBox="0.00 0.00 957.50 772.00" xmlns="http://www.w3.org/2000/svg" xmlns:xlink="http://www.w3.org/1999/xlink">
<g id="graph0" class="graph" transform="scale(1 1) rotate(0) translate(4 768)">
<title>language</title>
<polygon fill="#ffffff" stroke="transparent" points="-4,4 -4,-768 953.5,-768 953.5,4 -4,4"/>
<!-- language -->
<g id="node1" class="node">
<title>language</title>
<polygon fill="#efefef" stroke="transparent" points="535,-135.5 535,-170.5 734,-170.5 734,-135.5 535,-135.5"/>
<polygon fill="none" stroke="#000000" points="535,-135.5 535,-170.5 734,-170.5 734,-135.5 535,-135.5"/>
<text text-anchor="start" x="548.8543" y="-148.3" font-family="Arial Bold" font-size="18.00" fill="#000000">language</text>
<text text-anchor="start" x="622.8919" y="-148.3" font-family="Arial" font-size="14.00" fill="#000000"> </text>
<text text-anchor="start" x="626.7825" y="-148.3" font-family="Arial" font-size="14.00" fill="#666666">[BASE TABLE]</text>
<polygon fill="none" stroke="#000000" points="535,-105.5 535,-135.5 734,-135.5 734,-105.5 535,-105.5"/>
<text text-anchor="start" x="541.9096" y="-116.9" font-family="Arial" font-size="14.00" fill="#000000">language_id </text>
<text text-anchor="start" x="622.0568" y="-116.9" font-family="Arial" font-size="14.00" fill="#666666">[tinyint unsigned]</text>
<polygon fill="none" stroke="#000000" points="535,-75.5 535,-105.5 734,-105.5 734,-75.5 535,-75.5"/>
<text text-anchor="start" x="542" y="-86.9" font-family="Arial" font-size="14.00" fill="#000000">name </text>
<text text-anchor="start" x="580.899" y="-86.9" font-family="Arial" font-size="14.00" fill="#666666">[char(20)]</text>
<polygon fill="none" stroke="#000000" points="535,-45.5 535,-75.5 734,-75.5 734,-45.5 535,-45.5"/>
<text text-anchor="start" x="542" y="-56.9" font-family="Arial" font-size="14.00" fill="#000000">last_update </text>
<text text-anchor="start" x="618.2566" y="-56.9" font-family="Arial" font-size="14.00" fill="#666666">[timestamp]</text>
<polygon fill="none" stroke="#000000" stroke-width="3" points="533,-44.5 533,-172.5 735,-172.5 735,-44.5 533,-44.5"/>
</g>
<!-- film -->
<g id="node2" class="node">
<title>film</title>
<polygon fill="#efefef" stroke="transparent" points="362,-685.5 362,-720.5 907,-720.5 907,-685.5 362,-685.5"/>
<polygon fill="none" stroke="#000000" points="362,-685.5 362,-720.5 907,-720.5 907,-685.5 362,-685.5"/>
<text text-anchor="start" x="571.8817" y="-698.3" font-family="Arial Bold" font-size="18.00" fill="#000000">film</text>
<text text-anchor="start" x="599.8645" y="-698.3" font-family="Arial" font-size="14.00" fill="#000000"> </text>
<text text-anchor="start" x="603.7551" y="-698.3" font-family="Arial" font-size="14.00" fill="#666666">[BASE TABLE]</text>
<polygon fill="none" stroke="#000000" points="362,-655.5 362,-685.5 907,-685.5 907,-655.5 362,-655.5"/>
<text text-anchor="start" x="369" y="-666.9" font-family="Arial" font-size="14.00" fill="#000000">film_id </text>
<text text-anchor="start" x="413.3268" y="-666.9" font-family="Arial" font-size="14.00" fill="#666666">[smallint unsigned]</text>
<polygon fill="none" stroke="#000000" points="362,-625.5 362,-655.5 907,-655.5 907,-625.5 362,-625.5"/>
<text text-anchor="start" x="369" y="-636.9" font-family="Arial" font-size="14.00" fill="#000000">title </text>
<text text-anchor="start" x="394.6676" y="-636.9" font-family="Arial" font-size="14.00" fill="#666666">[varchar(128)]</text>
<polygon fill="none" stroke="#000000" points="362,-595.5 362,-625.5 907,-625.5 907,-595.5 362,-595.5"/>
<text text-anchor="start" x="369" y="-606.9" font-family="Arial" font-size="14.00" fill="#000000">description </text>
<text text-anchor="start" x="440.568" y="-606.9" font-family="Arial" font-size="14.00" fill="#666666">[text]</text>
<polygon fill="none" stroke="#000000" points="362,-565.5 362,-595.5 907,-595.5 907,-565.5 362,-565.5"/>
<text text-anchor="start" x="369" y="-576.9" font-family="Arial" font-size="14.00" fill="#000000">release_year </text>
<text text-anchor="start" x="453.7966" y="-576.9" font-family="Arial" font-size="14.00" fill="#666666">[year]</text>
<polygon fill="none" stroke="#000000" points="362,-535.5 362,-565.5 907,-565.5 907,-535.5 362,-535.5"/>
<text text-anchor="start" x="369" y="-546.9" font-family="Arial" font-size="14.00" fill="#000000">language_id </text>
<text text-anchor="start" x="449.1472" y="-546.9" font-family="Arial" font-size="14.00" fill="#666666">[tinyint unsigned]</text>
<polygon fill="none" stroke="#000000" points="362,-505.5 362,-535.5 907,-535.5 907,-505.5 362,-505.5"/>
<text text-anchor="start" x="369" y="-516.9" font-family="Arial" font-size="14.00" fill="#000000">original_language_id </text>
<text text-anchor="start" x="502.0406" y="-516.9" font-family="Arial" font-size="14.00" fill="#666666">[tinyint unsigned]</text>
<polygon fill="none" stroke="#000000" points="362,-475.5 362,-505.5 907,-505.5 907,-475.5 362,-475.5"/>
<text text-anchor="start" x="369" y="-486.9" font-family="Arial" font-size="14.00" fill="#000000">rental_duration </text>
<text text-anchor="start" x="466.2496" y="-486.9" font-family="Arial" font-size="14.00" fill="#666666">[tinyint unsigned]</text>
<polygon fill="none" stroke="#000000" points="362,-445.5 362,-475.5 907,-475.5 907,-445.5 362,-445.5"/>
<text text-anchor="start" x="369" y="-456.9" font-family="Arial" font-size="14.00" fill="#000000">rental_rate </text>
<text text-anchor="start" x="439.7952" y="-456.9" font-family="Arial" font-size="14.00" fill="#666666">[decimal(4,2)]</text>
<polygon fill="none" stroke="#000000" points="362,-415.5 362,-445.5 907,-445.5 907,-415.5 362,-415.5"/>
<text text-anchor="start" x="369" y="-426.9" font-family="Arial" font-size="14.00" fill="#000000">length </text>
<text text-anchor="start" x="411.0182" y="-426.9" font-family="Arial" font-size="14.00" fill="#666666">[smallint unsigned]</text>
<polygon fill="none" stroke="#000000" points="362,-385.5 362,-415.5 907,-415.5 907,-385.5 362,-385.5"/>
<text text-anchor="start" x="369" y="-396.9" font-family="Arial" font-size="14.00" fill="#000000">replacement_cost </text>
<text text-anchor="start" x="483.3604" y="-396.9" font-family="Arial" font-size="14.00" fill="#666666">[decimal(5,2)]</text>
<polygon fill="none" stroke="#000000" points="362,-355.5 362,-385.5 907,-385.5 907,-355.5 362,-355.5"/>
<text text-anchor="start" x="369" y="-366.9" font-family="Arial" font-size="14.00" fill="#000000">rating </text>
<text text-anchor="start" x="407.8962" y="-366.9" font-family="Arial" font-size="14.00" fill="#666666">[enum(&#39;G&#39;,&#39;PG&#39;,&#39;PG&#45;13&#39;,&#39;R&#39;,&#39;NC&#45;17&#39;)]</text>
<polygon fill="none" stroke="#000000" points="362,-325.5 362,-355.5 907,-355.5 907,-325.5 362,-325.5"/>
<text text-anchor="start" x="368.5252" y="-336.9" font-family="Arial" font-size="14.00" fill="#000000">special_features </text>
<text text-anchor="start" x="474.3316" y="-336.9" font-family="Arial" font-size="14.00" fill="#666666">[set(&#39;Trailers&#39;,&#39;Commentaries&#39;,&#39;Deleted Scenes&#39;,&#39;Behind the Scenes&#39;)]</text>
<polygon fill="none" stroke="#000000" points="362,-295.5 362,-325.5 907,-325.5 907,-295.5 362,-295.5"/>
<text text-anchor="start" x="369" y="-306.9" font-family="Arial" font-size="14.00" fill="#000000">last_update </text>
<text text-anchor="start" x="445.2566" y="-306.9" font-family="Arial" font-size="14.00" fill="#666666">[timestamp]</text>
</g>
<!-- film&#45;&gt;language -->
<g id="edge1" class="edge">
<title>film:language_id&#45;&gt;language:language_id</title>
<path fill="none" stroke="#000000" d="M351.9664,-550.1312C233.6532,-541.1057 305.0095,-368.434 362,-253 404.8745,-166.1577 438.1506,-120.5 535,-120.5"/>
<polygon fill="#000000" stroke="#000000" points="352.0067,-550.1326 361.8347,-554.997 357.0034,-550.3163 362,-550.5 362,-550.5 362,-550.5 357.0034,-550.3163 362.1653,-546.003 352.0067,-550.1326 352.0067,-550.1326"/>
<text text-anchor="start" x="44.4145" y="-560.5" font-family="Arial" font-size="10.00" fill="#000000">FOREIGN KEY (language_id) REFERENCES language (language_id)</text>
</g>
<!-- film&#45;&gt;language -->
<g id="edge2" class="edge">
<title>film:original_language_id&#45;&gt;language:language_id</title>
<path fill="none" stroke="#000000" d="M351.706,-520.0636C247.1103,-510.808 310.9621,-356.3772 362,-253 404.8745,-166.1577 438.1506,-120.5 535,-120.5"/>
<polygon fill="#000000" stroke="#000000" points="352.009,-520.0763 361.8094,-524.996 357.0045,-520.2882 362,-520.5 362,-520.5 362,-520.5 357.0045,-520.2882 362.1906,-516.004 352.009,-520.0763 352.009,-520.0763"/>
<text text-anchor="start" x="6.524" y="-530.5" font-family="Arial" font-size="10.00" fill="#000000">FOREIGN KEY (original_language_id) REFERENCES language (language_id)</text>
</g>
</g>
</svg>
