<?xml version="1.0" encoding="UTF-8" standalone="no"?>
<!DOCTYPE svg PUBLIC "-//W3C//DTD SVG 1.1//EN"
 "http://www.w3.org/Graphics/SVG/1.1/DTD/svg11.dtd">
<!-- Generated by graphviz version 2.40.1 (20161225.0304)
 -->
<!-- Title: payment Pages: 1 -->
<svg width="940pt" height="832pt"
 viewBox="0.00 0.00 940.00 832.00" xmlns="http://www.w3.org/2000/svg" xmlns:xlink="http://www.w3.org/1999/xlink">
<g id="graph0" class="graph" transform="scale(1 1) rotate(0) translate(4 828)">
<title>payment</title>
<polygon fill="#ffffff" stroke="transparent" points="-4,4 -4,-828 936,-828 936,4 -4,4"/>
<!-- payment -->
<g id="node1" class="node">
<title>payment</title>
<polygon fill="#efefef" stroke="transparent" points="353,-742.5 353,-777.5 563,-777.5 563,-742.5 353,-742.5"/>
<polygon fill="none" stroke="#000000" points="353,-742.5 353,-777.5 563,-777.5 563,-742.5 353,-742.5"/>
<text text-anchor="start" x="374.8635" y="-755.3" font-family="Arial Bold" font-size="18.00" fill="#000000">payment</text>
<text text-anchor="start" x="443.8827" y="-755.3" font-family="Arial" font-size="14.00" fill="#000000"> </text>
<text text-anchor="start" x="447.7733" y="-755.3" font-family="Arial" font-size="14.00" fill="#666666">[BASE TABLE]</text>
<polygon fill="none" stroke="#000000" points="353,-712.5 353,-742.5 563,-742.5 563,-712.5 353,-712.5"/>
<text text-anchor="start" x="360" y="-723.9" font-family="Arial" font-size="14.00" fill="#000000">payment_id </text>
<text text-anchor="start" x="436.244" y="-723.9" font-family="Arial" font-size="14.00" fill="#666666">[smallint unsigned]</text>
<polygon fill="none" stroke="#000000" points="353,-682.5 353,-712.5 563,-712.5 563,-682.5 353,-682.5"/>
<text text-anchor="start" x="359.9839" y="-693.9" font-family="Arial" font-size="14.00" fill="#000000">customer_id </text>
<text text-anchor="start" x="440.1059" y="-693.9" font-family="Arial" font-size="14.00" fill="#666666">[smallint unsigned]</text>
<polygon fill="none" stroke="#000000" points="353,-652.5 353,-682.5 563,-682.5 563,-652.5 353,-652.5"/>
<text text-anchor="start" x="360" y="-663.9" font-family="Arial" font-size="14.00" fill="#000000">staff_id </text>
<text text-anchor="start" x="409.0168" y="-663.9" font-family="Arial" font-size="14.00" fill="#666666">[tinyint unsigned]</text>
<polygon fill="none" stroke="#000000" points="353,-622.5 353,-652.5 563,-652.5 563,-622.5 353,-622.5"/>
<text text-anchor="start" x="360" y="-633.9" font-family="Arial" font-size="14.00" fill="#000000">rental_id </text>
<text text-anchor="start" x="417.568" y="-633.9" font-family="Arial" font-size="14.00" fill="#666666">[int]</text>
<polygon fill="none" stroke="#000000" points="353,-592.5 353,-622.5 563,-622.5 563,-592.5 353,-592.5"/>
<text text-anchor="start" x="360" y="-603.9" font-family="Arial" font-size="14.00" fill="#000000">amount </text>
<text text-anchor="start" x="410.5722" y="-603.9" font-family="Arial" font-size="14.00" fill="#666666">[decimal(5,2)]</text>
<polygon fill="none" stroke="#000000" points="353,-562.5 353,-592.5 563,-592.5 563,-562.5 353,-562.5"/>
<text text-anchor="start" x="360" y="-573.9" font-family="Arial" font-size="14.00" fill="#000000">payment_date </text>
<text text-anchor="start" x="452.5932" y="-573.9" font-family="Arial" font-size="14.00" fill="#666666">[datetime]</text>
<polygon fill="none" stroke="#000000" points="353,-532.5 353,-562.5 563,-562.5 563,-532.5 353,-532.5"/>
<text text-anchor="start" x="360" y="-543.9" font-family="Arial" font-size="14.00" fill="#000000">last_update </text>
<text text-anchor="start" x="436.2566" y="-543.9" font-family="Arial" font-size="14.00" fill="#666666">[timestamp]</text>
<polygon fill="none" stroke="#000000" stroke-width="3" points="351.5,-531.5 351.5,-779.5 564.5,-779.5 564.5,-531.5 351.5,-531.5"/>
</g>
<!-- customer -->
<g id="node2" class="node">
<title>customer</title>
<polygon fill="#efefef" stroke="transparent" points="43,-342.5 43,-377.5 253,-377.5 253,-342.5 43,-342.5"/>
<polygon fill="none" stroke="#000000" points="43,-342.5 43,-377.5 253,-377.5 253,-342.5 43,-342.5"/>
<text text-anchor="start" x="62.3705" y="-355.3" font-family="Arial Bold" font-size="18.00" fill="#000000">customer</text>
<text text-anchor="start" x="136.3757" y="-355.3" font-family="Arial" font-size="14.00" fill="#000000"> </text>
<text text-anchor="start" x="140.2663" y="-355.3" font-family="Arial" font-size="14.00" fill="#666666">[BASE TABLE]</text>
<polygon fill="none" stroke="#000000" points="43,-312.5 43,-342.5 253,-342.5 253,-312.5 43,-312.5"/>
<text text-anchor="start" x="49.9839" y="-323.9" font-family="Arial" font-size="14.00" fill="#000000">customer_id </text>
<text text-anchor="start" x="130.1059" y="-323.9" font-family="Arial" font-size="14.00" fill="#666666">[smallint unsigned]</text>
<polygon fill="none" stroke="#000000" points="43,-282.5 43,-312.5 253,-312.5 253,-282.5 43,-282.5"/>
<text text-anchor="start" x="50" y="-293.9" font-family="Arial" font-size="14.00" fill="#000000">store_id </text>
<text text-anchor="start" x="103.6788" y="-293.9" font-family="Arial" font-size="14.00" fill="#666666">[tinyint unsigned]</text>
<polygon fill="none" stroke="#000000" points="43,-252.5 43,-282.5 253,-282.5 253,-252.5 43,-252.5"/>
<text text-anchor="start" x="50" y="-263.9" font-family="Arial" font-size="14.00" fill="#000000">first_name </text>
<text text-anchor="start" x="119.23" y="-263.9" font-family="Arial" font-size="14.00" fill="#666666">[varchar(45)]</text>
<polygon fill="none" stroke="#000000" points="43,-222.5 43,-252.5 253,-252.5 253,-222.5 43,-222.5"/>
<text text-anchor="start" x="50" y="-233.9" font-family="Arial" font-size="14.00" fill="#000000">last_name </text>
<text text-anchor="start" x="118.4614" y="-233.9" font-family="Arial" font-size="14.00" fill="#666666">[varchar(45)]</text>
<polygon fill="none" stroke="#000000" points="43,-192.5 43,-222.5 253,-222.5 253,-192.5 43,-192.5"/>
<text text-anchor="start" x="50" y="-203.9" font-family="Arial" font-size="14.00" fill="#000000">email </text>
<text text-anchor="start" x="87.3296" y="-203.9" font-family="Arial" font-size="14.00" fill="#666666">[varchar(50)]</text>
<polygon fill="none" stroke="#000000" points="43,-162.5 43,-192.5 253,-192.5 253,-162.5 43,-162.5"/>
<text text-anchor="start" x="50" y="-173.9" font-family="Arial" font-size="14.00" fill="#000000">address_id </text>
<text text-anchor="start" x="122.3534" y="-173.9" font-family="Arial" font-size="14.00" fill="#666666">[smallint unsigned]</text>
<polygon fill="none" stroke="#000000" points="43,-132.5 43,-162.5 253,-162.5 253,-132.5 43,-132.5"/>
<text text-anchor="start" x="50" y="-143.9" font-family="Arial" font-size="14.00" fill="#000000">active </text>
<text text-anchor="start" x="90.453" y="-143.9" font-family="Arial" font-size="14.00" fill="#666666">[tinyint(1)]</text>
<polygon fill="none" stroke="#000000" points="43,-102.5 43,-132.5 253,-132.5 253,-102.5 43,-102.5"/>
<text text-anchor="start" x="50" y="-113.9" font-family="Arial" font-size="14.00" fill="#000000">create_date </text>
<text text-anchor="start" x="127.8106" y="-113.9" font-family="Arial" font-size="14.00" fill="#666666">[datetime]</text>
<polygon fill="none" stroke="#000000" points="43,-72.5 43,-102.5 253,-102.5 253,-72.5 43,-72.5"/>
<text text-anchor="start" x="50" y="-83.9" font-family="Arial" font-size="14.00" fill="#000000">last_update </text>
<text text-anchor="start" x="126.2566" y="-83.9" font-family="Arial" font-size="14.00" fill="#666666">[timestamp]</text>
</g>
<!-- payment&#45;&gt;customer -->
<g id="edge1" class="edge">
<title>payment:customer_id&#45;&gt;customer:customer_id</title>
<path fill="none" stroke="#000000" d="M342.8575,-695.5093C273.5858,-666.3863 334.5126,-327.5 253,-327.5"/>
<polygon fill="#000000" stroke="#000000" points="343.1872,-695.5739 352.1333,-701.9158 348.0936,-696.537 353,-697.5 353,-697.5 353,-697.5 348.0936,-696.537 353.8667,-693.0842 343.1872,-695.5739 343.1872,-695.5739"/>
<text text-anchor="start" x="35.4415" y="-707.5" font-family="Arial" font-size="10.00" fill="#000000">FOREIGN KEY (customer_id) REFERENCES customer (customer_id)</text>
</g>
<!-- staff -->
<g id="node3" class="node">
<title>staff</title>
<polygon fill="#efefef" stroke="transparent" points="357,-372.5 357,-407.5 559,-407.5 559,-372.5 357,-372.5"/>
<polygon fill="none" stroke="#000000" points="357,-372.5 357,-407.5 559,-407.5 559,-372.5 357,-372.5"/>
<text text-anchor="start" x="392.3667" y="-385.3" font-family="Arial Bold" font-size="18.00" fill="#000000">staff</text>
<text text-anchor="start" x="426.3795" y="-385.3" font-family="Arial" font-size="14.00" fill="#000000"> </text>
<text text-anchor="start" x="430.2701" y="-385.3" font-family="Arial" font-size="14.00" fill="#666666">[BASE TABLE]</text>
<polygon fill="none" stroke="#000000" points="357,-342.5 357,-372.5 559,-372.5 559,-342.5 357,-342.5"/>
<text text-anchor="start" x="364" y="-353.9" font-family="Arial" font-size="14.00" fill="#000000">staff_id </text>
<text text-anchor="start" x="413.0168" y="-353.9" font-family="Arial" font-size="14.00" fill="#666666">[tinyint unsigned]</text>
<polygon fill="none" stroke="#000000" points="357,-312.5 357,-342.5 559,-342.5 559,-312.5 357,-312.5"/>
<text text-anchor="start" x="364" y="-323.9" font-family="Arial" font-size="14.00" fill="#000000">first_name </text>
<text text-anchor="start" x="433.23" y="-323.9" font-family="Arial" font-size="14.00" fill="#666666">[varchar(45)]</text>
<polygon fill="none" stroke="#000000" points="357,-282.5 357,-312.5 559,-312.5 559,-282.5 357,-282.5"/>
<text text-anchor="start" x="364" y="-293.9" font-family="Arial" font-size="14.00" fill="#000000">last_name </text>
<text text-anchor="start" x="432.4614" y="-293.9" font-family="Arial" font-size="14.00" fill="#666666">[varchar(45)]</text>
<polygon fill="none" stroke="#000000" points="357,-252.5 357,-282.5 559,-282.5 559,-252.5 357,-252.5"/>
<text text-anchor="start" x="363.8682" y="-263.9" font-family="Arial" font-size="14.00" fill="#000000">address_id </text>
<text text-anchor="start" x="436.2216" y="-263.9" font-family="Arial" font-size="14.00" fill="#666666">[smallint unsigned]</text>
<polygon fill="none" stroke="#000000" points="357,-222.5 357,-252.5 559,-252.5 559,-222.5 357,-222.5"/>
<text text-anchor="start" x="364" y="-233.9" font-family="Arial" font-size="14.00" fill="#000000">picture </text>
<text text-anchor="start" x="409.8962" y="-233.9" font-family="Arial" font-size="14.00" fill="#666666">[blob]</text>
<polygon fill="none" stroke="#000000" points="357,-192.5 357,-222.5 559,-222.5 559,-192.5 357,-192.5"/>
<text text-anchor="start" x="364" y="-203.9" font-family="Arial" font-size="14.00" fill="#000000">email </text>
<text text-anchor="start" x="401.3296" y="-203.9" font-family="Arial" font-size="14.00" fill="#666666">[varchar(50)]</text>
<polygon fill="none" stroke="#000000" points="357,-162.5 357,-192.5 559,-192.5 559,-162.5 357,-162.5"/>
<text text-anchor="start" x="364" y="-173.9" font-family="Arial" font-size="14.00" fill="#000000">store_id </text>
<text text-anchor="start" x="417.6788" y="-173.9" font-family="Arial" font-size="14.00" fill="#666666">[tinyint unsigned]</text>
<polygon fill="none" stroke="#000000" points="357,-132.5 357,-162.5 559,-162.5 559,-132.5 357,-132.5"/>
<text text-anchor="start" x="364" y="-143.9" font-family="Arial" font-size="14.00" fill="#000000">active </text>
<text text-anchor="start" x="404.453" y="-143.9" font-family="Arial" font-size="14.00" fill="#666666">[tinyint(1)]</text>
<polygon fill="none" stroke="#000000" points="357,-102.5 357,-132.5 559,-132.5 559,-102.5 357,-102.5"/>
<text text-anchor="start" x="364" y="-113.9" font-family="Arial" font-size="14.00" fill="#000000">username </text>
<text text-anchor="start" x="430.1248" y="-113.9" font-family="Arial" font-size="14.00" fill="#666666">[varchar(16)]</text>
<polygon fill="none" stroke="#000000" points="357,-72.5 357,-102.5 559,-102.5 559,-72.5 357,-72.5"/>
<text text-anchor="start" x="364" y="-83.9" font-family="Arial" font-size="14.00" fill="#000000">password </text>
<text text-anchor="start" x="427.7882" y="-83.9" font-family="Arial" font-size="14.00" fill="#666666">[varchar(40)]</text>
<polygon fill="none" stroke="#000000" points="357,-42.5 357,-72.5 559,-72.5 559,-42.5 357,-42.5"/>
<text text-anchor="start" x="364" y="-53.9" font-family="Arial" font-size="14.00" fill="#000000">last_update </text>
<text text-anchor="start" x="440.2566" y="-53.9" font-family="Arial" font-size="14.00" fill="#666666">[timestamp]</text>
</g>
<!-- payment&#45;&gt;staff -->
<g id="edge2" class="edge">
<title>payment:staff_id&#45;&gt;staff:staff_id</title>
<path fill="none" stroke="#000000" d="M572.9328,-665.183C631.321,-636.815 624.3961,-357.5 559,-357.5"/>
<polygon fill="#000000" stroke="#000000" points="572.7385,-665.2282 561.9777,-663.1177 567.8693,-666.3641 563,-667.5 563,-667.5 563,-667.5 567.8693,-666.3641 564.0223,-671.8823 572.7385,-665.2282 572.7385,-665.2282"/>
<text text-anchor="start" x="569.7685" y="-677.5" font-family="Arial" font-size="10.00" fill="#000000">FOREIGN KEY (staff_id) REFERENCES staff (staff_id)</text>
</g>
<!-- rental -->
<g id="node4" class="node">
<title>rental</title>
<polygon fill="#efefef" stroke="transparent" points="663,-312.5 663,-347.5 889,-347.5 889,-312.5 663,-312.5"/>
<polygon fill="none" stroke="#000000" points="663,-312.5 663,-347.5 889,-347.5 889,-312.5 663,-312.5"/>
<text text-anchor="start" x="704.8695" y="-325.3" font-family="Arial Bold" font-size="18.00" fill="#000000">rental</text>
<text text-anchor="start" x="749.8767" y="-325.3" font-family="Arial" font-size="14.00" fill="#000000"> </text>
<text text-anchor="start" x="753.7673" y="-325.3" font-family="Arial" font-size="14.00" fill="#666666">[BASE TABLE]</text>
<polygon fill="none" stroke="#000000" points="663,-282.5 663,-312.5 889,-312.5 889,-282.5 663,-282.5"/>
<text text-anchor="start" x="670" y="-293.9" font-family="Arial" font-size="14.00" fill="#000000">rental_id </text>
<text text-anchor="start" x="727.568" y="-293.9" font-family="Arial" font-size="14.00" fill="#666666">[int]</text>
<polygon fill="none" stroke="#000000" points="663,-252.5 663,-282.5 889,-282.5 889,-252.5 663,-252.5"/>
<text text-anchor="start" x="670" y="-263.9" font-family="Arial" font-size="14.00" fill="#000000">rental_date </text>
<text text-anchor="start" x="743.9172" y="-263.9" font-family="Arial" font-size="14.00" fill="#666666">[datetime]</text>
<polygon fill="none" stroke="#000000" points="663,-222.5 663,-252.5 889,-252.5 889,-222.5 663,-222.5"/>
<text text-anchor="start" x="669.81" y="-233.9" font-family="Arial" font-size="14.00" fill="#000000">inventory_id </text>
<text text-anchor="start" x="749.1606" y="-233.9" font-family="Arial" font-size="14.00" fill="#666666">[mediumint unsigned]</text>
<polygon fill="none" stroke="#000000" points="663,-192.5 663,-222.5 889,-222.5 889,-192.5 663,-192.5"/>
<text text-anchor="start" x="670" y="-203.9" font-family="Arial" font-size="14.00" fill="#000000">customer_id </text>
<text text-anchor="start" x="750.122" y="-203.9" font-family="Arial" font-size="14.00" fill="#666666">[smallint unsigned]</text>
<polygon fill="none" stroke="#000000" points="663,-162.5 663,-192.5 889,-192.5 889,-162.5 663,-162.5"/>
<text text-anchor="start" x="670" y="-173.9" font-family="Arial" font-size="14.00" fill="#000000">return_date </text>
<text text-anchor="start" x="745.4712" y="-173.9" font-family="Arial" font-size="14.00" fill="#666666">[datetime]</text>
<polygon fill="none" stroke="#000000" points="663,-132.5 663,-162.5 889,-162.5 889,-132.5 663,-132.5"/>
<text text-anchor="start" x="670" y="-143.9" font-family="Arial" font-size="14.00" fill="#000000">staff_id </text>
<text text-anchor="start" x="719.0168" y="-143.9" font-family="Arial" font-size="14.00" fill="#666666">[tinyint unsigned]</text>
<polygon fill="none" stroke="#000000" points="663,-102.5 663,-132.5 889,-132.5 889,-102.5 663,-102.5"/>
<text text-anchor="start" x="670" y="-113.9" font-family="Arial" font-size="14.00" fill="#000000">last_update </text>
<text text-anchor="start" x="746.2566" y="-113.9" font-family="Arial" font-size="14.00" fill="#666666">[timestamp]</text>
</g>
<!-- payment&#45;&gt;rental -->
<g id="edge3" class="edge">
<title>payment:rental_id&#45;&gt;rental:rental_id</title>
<path fill="none" stroke="#000000" d="M572.8133,-635.5033C636.8637,-607.6392 587.7821,-297.5 663,-297.5"/>
<polygon fill="#000000" stroke="#000000" points="572.7992,-635.5061 562.1027,-633.0904 567.8996,-636.503 563,-637.5 563,-637.5 563,-637.5 567.8996,-636.503 563.8973,-641.9096 572.7992,-635.5061 572.7992,-635.5061"/>
<text text-anchor="start" x="569.6065" y="-647.5" font-family="Arial" font-size="10.00" fill="#000000">FOREIGN KEY (rental_id) REFERENCES rental (rental_id)</text>
</g>
</g>
</svg>
