<?xml version="1.0" encoding="UTF-8" standalone="no"?>
<!DOCTYPE svg PUBLIC "-//W3C//DTD SVG 1.1//EN"
 "http://www.w3.org/Graphics/SVG/1.1/DTD/svg11.dtd">
<!-- Generated by graphviz version 2.40.1 (20161225.0304)
 -->
<!-- Title: rental Pages: 1 -->
<svg width="940pt" height="1199pt"
 viewBox="0.00 0.00 940.00 1199.00" xmlns="http://www.w3.org/2000/svg" xmlns:xlink="http://www.w3.org/1999/xlink">
<g id="graph0" class="graph" transform="scale(1 1) rotate(0) translate(4 1195)">
<title>rental</title>
<polygon fill="#ffffff" stroke="transparent" points="-4,4 -4,-1195 936,-1195 936,4 -4,4"/>
<!-- rental -->
<g id="node1" class="node">
<title>rental</title>
<polygon fill="#efefef" stroke="transparent" points="365,-742.5 365,-777.5 591,-777.5 591,-742.5 365,-742.5"/>
<polygon fill="none" stroke="#000000" points="365,-742.5 365,-777.5 591,-777.5 591,-742.5 365,-742.5"/>
<text text-anchor="start" x="406.8695" y="-755.3" font-family="Arial Bold" font-size="18.00" fill="#000000">rental</text>
<text text-anchor="start" x="451.8767" y="-755.3" font-family="Arial" font-size="14.00" fill="#000000"> </text>
<text text-anchor="start" x="455.7673" y="-755.3" font-family="Arial" font-size="14.00" fill="#666666">[BASE TABLE]</text>
<polygon fill="none" stroke="#000000" points="365,-712.5 365,-742.5 591,-742.5 591,-712.5 365,-712.5"/>
<text text-anchor="start" x="372" y="-723.9" font-family="Arial" font-size="14.00" fill="#000000">rental_id </text>
<text text-anchor="start" x="429.568" y="-723.9" font-family="Arial" font-size="14.00" fill="#666666">[int]</text>
<polygon fill="none" stroke="#000000" points="365,-682.5 365,-712.5 591,-712.5 591,-682.5 365,-682.5"/>
<text text-anchor="start" x="372" y="-693.9" font-family="Arial" font-size="14.00" fill="#000000">rental_date </text>
<text text-anchor="start" x="445.9172" y="-693.9" font-family="Arial" font-size="14.00" fill="#666666">[datetime]</text>
<polygon fill="none" stroke="#000000" points="365,-652.5 365,-682.5 591,-682.5 591,-652.5 365,-652.5"/>
<text text-anchor="start" x="371.81" y="-663.9" font-family="Arial" font-size="14.00" fill="#000000">inventory_id </text>
<text text-anchor="start" x="451.1606" y="-663.9" font-family="Arial" font-size="14.00" fill="#666666">[mediumint unsigned]</text>
<polygon fill="none" stroke="#000000" points="365,-622.5 365,-652.5 591,-652.5 591,-622.5 365,-622.5"/>
<text text-anchor="start" x="372" y="-633.9" font-family="Arial" font-size="14.00" fill="#000000">customer_id </text>
<text text-anchor="start" x="452.122" y="-633.9" font-family="Arial" font-size="14.00" fill="#666666">[smallint unsigned]</text>
<polygon fill="none" stroke="#000000" points="365,-592.5 365,-622.5 591,-622.5 591,-592.5 365,-592.5"/>
<text text-anchor="start" x="372" y="-603.9" font-family="Arial" font-size="14.00" fill="#000000">return_date </text>
<text text-anchor="start" x="447.4712" y="-603.9" font-family="Arial" font-size="14.00" fill="#666666">[datetime]</text>
<polygon fill="none" stroke="#000000" points="365,-562.5 365,-592.5 591,-592.5 591,-562.5 365,-562.5"/>
<text text-anchor="start" x="372" y="-573.9" font-family="Arial" font-size="14.00" fill="#000000">staff_id </text>
<text text-anchor="start" x="421.0168" y="-573.9" font-family="Arial" font-size="14.00" fill="#666666">[tinyint unsigned]</text>
<polygon fill="none" stroke="#000000" points="365,-532.5 365,-562.5 591,-562.5 591,-532.5 365,-532.5"/>
<text text-anchor="start" x="372" y="-543.9" font-family="Arial" font-size="14.00" fill="#000000">last_update </text>
<text text-anchor="start" x="448.2566" y="-543.9" font-family="Arial" font-size="14.00" fill="#666666">[timestamp]</text>
<polygon fill="none" stroke="#000000" stroke-width="3" points="363.5,-531.5 363.5,-779.5 592.5,-779.5 592.5,-531.5 363.5,-531.5"/>
</g>
<!-- inventory -->
<g id="node3" class="node">
<title>inventory</title>
<polygon fill="#efefef" stroke="transparent" points="43,-267.5 43,-302.5 269,-302.5 269,-267.5 43,-267.5"/>
<polygon fill="none" stroke="#000000" points="43,-267.5 43,-302.5 269,-302.5 269,-267.5 43,-267.5"/>
<text text-anchor="start" x="70.8664" y="-280.3" font-family="Arial Bold" font-size="18.00" fill="#000000">inventory</text>
<text text-anchor="start" x="143.8798" y="-280.3" font-family="Arial" font-size="14.00" fill="#000000"> </text>
<text text-anchor="start" x="147.7704" y="-280.3" font-family="Arial" font-size="14.00" fill="#666666">[BASE TABLE]</text>
<polygon fill="none" stroke="#000000" points="43,-237.5 43,-267.5 269,-267.5 269,-237.5 43,-237.5"/>
<text text-anchor="start" x="49.81" y="-248.9" font-family="Arial" font-size="14.00" fill="#000000">inventory_id </text>
<text text-anchor="start" x="129.1606" y="-248.9" font-family="Arial" font-size="14.00" fill="#666666">[mediumint unsigned]</text>
<polygon fill="none" stroke="#000000" points="43,-207.5 43,-237.5 269,-237.5 269,-207.5 43,-207.5"/>
<text text-anchor="start" x="50" y="-218.9" font-family="Arial" font-size="14.00" fill="#000000">film_id </text>
<text text-anchor="start" x="94.3268" y="-218.9" font-family="Arial" font-size="14.00" fill="#666666">[smallint unsigned]</text>
<polygon fill="none" stroke="#000000" points="43,-177.5 43,-207.5 269,-207.5 269,-177.5 43,-177.5"/>
<text text-anchor="start" x="50" y="-188.9" font-family="Arial" font-size="14.00" fill="#000000">store_id </text>
<text text-anchor="start" x="103.6788" y="-188.9" font-family="Arial" font-size="14.00" fill="#666666">[tinyint unsigned]</text>
<polygon fill="none" stroke="#000000" points="43,-147.5 43,-177.5 269,-177.5 269,-147.5 43,-147.5"/>
<text text-anchor="start" x="50" y="-158.9" font-family="Arial" font-size="14.00" fill="#000000">last_update </text>
<text text-anchor="start" x="126.2566" y="-158.9" font-family="Arial" font-size="14.00" fill="#666666">[timestamp]</text>
</g>
<!-- rental&#45;&gt;inventory -->
<g id="edge2" class="edge">
<title>rental:inventory_id&#45;&gt;inventory:inventory_id</title>
<path fill="none" stroke="#000000" d="M354.7454,-665.6498C277.3459,-635.7114 359.96,-252.5 269,-252.5"/>
<polygon fill="#000000" stroke="#000000" points="355.1589,-665.7243 364.2009,-671.9285 360.0795,-666.6121 365,-667.5 365,-667.5 365,-667.5 360.0795,-666.6121 365.7991,-663.0715 355.1589,-665.7243 355.1589,-665.7243"/>
<text text-anchor="start" x="49.268" y="-677.5" font-family="Arial" font-size="10.00" fill="#000000">FOREIGN KEY (inventory_id) REFERENCES inventory (inventory_id)</text>
</g>
<!-- customer -->
<g id="node4" class="node">
<title>customer</title>
<polygon fill="#efefef" stroke="transparent" points="373,-342.5 373,-377.5 583,-377.5 583,-342.5 373,-342.5"/>
<polygon fill="none" stroke="#000000" points="373,-342.5 373,-377.5 583,-377.5 583,-342.5 373,-342.5"/>
<text text-anchor="start" x="392.3705" y="-355.3" font-family="Arial Bold" font-size="18.00" fill="#000000">customer</text>
<text text-anchor="start" x="466.3757" y="-355.3" font-family="Arial" font-size="14.00" fill="#000000"> </text>
<text text-anchor="start" x="470.2663" y="-355.3" font-family="Arial" font-size="14.00" fill="#666666">[BASE TABLE]</text>
<polygon fill="none" stroke="#000000" points="373,-312.5 373,-342.5 583,-342.5 583,-312.5 373,-312.5"/>
<text text-anchor="start" x="379.9839" y="-323.9" font-family="Arial" font-size="14.00" fill="#000000">customer_id </text>
<text text-anchor="start" x="460.1059" y="-323.9" font-family="Arial" font-size="14.00" fill="#666666">[smallint unsigned]</text>
<polygon fill="none" stroke="#000000" points="373,-282.5 373,-312.5 583,-312.5 583,-282.5 373,-282.5"/>
<text text-anchor="start" x="380" y="-293.9" font-family="Arial" font-size="14.00" fill="#000000">store_id </text>
<text text-anchor="start" x="433.6788" y="-293.9" font-family="Arial" font-size="14.00" fill="#666666">[tinyint unsigned]</text>
<polygon fill="none" stroke="#000000" points="373,-252.5 373,-282.5 583,-282.5 583,-252.5 373,-252.5"/>
<text text-anchor="start" x="380" y="-263.9" font-family="Arial" font-size="14.00" fill="#000000">first_name </text>
<text text-anchor="start" x="449.23" y="-263.9" font-family="Arial" font-size="14.00" fill="#666666">[varchar(45)]</text>
<polygon fill="none" stroke="#000000" points="373,-222.5 373,-252.5 583,-252.5 583,-222.5 373,-222.5"/>
<text text-anchor="start" x="380" y="-233.9" font-family="Arial" font-size="14.00" fill="#000000">last_name </text>
<text text-anchor="start" x="448.4614" y="-233.9" font-family="Arial" font-size="14.00" fill="#666666">[varchar(45)]</text>
<polygon fill="none" stroke="#000000" points="373,-192.5 373,-222.5 583,-222.5 583,-192.5 373,-192.5"/>
<text text-anchor="start" x="380" y="-203.9" font-family="Arial" font-size="14.00" fill="#000000">email </text>
<text text-anchor="start" x="417.3296" y="-203.9" font-family="Arial" font-size="14.00" fill="#666666">[varchar(50)]</text>
<polygon fill="none" stroke="#000000" points="373,-162.5 373,-192.5 583,-192.5 583,-162.5 373,-162.5"/>
<text text-anchor="start" x="380" y="-173.9" font-family="Arial" font-size="14.00" fill="#000000">address_id </text>
<text text-anchor="start" x="452.3534" y="-173.9" font-family="Arial" font-size="14.00" fill="#666666">[smallint unsigned]</text>
<polygon fill="none" stroke="#000000" points="373,-132.5 373,-162.5 583,-162.5 583,-132.5 373,-132.5"/>
<text text-anchor="start" x="380" y="-143.9" font-family="Arial" font-size="14.00" fill="#000000">active </text>
<text text-anchor="start" x="420.453" y="-143.9" font-family="Arial" font-size="14.00" fill="#666666">[tinyint(1)]</text>
<polygon fill="none" stroke="#000000" points="373,-102.5 373,-132.5 583,-132.5 583,-102.5 373,-102.5"/>
<text text-anchor="start" x="380" y="-113.9" font-family="Arial" font-size="14.00" fill="#000000">create_date </text>
<text text-anchor="start" x="457.8106" y="-113.9" font-family="Arial" font-size="14.00" fill="#666666">[datetime]</text>
<polygon fill="none" stroke="#000000" points="373,-72.5 373,-102.5 583,-102.5 583,-72.5 373,-72.5"/>
<text text-anchor="start" x="380" y="-83.9" font-family="Arial" font-size="14.00" fill="#000000">last_update </text>
<text text-anchor="start" x="456.2566" y="-83.9" font-family="Arial" font-size="14.00" fill="#666666">[timestamp]</text>
</g>
<!-- rental&#45;&gt;customer -->
<g id="edge3" class="edge">
<title>rental:customer_id&#45;&gt;customer:customer_id</title>
<path fill="none" stroke="#000000" d="M598.9527,-631.0252C623.8855,-586.5082 614.4949,-327.5 583,-327.5"/>
<polygon fill="#000000" stroke="#000000" points="598.7548,-631.1863 588.1588,-634.0103 594.8774,-634.3431 591,-637.5 591,-637.5 591,-637.5 594.8774,-634.3431 593.8412,-640.9897 598.7548,-631.1863 598.7548,-631.1863"/>
<text text-anchor="start" x="598.4415" y="-647.5" font-family="Arial" font-size="10.00" fill="#000000">FOREIGN KEY (customer_id) REFERENCES customer (customer_id)</text>
</g>
<!-- staff -->
<g id="node5" class="node">
<title>staff</title>
<polygon fill="#efefef" stroke="transparent" points="687,-372.5 687,-407.5 889,-407.5 889,-372.5 687,-372.5"/>
<polygon fill="none" stroke="#000000" points="687,-372.5 687,-407.5 889,-407.5 889,-372.5 687,-372.5"/>
<text text-anchor="start" x="722.3667" y="-385.3" font-family="Arial Bold" font-size="18.00" fill="#000000">staff</text>
<text text-anchor="start" x="756.3795" y="-385.3" font-family="Arial" font-size="14.00" fill="#000000"> </text>
<text text-anchor="start" x="760.2701" y="-385.3" font-family="Arial" font-size="14.00" fill="#666666">[BASE TABLE]</text>
<polygon fill="none" stroke="#000000" points="687,-342.5 687,-372.5 889,-372.5 889,-342.5 687,-342.5"/>
<text text-anchor="start" x="694" y="-353.9" font-family="Arial" font-size="14.00" fill="#000000">staff_id </text>
<text text-anchor="start" x="743.0168" y="-353.9" font-family="Arial" font-size="14.00" fill="#666666">[tinyint unsigned]</text>
<polygon fill="none" stroke="#000000" points="687,-312.5 687,-342.5 889,-342.5 889,-312.5 687,-312.5"/>
<text text-anchor="start" x="694" y="-323.9" font-family="Arial" font-size="14.00" fill="#000000">first_name </text>
<text text-anchor="start" x="763.23" y="-323.9" font-family="Arial" font-size="14.00" fill="#666666">[varchar(45)]</text>
<polygon fill="none" stroke="#000000" points="687,-282.5 687,-312.5 889,-312.5 889,-282.5 687,-282.5"/>
<text text-anchor="start" x="694" y="-293.9" font-family="Arial" font-size="14.00" fill="#000000">last_name </text>
<text text-anchor="start" x="762.4614" y="-293.9" font-family="Arial" font-size="14.00" fill="#666666">[varchar(45)]</text>
<polygon fill="none" stroke="#000000" points="687,-252.5 687,-282.5 889,-282.5 889,-252.5 687,-252.5"/>
<text text-anchor="start" x="693.8682" y="-263.9" font-family="Arial" font-size="14.00" fill="#000000">address_id </text>
<text text-anchor="start" x="766.2216" y="-263.9" font-family="Arial" font-size="14.00" fill="#666666">[smallint unsigned]</text>
<polygon fill="none" stroke="#000000" points="687,-222.5 687,-252.5 889,-252.5 889,-222.5 687,-222.5"/>
<text text-anchor="start" x="694" y="-233.9" font-family="Arial" font-size="14.00" fill="#000000">picture </text>
<text text-anchor="start" x="739.8962" y="-233.9" font-family="Arial" font-size="14.00" fill="#666666">[blob]</text>
<polygon fill="none" stroke="#000000" points="687,-192.5 687,-222.5 889,-222.5 889,-192.5 687,-192.5"/>
<text text-anchor="start" x="694" y="-203.9" font-family="Arial" font-size="14.00" fill="#000000">email </text>
<text text-anchor="start" x="731.3296" y="-203.9" font-family="Arial" font-size="14.00" fill="#666666">[varchar(50)]</text>
<polygon fill="none" stroke="#000000" points="687,-162.5 687,-192.5 889,-192.5 889,-162.5 687,-162.5"/>
<text text-anchor="start" x="694" y="-173.9" font-family="Arial" font-size="14.00" fill="#000000">store_id </text>
<text text-anchor="start" x="747.6788" y="-173.9" font-family="Arial" font-size="14.00" fill="#666666">[tinyint unsigned]</text>
<polygon fill="none" stroke="#000000" points="687,-132.5 687,-162.5 889,-162.5 889,-132.5 687,-132.5"/>
<text text-anchor="start" x="694" y="-143.9" font-family="Arial" font-size="14.00" fill="#000000">active </text>
<text text-anchor="start" x="734.453" y="-143.9" font-family="Arial" font-size="14.00" fill="#666666">[tinyint(1)]</text>
<polygon fill="none" stroke="#000000" points="687,-102.5 687,-132.5 889,-132.5 889,-102.5 687,-102.5"/>
<text text-anchor="start" x="694" y="-113.9" font-family="Arial" font-size="14.00" fill="#000000">username </text>
<text text-anchor="start" x="760.1248" y="-113.9" font-family="Arial" font-size="14.00" fill="#666666">[varchar(16)]</text>
<polygon fill="none" stroke="#000000" points="687,-72.5 687,-102.5 889,-102.5 889,-72.5 687,-72.5"/>
<text text-anchor="start" x="694" y="-83.9" font-family="Arial" font-size="14.00" fill="#000000">password </text>
<text text-anchor="start" x="757.7882" y="-83.9" font-family="Arial" font-size="14.00" fill="#666666">[varchar(40)]</text>
<polygon fill="none" stroke="#000000" points="687,-42.5 687,-72.5 889,-72.5 889,-42.5 687,-42.5"/>
<text text-anchor="start" x="694" y="-53.9" font-family="Arial" font-size="14.00" fill="#000000">last_update </text>
<text text-anchor="start" x="770.2566" y="-53.9" font-family="Arial" font-size="14.00" fill="#666666">[timestamp]</text>
</g>
<!-- rental&#45;&gt;staff -->
<g id="edge4" class="edge">
<title>rental:staff_id&#45;&gt;staff:staff_id</title>
<path fill="none" stroke="#000000" d="M601.1717,-576.7465C689.9204,-562.718 583.9649,-357.5 687,-357.5"/>
<polygon fill="#000000" stroke="#000000" points="600.9727,-576.7612 590.6675,-573.0123 595.9863,-577.1306 591,-577.5 591,-577.5 591,-577.5 595.9863,-577.1306 591.3325,-581.9877 600.9727,-576.7612 600.9727,-576.7612"/>
<text text-anchor="start" x="597.7685" y="-587.5" font-family="Arial" font-size="10.00" fill="#000000">FOREIGN KEY (staff_id) REFERENCES staff (staff_id)</text>
</g>
<!-- payment -->
<g id="node2" class="node">
<title>payment</title>
<polygon fill="#efefef" stroke="transparent" points="373,-1112.5 373,-1147.5 583,-1147.5 583,-1112.5 373,-1112.5"/>
<polygon fill="none" stroke="#000000" points="373,-1112.5 373,-1147.5 583,-1147.5 583,-1112.5 373,-1112.5"/>
<text text-anchor="start" x="394.8635" y="-1125.3" font-family="Arial Bold" font-size="18.00" fill="#000000">payment</text>
<text text-anchor="start" x="463.8827" y="-1125.3" font-family="Arial" font-size="14.00" fill="#000000"> </text>
<text text-anchor="start" x="467.7733" y="-1125.3" font-family="Arial" font-size="14.00" fill="#666666">[BASE TABLE]</text>
<polygon fill="none" stroke="#000000" points="373,-1082.5 373,-1112.5 583,-1112.5 583,-1082.5 373,-1082.5"/>
<text text-anchor="start" x="380" y="-1093.9" font-family="Arial" font-size="14.00" fill="#000000">payment_id </text>
<text text-anchor="start" x="456.244" y="-1093.9" font-family="Arial" font-size="14.00" fill="#666666">[smallint unsigned]</text>
<polygon fill="none" stroke="#000000" points="373,-1052.5 373,-1082.5 583,-1082.5 583,-1052.5 373,-1052.5"/>
<text text-anchor="start" x="379.9839" y="-1063.9" font-family="Arial" font-size="14.00" fill="#000000">customer_id </text>
<text text-anchor="start" x="460.1059" y="-1063.9" font-family="Arial" font-size="14.00" fill="#666666">[smallint unsigned]</text>
<polygon fill="none" stroke="#000000" points="373,-1022.5 373,-1052.5 583,-1052.5 583,-1022.5 373,-1022.5"/>
<text text-anchor="start" x="380" y="-1033.9" font-family="Arial" font-size="14.00" fill="#000000">staff_id </text>
<text text-anchor="start" x="429.0168" y="-1033.9" font-family="Arial" font-size="14.00" fill="#666666">[tinyint unsigned]</text>
<polygon fill="none" stroke="#000000" points="373,-992.5 373,-1022.5 583,-1022.5 583,-992.5 373,-992.5"/>
<text text-anchor="start" x="380" y="-1003.9" font-family="Arial" font-size="14.00" fill="#000000">rental_id </text>
<text text-anchor="start" x="437.568" y="-1003.9" font-family="Arial" font-size="14.00" fill="#666666">[int]</text>
<polygon fill="none" stroke="#000000" points="373,-962.5 373,-992.5 583,-992.5 583,-962.5 373,-962.5"/>
<text text-anchor="start" x="380" y="-973.9" font-family="Arial" font-size="14.00" fill="#000000">amount </text>
<text text-anchor="start" x="430.5722" y="-973.9" font-family="Arial" font-size="14.00" fill="#666666">[decimal(5,2)]</text>
<polygon fill="none" stroke="#000000" points="373,-932.5 373,-962.5 583,-962.5 583,-932.5 373,-932.5"/>
<text text-anchor="start" x="380" y="-943.9" font-family="Arial" font-size="14.00" fill="#000000">payment_date </text>
<text text-anchor="start" x="472.5932" y="-943.9" font-family="Arial" font-size="14.00" fill="#666666">[datetime]</text>
<polygon fill="none" stroke="#000000" points="373,-902.5 373,-932.5 583,-932.5 583,-902.5 373,-902.5"/>
<text text-anchor="start" x="380" y="-913.9" font-family="Arial" font-size="14.00" fill="#000000">last_update </text>
<text text-anchor="start" x="456.2566" y="-913.9" font-family="Arial" font-size="14.00" fill="#666666">[timestamp]</text>
</g>
<!-- payment&#45;&gt;rental -->
<g id="edge1" class="edge">
<title>payment:rental_id&#45;&gt;rental:rental_id</title>
<path fill="none" stroke="#000000" d="M593.2966,-1006.839C707.8421,-991.8652 711.9695,-727.5 591,-727.5"/>
<polygon fill="#000000" stroke="#000000" points="592.9795,-1006.8593 582.7117,-1003.0092 587.9897,-1007.1796 583,-1007.5 583,-1007.5 583,-1007.5 587.9897,-1007.1796 583.2883,-1011.9908 592.9795,-1006.8593 592.9795,-1006.8593"/>
<text text-anchor="start" x="589.6065" y="-1017.5" font-family="Arial" font-size="10.00" fill="#000000">FOREIGN KEY (rental_id) REFERENCES rental (rental_id)</text>
</g>
</g>
</svg>
