<?xml version="1.0" encoding="UTF-8" standalone="no"?>
<!DOCTYPE svg PUBLIC "-//W3C//DTD SVG 1.1//EN"
 "http://www.w3.org/Graphics/SVG/1.1/DTD/svg11.dtd">
<!-- Generated by graphviz version 2.40.1 (20161225.0304)
 -->
<!-- Title: staff Pages: 1 -->
<svg width="841pt" height="1259pt"
 viewBox="0.00 0.00 841.00 1259.00" xmlns="http://www.w3.org/2000/svg" xmlns:xlink="http://www.w3.org/1999/xlink">
<g id="graph0" class="graph" transform="scale(1 1) rotate(0) translate(4 1255)">
<title>staff</title>
<polygon fill="#ffffff" stroke="transparent" points="-4,4 -4,-1255 837,-1255 837,4 -4,4"/>
<!-- staff -->
<g id="node1" class="node">
<title>staff</title>
<polygon fill="#efefef" stroke="transparent" points="268,-802.5 268,-837.5 470,-837.5 470,-802.5 268,-802.5"/>
<polygon fill="none" stroke="#000000" points="268,-802.5 268,-837.5 470,-837.5 470,-802.5 268,-802.5"/>
<text text-anchor="start" x="303.3667" y="-815.3" font-family="Arial Bold" font-size="18.00" fill="#000000">staff</text>
<text text-anchor="start" x="337.3795" y="-815.3" font-family="Arial" font-size="14.00" fill="#000000"> </text>
<text text-anchor="start" x="341.2701" y="-815.3" font-family="Arial" font-size="14.00" fill="#666666">[BASE TABLE]</text>
<polygon fill="none" stroke="#000000" points="268,-772.5 268,-802.5 470,-802.5 470,-772.5 268,-772.5"/>
<text text-anchor="start" x="275" y="-783.9" font-family="Arial" font-size="14.00" fill="#000000">staff_id </text>
<text text-anchor="start" x="324.0168" y="-783.9" font-family="Arial" font-size="14.00" fill="#666666">[tinyint unsigned]</text>
<polygon fill="none" stroke="#000000" points="268,-742.5 268,-772.5 470,-772.5 470,-742.5 268,-742.5"/>
<text text-anchor="start" x="275" y="-753.9" font-family="Arial" font-size="14.00" fill="#000000">first_name </text>
<text text-anchor="start" x="344.23" y="-753.9" font-family="Arial" font-size="14.00" fill="#666666">[varchar(45)]</text>
<polygon fill="none" stroke="#000000" points="268,-712.5 268,-742.5 470,-742.5 470,-712.5 268,-712.5"/>
<text text-anchor="start" x="275" y="-723.9" font-family="Arial" font-size="14.00" fill="#000000">last_name </text>
<text text-anchor="start" x="343.4614" y="-723.9" font-family="Arial" font-size="14.00" fill="#666666">[varchar(45)]</text>
<polygon fill="none" stroke="#000000" points="268,-682.5 268,-712.5 470,-712.5 470,-682.5 268,-682.5"/>
<text text-anchor="start" x="274.8682" y="-693.9" font-family="Arial" font-size="14.00" fill="#000000">address_id </text>
<text text-anchor="start" x="347.2216" y="-693.9" font-family="Arial" font-size="14.00" fill="#666666">[smallint unsigned]</text>
<polygon fill="none" stroke="#000000" points="268,-652.5 268,-682.5 470,-682.5 470,-652.5 268,-652.5"/>
<text text-anchor="start" x="275" y="-663.9" font-family="Arial" font-size="14.00" fill="#000000">picture </text>
<text text-anchor="start" x="320.8962" y="-663.9" font-family="Arial" font-size="14.00" fill="#666666">[blob]</text>
<polygon fill="none" stroke="#000000" points="268,-622.5 268,-652.5 470,-652.5 470,-622.5 268,-622.5"/>
<text text-anchor="start" x="275" y="-633.9" font-family="Arial" font-size="14.00" fill="#000000">email </text>
<text text-anchor="start" x="312.3296" y="-633.9" font-family="Arial" font-size="14.00" fill="#666666">[varchar(50)]</text>
<polygon fill="none" stroke="#000000" points="268,-592.5 268,-622.5 470,-622.5 470,-592.5 268,-592.5"/>
<text text-anchor="start" x="275" y="-603.9" font-family="Arial" font-size="14.00" fill="#000000">store_id </text>
<text text-anchor="start" x="328.6788" y="-603.9" font-family="Arial" font-size="14.00" fill="#666666">[tinyint unsigned]</text>
<polygon fill="none" stroke="#000000" points="268,-562.5 268,-592.5 470,-592.5 470,-562.5 268,-562.5"/>
<text text-anchor="start" x="275" y="-573.9" font-family="Arial" font-size="14.00" fill="#000000">active </text>
<text text-anchor="start" x="315.453" y="-573.9" font-family="Arial" font-size="14.00" fill="#666666">[tinyint(1)]</text>
<polygon fill="none" stroke="#000000" points="268,-532.5 268,-562.5 470,-562.5 470,-532.5 268,-532.5"/>
<text text-anchor="start" x="275" y="-543.9" font-family="Arial" font-size="14.00" fill="#000000">username </text>
<text text-anchor="start" x="341.1248" y="-543.9" font-family="Arial" font-size="14.00" fill="#666666">[varchar(16)]</text>
<polygon fill="none" stroke="#000000" points="268,-502.5 268,-532.5 470,-532.5 470,-502.5 268,-502.5"/>
<text text-anchor="start" x="275" y="-513.9" font-family="Arial" font-size="14.00" fill="#000000">password </text>
<text text-anchor="start" x="338.7882" y="-513.9" font-family="Arial" font-size="14.00" fill="#666666">[varchar(40)]</text>
<polygon fill="none" stroke="#000000" points="268,-472.5 268,-502.5 470,-502.5 470,-472.5 268,-472.5"/>
<text text-anchor="start" x="275" y="-483.9" font-family="Arial" font-size="14.00" fill="#000000">last_update </text>
<text text-anchor="start" x="351.2566" y="-483.9" font-family="Arial" font-size="14.00" fill="#666666">[timestamp]</text>
<polygon fill="none" stroke="#000000" stroke-width="3" points="266.5,-471.5 266.5,-839.5 471.5,-839.5 471.5,-471.5 266.5,-471.5"/>
</g>
<!-- store -->
<g id="node4" class="node">
<title>store</title>
<polygon fill="#efefef" stroke="transparent" points="253,-237.5 253,-272.5 484,-272.5 484,-237.5 253,-237.5"/>
<polygon fill="none" stroke="#000000" points="253,-237.5 253,-272.5 484,-272.5 484,-237.5 253,-237.5"/>
<text text-anchor="start" x="299.8697" y="-250.3" font-family="Arial Bold" font-size="18.00" fill="#000000">store</text>
<text text-anchor="start" x="339.8765" y="-250.3" font-family="Arial" font-size="14.00" fill="#000000"> </text>
<text text-anchor="start" x="343.7671" y="-250.3" font-family="Arial" font-size="14.00" fill="#666666">[BASE TABLE]</text>
<polygon fill="none" stroke="#000000" points="253,-207.5 253,-237.5 484,-237.5 484,-207.5 253,-207.5"/>
<text text-anchor="start" x="260" y="-218.9" font-family="Arial" font-size="14.00" fill="#000000">store_id </text>
<text text-anchor="start" x="313.6788" y="-218.9" font-family="Arial" font-size="14.00" fill="#666666">[tinyint unsigned]</text>
<polygon fill="none" stroke="#000000" points="253,-177.5 253,-207.5 484,-207.5 484,-177.5 253,-177.5"/>
<text text-anchor="start" x="259.9664" y="-188.9" font-family="Arial" font-size="14.00" fill="#000000">manager_staff_id </text>
<text text-anchor="start" x="372" y="-188.9" font-family="Arial" font-size="14.00" fill="#666666">[tinyint unsigned]</text>
<polygon fill="none" stroke="#000000" points="253,-147.5 253,-177.5 484,-177.5 484,-147.5 253,-147.5"/>
<text text-anchor="start" x="260" y="-158.9" font-family="Arial" font-size="14.00" fill="#000000">address_id </text>
<text text-anchor="start" x="332.3534" y="-158.9" font-family="Arial" font-size="14.00" fill="#666666">[smallint unsigned]</text>
<polygon fill="none" stroke="#000000" points="253,-117.5 253,-147.5 484,-147.5 484,-117.5 253,-117.5"/>
<text text-anchor="start" x="260" y="-128.9" font-family="Arial" font-size="14.00" fill="#000000">last_update </text>
<text text-anchor="start" x="336.2566" y="-128.9" font-family="Arial" font-size="14.00" fill="#666666">[timestamp]</text>
</g>
<!-- staff&#45;&gt;store -->
<g id="edge5" class="edge">
<title>staff:store_id&#45;&gt;store:store_id</title>
<path fill="none" stroke="#000000" d="M257.8966,-606.8359C191.2368,-597.523 228.08,-492.3971 268,-427 324.2362,-334.8737 427.7638,-408.1263 484,-316 505.6514,-280.5306 525.5556,-222.5 484,-222.5"/>
<polygon fill="#000000" stroke="#000000" points="258.0215,-606.844 267.7048,-611.9903 263.0108,-607.172 268,-607.5 268,-607.5 268,-607.5 263.0108,-607.172 268.2952,-603.0097 258.0215,-606.844 258.0215,-606.844"/>
<text text-anchor="start" x="6.7735" y="-617.5" font-family="Arial" font-size="10.00" fill="#000000">FOREIGN KEY (store_id) REFERENCES store (store_id)</text>
</g>
<!-- address -->
<g id="node5" class="node">
<title>address</title>
<polygon fill="#efefef" stroke="transparent" points="588,-312.5 588,-347.5 790,-347.5 790,-312.5 588,-312.5"/>
<polygon fill="none" stroke="#000000" points="588,-312.5 588,-347.5 790,-347.5 790,-312.5 588,-312.5"/>
<text text-anchor="start" x="608.3646" y="-325.3" font-family="Arial Bold" font-size="18.00" fill="#000000">address</text>
<text text-anchor="start" x="672.3816" y="-325.3" font-family="Arial" font-size="14.00" fill="#000000"> </text>
<text text-anchor="start" x="676.2722" y="-325.3" font-family="Arial" font-size="14.00" fill="#666666">[BASE TABLE]</text>
<polygon fill="none" stroke="#000000" points="588,-282.5 588,-312.5 790,-312.5 790,-282.5 588,-282.5"/>
<text text-anchor="start" x="594.8682" y="-293.9" font-family="Arial" font-size="14.00" fill="#000000">address_id </text>
<text text-anchor="start" x="667.2216" y="-293.9" font-family="Arial" font-size="14.00" fill="#666666">[smallint unsigned]</text>
<polygon fill="none" stroke="#000000" points="588,-252.5 588,-282.5 790,-282.5 790,-252.5 588,-252.5"/>
<text text-anchor="start" x="595" y="-263.9" font-family="Arial" font-size="14.00" fill="#000000">address </text>
<text text-anchor="start" x="648.6816" y="-263.9" font-family="Arial" font-size="14.00" fill="#666666">[varchar(50)]</text>
<polygon fill="none" stroke="#000000" points="588,-222.5 588,-252.5 790,-252.5 790,-222.5 588,-222.5"/>
<text text-anchor="start" x="595" y="-233.9" font-family="Arial" font-size="14.00" fill="#000000">address2 </text>
<text text-anchor="start" x="656.4642" y="-233.9" font-family="Arial" font-size="14.00" fill="#666666">[varchar(50)]</text>
<polygon fill="none" stroke="#000000" points="588,-192.5 588,-222.5 790,-222.5 790,-192.5 588,-192.5"/>
<text text-anchor="start" x="595" y="-203.9" font-family="Arial" font-size="14.00" fill="#000000">district </text>
<text text-anchor="start" x="639.3282" y="-203.9" font-family="Arial" font-size="14.00" fill="#666666">[varchar(20)]</text>
<polygon fill="none" stroke="#000000" points="588,-162.5 588,-192.5 790,-192.5 790,-162.5 588,-162.5"/>
<text text-anchor="start" x="595" y="-173.9" font-family="Arial" font-size="14.00" fill="#000000">city_id </text>
<text text-anchor="start" x="638.5596" y="-173.9" font-family="Arial" font-size="14.00" fill="#666666">[smallint unsigned]</text>
<polygon fill="none" stroke="#000000" points="588,-132.5 588,-162.5 790,-162.5 790,-132.5 588,-132.5"/>
<text text-anchor="start" x="595" y="-143.9" font-family="Arial" font-size="14.00" fill="#000000">postal_code </text>
<text text-anchor="start" x="674.366" y="-143.9" font-family="Arial" font-size="14.00" fill="#666666">[varchar(10)]</text>
<polygon fill="none" stroke="#000000" points="588,-102.5 588,-132.5 790,-132.5 790,-102.5 588,-102.5"/>
<text text-anchor="start" x="595" y="-113.9" font-family="Arial" font-size="14.00" fill="#000000">phone </text>
<text text-anchor="start" x="637.8036" y="-113.9" font-family="Arial" font-size="14.00" fill="#666666">[varchar(20)]</text>
<polygon fill="none" stroke="#000000" points="588,-72.5 588,-102.5 790,-102.5 790,-72.5 588,-72.5"/>
<text text-anchor="start" x="595" y="-83.9" font-family="Arial" font-size="14.00" fill="#000000">location </text>
<text text-anchor="start" x="647.1248" y="-83.9" font-family="Arial" font-size="14.00" fill="#666666">[geometry]</text>
<polygon fill="none" stroke="#000000" points="588,-42.5 588,-72.5 790,-72.5 790,-42.5 588,-42.5"/>
<text text-anchor="start" x="595" y="-53.9" font-family="Arial" font-size="14.00" fill="#000000">last_update </text>
<text text-anchor="start" x="671.2566" y="-53.9" font-family="Arial" font-size="14.00" fill="#666666">[timestamp]</text>
</g>
<!-- staff&#45;&gt;address -->
<g id="edge4" class="edge">
<title>staff:address_id&#45;&gt;address:address_id</title>
<path fill="none" stroke="#000000" d="M480.147,-695.7166C557.6583,-666.8604 498.9442,-297.5 588,-297.5"/>
<polygon fill="#000000" stroke="#000000" points="479.849,-695.7689 469.221,-693.0679 474.9245,-696.6345 470,-697.5 470,-697.5 470,-697.5 474.9245,-696.6345 470.779,-701.9321 479.849,-695.7689 479.849,-695.7689"/>
<text text-anchor="start" x="476.765" y="-707.5" font-family="Arial" font-size="10.00" fill="#000000">FOREIGN KEY (address_id) REFERENCES address (address_id)</text>
</g>
<!-- payment -->
<g id="node2" class="node">
<title>payment</title>
<polygon fill="#efefef" stroke="transparent" points="103,-1172.5 103,-1207.5 313,-1207.5 313,-1172.5 103,-1172.5"/>
<polygon fill="none" stroke="#000000" points="103,-1172.5 103,-1207.5 313,-1207.5 313,-1172.5 103,-1172.5"/>
<text text-anchor="start" x="124.8635" y="-1185.3" font-family="Arial Bold" font-size="18.00" fill="#000000">payment</text>
<text text-anchor="start" x="193.8827" y="-1185.3" font-family="Arial" font-size="14.00" fill="#000000"> </text>
<text text-anchor="start" x="197.7733" y="-1185.3" font-family="Arial" font-size="14.00" fill="#666666">[BASE TABLE]</text>
<polygon fill="none" stroke="#000000" points="103,-1142.5 103,-1172.5 313,-1172.5 313,-1142.5 103,-1142.5"/>
<text text-anchor="start" x="110" y="-1153.9" font-family="Arial" font-size="14.00" fill="#000000">payment_id </text>
<text text-anchor="start" x="186.244" y="-1153.9" font-family="Arial" font-size="14.00" fill="#666666">[smallint unsigned]</text>
<polygon fill="none" stroke="#000000" points="103,-1112.5 103,-1142.5 313,-1142.5 313,-1112.5 103,-1112.5"/>
<text text-anchor="start" x="109.9839" y="-1123.9" font-family="Arial" font-size="14.00" fill="#000000">customer_id </text>
<text text-anchor="start" x="190.1059" y="-1123.9" font-family="Arial" font-size="14.00" fill="#666666">[smallint unsigned]</text>
<polygon fill="none" stroke="#000000" points="103,-1082.5 103,-1112.5 313,-1112.5 313,-1082.5 103,-1082.5"/>
<text text-anchor="start" x="110" y="-1093.9" font-family="Arial" font-size="14.00" fill="#000000">staff_id </text>
<text text-anchor="start" x="159.0168" y="-1093.9" font-family="Arial" font-size="14.00" fill="#666666">[tinyint unsigned]</text>
<polygon fill="none" stroke="#000000" points="103,-1052.5 103,-1082.5 313,-1082.5 313,-1052.5 103,-1052.5"/>
<text text-anchor="start" x="110" y="-1063.9" font-family="Arial" font-size="14.00" fill="#000000">rental_id </text>
<text text-anchor="start" x="167.568" y="-1063.9" font-family="Arial" font-size="14.00" fill="#666666">[int]</text>
<polygon fill="none" stroke="#000000" points="103,-1022.5 103,-1052.5 313,-1052.5 313,-1022.5 103,-1022.5"/>
<text text-anchor="start" x="110" y="-1033.9" font-family="Arial" font-size="14.00" fill="#000000">amount </text>
<text text-anchor="start" x="160.5722" y="-1033.9" font-family="Arial" font-size="14.00" fill="#666666">[decimal(5,2)]</text>
<polygon fill="none" stroke="#000000" points="103,-992.5 103,-1022.5 313,-1022.5 313,-992.5 103,-992.5"/>
<text text-anchor="start" x="110" y="-1003.9" font-family="Arial" font-size="14.00" fill="#000000">payment_date </text>
<text text-anchor="start" x="202.5932" y="-1003.9" font-family="Arial" font-size="14.00" fill="#666666">[datetime]</text>
<polygon fill="none" stroke="#000000" points="103,-962.5 103,-992.5 313,-992.5 313,-962.5 103,-962.5"/>
<text text-anchor="start" x="110" y="-973.9" font-family="Arial" font-size="14.00" fill="#000000">last_update </text>
<text text-anchor="start" x="186.2566" y="-973.9" font-family="Arial" font-size="14.00" fill="#666666">[timestamp]</text>
</g>
<!-- payment&#45;&gt;staff -->
<g id="edge1" class="edge">
<title>payment:staff_id&#45;&gt;staff:staff_id</title>
<path fill="none" stroke="#000000" d="M323.2928,-1096.8132C387.72,-1087.6028 345.5719,-987.7699 313,-920 301.905,-896.9154 279.095,-907.0846 268,-884 249.421,-845.3441 225.1111,-787.5 268,-787.5"/>
<polygon fill="#000000" stroke="#000000" points="322.9778,-1096.8342 312.7004,-1093.01 317.9889,-1097.1671 313,-1097.5 313,-1097.5 313,-1097.5 317.9889,-1097.1671 313.2996,-1101.99 322.9778,-1096.8342 322.9778,-1096.8342"/>
<text text-anchor="start" x="319.7685" y="-1107.5" font-family="Arial" font-size="10.00" fill="#000000">FOREIGN KEY (staff_id) REFERENCES staff (staff_id)</text>
</g>
<!-- rental -->
<g id="node3" class="node">
<title>rental</title>
<polygon fill="#efefef" stroke="transparent" points="417,-1172.5 417,-1207.5 643,-1207.5 643,-1172.5 417,-1172.5"/>
<polygon fill="none" stroke="#000000" points="417,-1172.5 417,-1207.5 643,-1207.5 643,-1172.5 417,-1172.5"/>
<text text-anchor="start" x="458.8695" y="-1185.3" font-family="Arial Bold" font-size="18.00" fill="#000000">rental</text>
<text text-anchor="start" x="503.8767" y="-1185.3" font-family="Arial" font-size="14.00" fill="#000000"> </text>
<text text-anchor="start" x="507.7673" y="-1185.3" font-family="Arial" font-size="14.00" fill="#666666">[BASE TABLE]</text>
<polygon fill="none" stroke="#000000" points="417,-1142.5 417,-1172.5 643,-1172.5 643,-1142.5 417,-1142.5"/>
<text text-anchor="start" x="424" y="-1153.9" font-family="Arial" font-size="14.00" fill="#000000">rental_id </text>
<text text-anchor="start" x="481.568" y="-1153.9" font-family="Arial" font-size="14.00" fill="#666666">[int]</text>
<polygon fill="none" stroke="#000000" points="417,-1112.5 417,-1142.5 643,-1142.5 643,-1112.5 417,-1112.5"/>
<text text-anchor="start" x="424" y="-1123.9" font-family="Arial" font-size="14.00" fill="#000000">rental_date </text>
<text text-anchor="start" x="497.9172" y="-1123.9" font-family="Arial" font-size="14.00" fill="#666666">[datetime]</text>
<polygon fill="none" stroke="#000000" points="417,-1082.5 417,-1112.5 643,-1112.5 643,-1082.5 417,-1082.5"/>
<text text-anchor="start" x="423.81" y="-1093.9" font-family="Arial" font-size="14.00" fill="#000000">inventory_id </text>
<text text-anchor="start" x="503.1606" y="-1093.9" font-family="Arial" font-size="14.00" fill="#666666">[mediumint unsigned]</text>
<polygon fill="none" stroke="#000000" points="417,-1052.5 417,-1082.5 643,-1082.5 643,-1052.5 417,-1052.5"/>
<text text-anchor="start" x="424" y="-1063.9" font-family="Arial" font-size="14.00" fill="#000000">customer_id </text>
<text text-anchor="start" x="504.122" y="-1063.9" font-family="Arial" font-size="14.00" fill="#666666">[smallint unsigned]</text>
<polygon fill="none" stroke="#000000" points="417,-1022.5 417,-1052.5 643,-1052.5 643,-1022.5 417,-1022.5"/>
<text text-anchor="start" x="424" y="-1033.9" font-family="Arial" font-size="14.00" fill="#000000">return_date </text>
<text text-anchor="start" x="499.4712" y="-1033.9" font-family="Arial" font-size="14.00" fill="#666666">[datetime]</text>
<polygon fill="none" stroke="#000000" points="417,-992.5 417,-1022.5 643,-1022.5 643,-992.5 417,-992.5"/>
<text text-anchor="start" x="424" y="-1003.9" font-family="Arial" font-size="14.00" fill="#000000">staff_id </text>
<text text-anchor="start" x="473.0168" y="-1003.9" font-family="Arial" font-size="14.00" fill="#666666">[tinyint unsigned]</text>
<polygon fill="none" stroke="#000000" points="417,-962.5 417,-992.5 643,-992.5 643,-962.5 417,-962.5"/>
<text text-anchor="start" x="424" y="-973.9" font-family="Arial" font-size="14.00" fill="#000000">last_update </text>
<text text-anchor="start" x="500.2566" y="-973.9" font-family="Arial" font-size="14.00" fill="#666666">[timestamp]</text>
</g>
<!-- rental&#45;&gt;staff -->
<g id="edge2" class="edge">
<title>rental:staff_id&#45;&gt;staff:staff_id</title>
<path fill="none" stroke="#000000" d="M406.9296,-1005.9311C382.2876,-996.9008 400.6472,-950.8761 417,-920 430.3277,-894.8358 456.6723,-909.1642 470,-884 490.0736,-846.0987 512.8889,-787.5 470,-787.5"/>
<polygon fill="#000000" stroke="#000000" points="407.1192,-1005.9606 416.3073,-1011.9464 412.0596,-1006.7303 417,-1007.5 417,-1007.5 417,-1007.5 412.0596,-1006.7303 417.6927,-1003.0536 407.1192,-1005.9606 407.1192,-1005.9606"/>
<text text-anchor="start" x="423.7685" y="-1017.5" font-family="Arial" font-size="10.00" fill="#000000">FOREIGN KEY (staff_id) REFERENCES staff (staff_id)</text>
</g>
<!-- store&#45;&gt;staff -->
<g id="edge3" class="edge">
<title>store:manager_staff_id&#45;&gt;staff:staff_id</title>
<path fill="none" stroke="#000000" d="M494.1437,-193.5406C535.2837,-202.8402 510.6434,-272.3526 484,-316 427.7638,-408.1263 324.2362,-334.8737 268,-427 184.5204,-563.7564 107.7778,-787.5 268,-787.5"/>
<polygon fill="#000000" stroke="#000000" points="493.9478,-193.5205 484.4592,-188.0235 488.9739,-193.0103 484,-192.5 484,-192.5 484,-192.5 488.9739,-193.0103 483.5408,-196.9765 493.9478,-193.5205 493.9478,-193.5205"/>
<text text-anchor="start" x="188.2625" y="-202.5" font-family="Arial" font-size="10.00" fill="#000000">FOREIGN KEY (manager_staff_id) REFERENCES staff (staff_id)</text>
</g>
</g>
</svg>
