<?xml version="1.0" encoding="UTF-8" standalone="no"?>
<!DOCTYPE svg PUBLIC "-//W3C//DTD SVG 1.1//EN"
 "http://www.w3.org/Graphics/SVG/1.1/DTD/svg11.dtd">
<!-- Generated by graphviz version 2.40.1 (20161225.0304)
 -->
<!-- Title: store Pages: 1 -->
<svg width="827pt" height="1169pt"
 viewBox="0.00 0.00 827.00 1169.00" xmlns="http://www.w3.org/2000/svg" xmlns:xlink="http://www.w3.org/1999/xlink">
<g id="graph0" class="graph" transform="scale(1 1) rotate(0) translate(4 1165)">
<title>store</title>
<polygon fill="#ffffff" stroke="transparent" points="-4,4 -4,-1165 823,-1165 823,4 -4,4"/>
<!-- store -->
<g id="node1" class="node">
<title>store</title>
<polygon fill="#efefef" stroke="transparent" points="253,-652.5 253,-687.5 484,-687.5 484,-652.5 253,-652.5"/>
<polygon fill="none" stroke="#000000" points="253,-652.5 253,-687.5 484,-687.5 484,-652.5 253,-652.5"/>
<text text-anchor="start" x="299.8697" y="-665.3" font-family="Arial Bold" font-size="18.00" fill="#000000">store</text>
<text text-anchor="start" x="339.8765" y="-665.3" font-family="Arial" font-size="14.00" fill="#000000"> </text>
<text text-anchor="start" x="343.7671" y="-665.3" font-family="Arial" font-size="14.00" fill="#666666">[BASE TABLE]</text>
<polygon fill="none" stroke="#000000" points="253,-622.5 253,-652.5 484,-652.5 484,-622.5 253,-622.5"/>
<text text-anchor="start" x="260" y="-633.9" font-family="Arial" font-size="14.00" fill="#000000">store_id </text>
<text text-anchor="start" x="313.6788" y="-633.9" font-family="Arial" font-size="14.00" fill="#666666">[tinyint unsigned]</text>
<polygon fill="none" stroke="#000000" points="253,-592.5 253,-622.5 484,-622.5 484,-592.5 253,-592.5"/>
<text text-anchor="start" x="259.9664" y="-603.9" font-family="Arial" font-size="14.00" fill="#000000">manager_staff_id </text>
<text text-anchor="start" x="372" y="-603.9" font-family="Arial" font-size="14.00" fill="#666666">[tinyint unsigned]</text>
<polygon fill="none" stroke="#000000" points="253,-562.5 253,-592.5 484,-592.5 484,-562.5 253,-562.5"/>
<text text-anchor="start" x="260" y="-573.9" font-family="Arial" font-size="14.00" fill="#000000">address_id </text>
<text text-anchor="start" x="332.3534" y="-573.9" font-family="Arial" font-size="14.00" fill="#666666">[smallint unsigned]</text>
<polygon fill="none" stroke="#000000" points="253,-532.5 253,-562.5 484,-562.5 484,-532.5 253,-532.5"/>
<text text-anchor="start" x="260" y="-543.9" font-family="Arial" font-size="14.00" fill="#000000">last_update </text>
<text text-anchor="start" x="336.2566" y="-543.9" font-family="Arial" font-size="14.00" fill="#666666">[timestamp]</text>
<polygon fill="none" stroke="#000000" stroke-width="3" points="251,-531.5 251,-689.5 485,-689.5 485,-531.5 251,-531.5"/>
</g>
<!-- staff -->
<g id="node4" class="node">
<title>staff</title>
<polygon fill="#efefef" stroke="transparent" points="268,-372.5 268,-407.5 470,-407.5 470,-372.5 268,-372.5"/>
<polygon fill="none" stroke="#000000" points="268,-372.5 268,-407.5 470,-407.5 470,-372.5 268,-372.5"/>
<text text-anchor="start" x="303.3667" y="-385.3" font-family="Arial Bold" font-size="18.00" fill="#000000">staff</text>
<text text-anchor="start" x="337.3795" y="-385.3" font-family="Arial" font-size="14.00" fill="#000000"> </text>
<text text-anchor="start" x="341.2701" y="-385.3" font-family="Arial" font-size="14.00" fill="#666666">[BASE TABLE]</text>
<polygon fill="none" stroke="#000000" points="268,-342.5 268,-372.5 470,-372.5 470,-342.5 268,-342.5"/>
<text text-anchor="start" x="275" y="-353.9" font-family="Arial" font-size="14.00" fill="#000000">staff_id </text>
<text text-anchor="start" x="324.0168" y="-353.9" font-family="Arial" font-size="14.00" fill="#666666">[tinyint unsigned]</text>
<polygon fill="none" stroke="#000000" points="268,-312.5 268,-342.5 470,-342.5 470,-312.5 268,-312.5"/>
<text text-anchor="start" x="275" y="-323.9" font-family="Arial" font-size="14.00" fill="#000000">first_name </text>
<text text-anchor="start" x="344.23" y="-323.9" font-family="Arial" font-size="14.00" fill="#666666">[varchar(45)]</text>
<polygon fill="none" stroke="#000000" points="268,-282.5 268,-312.5 470,-312.5 470,-282.5 268,-282.5"/>
<text text-anchor="start" x="275" y="-293.9" font-family="Arial" font-size="14.00" fill="#000000">last_name </text>
<text text-anchor="start" x="343.4614" y="-293.9" font-family="Arial" font-size="14.00" fill="#666666">[varchar(45)]</text>
<polygon fill="none" stroke="#000000" points="268,-252.5 268,-282.5 470,-282.5 470,-252.5 268,-252.5"/>
<text text-anchor="start" x="274.8682" y="-263.9" font-family="Arial" font-size="14.00" fill="#000000">address_id </text>
<text text-anchor="start" x="347.2216" y="-263.9" font-family="Arial" font-size="14.00" fill="#666666">[smallint unsigned]</text>
<polygon fill="none" stroke="#000000" points="268,-222.5 268,-252.5 470,-252.5 470,-222.5 268,-222.5"/>
<text text-anchor="start" x="275" y="-233.9" font-family="Arial" font-size="14.00" fill="#000000">picture </text>
<text text-anchor="start" x="320.8962" y="-233.9" font-family="Arial" font-size="14.00" fill="#666666">[blob]</text>
<polygon fill="none" stroke="#000000" points="268,-192.5 268,-222.5 470,-222.5 470,-192.5 268,-192.5"/>
<text text-anchor="start" x="275" y="-203.9" font-family="Arial" font-size="14.00" fill="#000000">email </text>
<text text-anchor="start" x="312.3296" y="-203.9" font-family="Arial" font-size="14.00" fill="#666666">[varchar(50)]</text>
<polygon fill="none" stroke="#000000" points="268,-162.5 268,-192.5 470,-192.5 470,-162.5 268,-162.5"/>
<text text-anchor="start" x="275" y="-173.9" font-family="Arial" font-size="14.00" fill="#000000">store_id </text>
<text text-anchor="start" x="328.6788" y="-173.9" font-family="Arial" font-size="14.00" fill="#666666">[tinyint unsigned]</text>
<polygon fill="none" stroke="#000000" points="268,-132.5 268,-162.5 470,-162.5 470,-132.5 268,-132.5"/>
<text text-anchor="start" x="275" y="-143.9" font-family="Arial" font-size="14.00" fill="#000000">active </text>
<text text-anchor="start" x="315.453" y="-143.9" font-family="Arial" font-size="14.00" fill="#666666">[tinyint(1)]</text>
<polygon fill="none" stroke="#000000" points="268,-102.5 268,-132.5 470,-132.5 470,-102.5 268,-102.5"/>
<text text-anchor="start" x="275" y="-113.9" font-family="Arial" font-size="14.00" fill="#000000">username </text>
<text text-anchor="start" x="341.1248" y="-113.9" font-family="Arial" font-size="14.00" fill="#666666">[varchar(16)]</text>
<polygon fill="none" stroke="#000000" points="268,-72.5 268,-102.5 470,-102.5 470,-72.5 268,-72.5"/>
<text text-anchor="start" x="275" y="-83.9" font-family="Arial" font-size="14.00" fill="#000000">password </text>
<text text-anchor="start" x="338.7882" y="-83.9" font-family="Arial" font-size="14.00" fill="#666666">[varchar(40)]</text>
<polygon fill="none" stroke="#000000" points="268,-42.5 268,-72.5 470,-72.5 470,-42.5 268,-42.5"/>
<text text-anchor="start" x="275" y="-53.9" font-family="Arial" font-size="14.00" fill="#000000">last_update </text>
<text text-anchor="start" x="351.2566" y="-53.9" font-family="Arial" font-size="14.00" fill="#666666">[timestamp]</text>
</g>
<!-- store&#45;&gt;staff -->
<g id="edge4" class="edge">
<title>store:manager_staff_id&#45;&gt;staff:staff_id</title>
<path fill="none" stroke="#000000" d="M493.9849,-606.4214C534.893,-596.7934 516.2506,-525.0705 484,-487 421.0921,-412.7397 330.9079,-525.2603 268,-451 241.1395,-419.2923 226.4444,-357.5 268,-357.5"/>
<polygon fill="#000000" stroke="#000000" points="493.9422,-606.4259 483.5167,-603.026 488.9711,-606.963 484,-607.5 484,-607.5 484,-607.5 488.9711,-606.963 484.4833,-611.974 493.9422,-606.4259 493.9422,-606.4259"/>
<text text-anchor="start" x="491.2625" y="-617.5" font-family="Arial" font-size="10.00" fill="#000000">FOREIGN KEY (manager_staff_id) REFERENCES staff (staff_id)</text>
</g>
<!-- address -->
<g id="node5" class="node">
<title>address</title>
<polygon fill="#efefef" stroke="transparent" points="574,-342.5 574,-377.5 776,-377.5 776,-342.5 574,-342.5"/>
<polygon fill="none" stroke="#000000" points="574,-342.5 574,-377.5 776,-377.5 776,-342.5 574,-342.5"/>
<text text-anchor="start" x="594.3646" y="-355.3" font-family="Arial Bold" font-size="18.00" fill="#000000">address</text>
<text text-anchor="start" x="658.3816" y="-355.3" font-family="Arial" font-size="14.00" fill="#000000"> </text>
<text text-anchor="start" x="662.2722" y="-355.3" font-family="Arial" font-size="14.00" fill="#666666">[BASE TABLE]</text>
<polygon fill="none" stroke="#000000" points="574,-312.5 574,-342.5 776,-342.5 776,-312.5 574,-312.5"/>
<text text-anchor="start" x="580.8682" y="-323.9" font-family="Arial" font-size="14.00" fill="#000000">address_id </text>
<text text-anchor="start" x="653.2216" y="-323.9" font-family="Arial" font-size="14.00" fill="#666666">[smallint unsigned]</text>
<polygon fill="none" stroke="#000000" points="574,-282.5 574,-312.5 776,-312.5 776,-282.5 574,-282.5"/>
<text text-anchor="start" x="581" y="-293.9" font-family="Arial" font-size="14.00" fill="#000000">address </text>
<text text-anchor="start" x="634.6816" y="-293.9" font-family="Arial" font-size="14.00" fill="#666666">[varchar(50)]</text>
<polygon fill="none" stroke="#000000" points="574,-252.5 574,-282.5 776,-282.5 776,-252.5 574,-252.5"/>
<text text-anchor="start" x="581" y="-263.9" font-family="Arial" font-size="14.00" fill="#000000">address2 </text>
<text text-anchor="start" x="642.4642" y="-263.9" font-family="Arial" font-size="14.00" fill="#666666">[varchar(50)]</text>
<polygon fill="none" stroke="#000000" points="574,-222.5 574,-252.5 776,-252.5 776,-222.5 574,-222.5"/>
<text text-anchor="start" x="581" y="-233.9" font-family="Arial" font-size="14.00" fill="#000000">district </text>
<text text-anchor="start" x="625.3282" y="-233.9" font-family="Arial" font-size="14.00" fill="#666666">[varchar(20)]</text>
<polygon fill="none" stroke="#000000" points="574,-192.5 574,-222.5 776,-222.5 776,-192.5 574,-192.5"/>
<text text-anchor="start" x="581" y="-203.9" font-family="Arial" font-size="14.00" fill="#000000">city_id </text>
<text text-anchor="start" x="624.5596" y="-203.9" font-family="Arial" font-size="14.00" fill="#666666">[smallint unsigned]</text>
<polygon fill="none" stroke="#000000" points="574,-162.5 574,-192.5 776,-192.5 776,-162.5 574,-162.5"/>
<text text-anchor="start" x="581" y="-173.9" font-family="Arial" font-size="14.00" fill="#000000">postal_code </text>
<text text-anchor="start" x="660.366" y="-173.9" font-family="Arial" font-size="14.00" fill="#666666">[varchar(10)]</text>
<polygon fill="none" stroke="#000000" points="574,-132.5 574,-162.5 776,-162.5 776,-132.5 574,-132.5"/>
<text text-anchor="start" x="581" y="-143.9" font-family="Arial" font-size="14.00" fill="#000000">phone </text>
<text text-anchor="start" x="623.8036" y="-143.9" font-family="Arial" font-size="14.00" fill="#666666">[varchar(20)]</text>
<polygon fill="none" stroke="#000000" points="574,-102.5 574,-132.5 776,-132.5 776,-102.5 574,-102.5"/>
<text text-anchor="start" x="581" y="-113.9" font-family="Arial" font-size="14.00" fill="#000000">location </text>
<text text-anchor="start" x="633.1248" y="-113.9" font-family="Arial" font-size="14.00" fill="#666666">[geometry]</text>
<polygon fill="none" stroke="#000000" points="574,-72.5 574,-102.5 776,-102.5 776,-72.5 574,-72.5"/>
<text text-anchor="start" x="581" y="-83.9" font-family="Arial" font-size="14.00" fill="#000000">last_update </text>
<text text-anchor="start" x="657.2566" y="-83.9" font-family="Arial" font-size="14.00" fill="#666666">[timestamp]</text>
</g>
<!-- store&#45;&gt;address -->
<g id="edge5" class="edge">
<title>store:address_id&#45;&gt;address:address_id</title>
<path fill="none" stroke="#000000" d="M494.0132,-576.8265C593.4831,-562.5924 459.4832,-327.5 574,-327.5"/>
<polygon fill="#000000" stroke="#000000" points="493.9775,-576.8288 483.698,-573.0101 488.9887,-577.1644 484,-577.5 484,-577.5 484,-577.5 488.9887,-577.1644 484.302,-581.9899 493.9775,-576.8288 493.9775,-576.8288"/>
<text text-anchor="start" x="490.765" y="-587.5" font-family="Arial" font-size="10.00" fill="#000000">FOREIGN KEY (address_id) REFERENCES address (address_id)</text>
</g>
<!-- customer -->
<g id="node2" class="node">
<title>customer</title>
<polygon fill="#efefef" stroke="transparent" points="103,-1082.5 103,-1117.5 313,-1117.5 313,-1082.5 103,-1082.5"/>
<polygon fill="none" stroke="#000000" points="103,-1082.5 103,-1117.5 313,-1117.5 313,-1082.5 103,-1082.5"/>
<text text-anchor="start" x="122.3705" y="-1095.3" font-family="Arial Bold" font-size="18.00" fill="#000000">customer</text>
<text text-anchor="start" x="196.3757" y="-1095.3" font-family="Arial" font-size="14.00" fill="#000000"> </text>
<text text-anchor="start" x="200.2663" y="-1095.3" font-family="Arial" font-size="14.00" fill="#666666">[BASE TABLE]</text>
<polygon fill="none" stroke="#000000" points="103,-1052.5 103,-1082.5 313,-1082.5 313,-1052.5 103,-1052.5"/>
<text text-anchor="start" x="109.9839" y="-1063.9" font-family="Arial" font-size="14.00" fill="#000000">customer_id </text>
<text text-anchor="start" x="190.1059" y="-1063.9" font-family="Arial" font-size="14.00" fill="#666666">[smallint unsigned]</text>
<polygon fill="none" stroke="#000000" points="103,-1022.5 103,-1052.5 313,-1052.5 313,-1022.5 103,-1022.5"/>
<text text-anchor="start" x="110" y="-1033.9" font-family="Arial" font-size="14.00" fill="#000000">store_id </text>
<text text-anchor="start" x="163.6788" y="-1033.9" font-family="Arial" font-size="14.00" fill="#666666">[tinyint unsigned]</text>
<polygon fill="none" stroke="#000000" points="103,-992.5 103,-1022.5 313,-1022.5 313,-992.5 103,-992.5"/>
<text text-anchor="start" x="110" y="-1003.9" font-family="Arial" font-size="14.00" fill="#000000">first_name </text>
<text text-anchor="start" x="179.23" y="-1003.9" font-family="Arial" font-size="14.00" fill="#666666">[varchar(45)]</text>
<polygon fill="none" stroke="#000000" points="103,-962.5 103,-992.5 313,-992.5 313,-962.5 103,-962.5"/>
<text text-anchor="start" x="110" y="-973.9" font-family="Arial" font-size="14.00" fill="#000000">last_name </text>
<text text-anchor="start" x="178.4614" y="-973.9" font-family="Arial" font-size="14.00" fill="#666666">[varchar(45)]</text>
<polygon fill="none" stroke="#000000" points="103,-932.5 103,-962.5 313,-962.5 313,-932.5 103,-932.5"/>
<text text-anchor="start" x="110" y="-943.9" font-family="Arial" font-size="14.00" fill="#000000">email </text>
<text text-anchor="start" x="147.3296" y="-943.9" font-family="Arial" font-size="14.00" fill="#666666">[varchar(50)]</text>
<polygon fill="none" stroke="#000000" points="103,-902.5 103,-932.5 313,-932.5 313,-902.5 103,-902.5"/>
<text text-anchor="start" x="110" y="-913.9" font-family="Arial" font-size="14.00" fill="#000000">address_id </text>
<text text-anchor="start" x="182.3534" y="-913.9" font-family="Arial" font-size="14.00" fill="#666666">[smallint unsigned]</text>
<polygon fill="none" stroke="#000000" points="103,-872.5 103,-902.5 313,-902.5 313,-872.5 103,-872.5"/>
<text text-anchor="start" x="110" y="-883.9" font-family="Arial" font-size="14.00" fill="#000000">active </text>
<text text-anchor="start" x="150.453" y="-883.9" font-family="Arial" font-size="14.00" fill="#666666">[tinyint(1)]</text>
<polygon fill="none" stroke="#000000" points="103,-842.5 103,-872.5 313,-872.5 313,-842.5 103,-842.5"/>
<text text-anchor="start" x="110" y="-853.9" font-family="Arial" font-size="14.00" fill="#000000">create_date </text>
<text text-anchor="start" x="187.8106" y="-853.9" font-family="Arial" font-size="14.00" fill="#666666">[datetime]</text>
<polygon fill="none" stroke="#000000" points="103,-812.5 103,-842.5 313,-842.5 313,-812.5 103,-812.5"/>
<text text-anchor="start" x="110" y="-823.9" font-family="Arial" font-size="14.00" fill="#000000">last_update </text>
<text text-anchor="start" x="186.2566" y="-823.9" font-family="Arial" font-size="14.00" fill="#666666">[timestamp]</text>
</g>
<!-- customer&#45;&gt;store -->
<g id="edge1" class="edge">
<title>customer:store_id&#45;&gt;store:store_id</title>
<path fill="none" stroke="#000000" d="M322.8322,-1035.2113C368.7959,-1011.9728 340.5149,-818.5965 313,-770 297.6779,-742.9382 268.3221,-761.0618 253,-734 231.8687,-696.6781 210.1111,-637.5 253,-637.5"/>
<polygon fill="#000000" stroke="#000000" points="322.7396,-1035.2328 311.9797,-1033.1172 317.8698,-1036.3664 313,-1037.5 313,-1037.5 313,-1037.5 317.8698,-1036.3664 314.0203,-1041.8828 322.7396,-1035.2328 322.7396,-1035.2328"/>
<text text-anchor="start" x="319.7735" y="-1047.5" font-family="Arial" font-size="10.00" fill="#000000">FOREIGN KEY (store_id) REFERENCES store (store_id)</text>
</g>
<!-- inventory -->
<g id="node3" class="node">
<title>inventory</title>
<polygon fill="#efefef" stroke="transparent" points="417,-1007.5 417,-1042.5 643,-1042.5 643,-1007.5 417,-1007.5"/>
<polygon fill="none" stroke="#000000" points="417,-1007.5 417,-1042.5 643,-1042.5 643,-1007.5 417,-1007.5"/>
<text text-anchor="start" x="444.8664" y="-1020.3" font-family="Arial Bold" font-size="18.00" fill="#000000">inventory</text>
<text text-anchor="start" x="517.8798" y="-1020.3" font-family="Arial" font-size="14.00" fill="#000000"> </text>
<text text-anchor="start" x="521.7704" y="-1020.3" font-family="Arial" font-size="14.00" fill="#666666">[BASE TABLE]</text>
<polygon fill="none" stroke="#000000" points="417,-977.5 417,-1007.5 643,-1007.5 643,-977.5 417,-977.5"/>
<text text-anchor="start" x="423.81" y="-988.9" font-family="Arial" font-size="14.00" fill="#000000">inventory_id </text>
<text text-anchor="start" x="503.1606" y="-988.9" font-family="Arial" font-size="14.00" fill="#666666">[mediumint unsigned]</text>
<polygon fill="none" stroke="#000000" points="417,-947.5 417,-977.5 643,-977.5 643,-947.5 417,-947.5"/>
<text text-anchor="start" x="424" y="-958.9" font-family="Arial" font-size="14.00" fill="#000000">film_id </text>
<text text-anchor="start" x="468.3268" y="-958.9" font-family="Arial" font-size="14.00" fill="#666666">[smallint unsigned]</text>
<polygon fill="none" stroke="#000000" points="417,-917.5 417,-947.5 643,-947.5 643,-917.5 417,-917.5"/>
<text text-anchor="start" x="424" y="-928.9" font-family="Arial" font-size="14.00" fill="#000000">store_id </text>
<text text-anchor="start" x="477.6788" y="-928.9" font-family="Arial" font-size="14.00" fill="#666666">[tinyint unsigned]</text>
<polygon fill="none" stroke="#000000" points="417,-887.5 417,-917.5 643,-917.5 643,-887.5 417,-887.5"/>
<text text-anchor="start" x="424" y="-898.9" font-family="Arial" font-size="14.00" fill="#000000">last_update </text>
<text text-anchor="start" x="500.2566" y="-898.9" font-family="Arial" font-size="14.00" fill="#666666">[timestamp]</text>
</g>
<!-- inventory&#45;&gt;store -->
<g id="edge2" class="edge">
<title>inventory:store_id&#45;&gt;store:store_id</title>
<path fill="none" stroke="#000000" d="M407.0067,-931.8504C300.5677,-916.5878 614.7738,-637.5 484,-637.5"/>
<polygon fill="#000000" stroke="#000000" points="407.0211,-931.8512 416.708,-936.9905 412.0105,-932.1756 417,-932.5 417,-932.5 417,-932.5 412.0105,-932.1756 417.292,-928.0095 407.0211,-931.8512 407.0211,-931.8512"/>
<text text-anchor="start" x="423.7735" y="-942.5" font-family="Arial" font-size="10.00" fill="#000000">FOREIGN KEY (store_id) REFERENCES store (store_id)</text>
</g>
<!-- staff&#45;&gt;store -->
<g id="edge3" class="edge">
<title>staff:store_id&#45;&gt;store:store_id</title>
<path fill="none" stroke="#000000" d="M257.7368,-177.9587C148.9936,-188.0153 191.7314,-360.9679 268,-451 330.9079,-525.2603 421.0921,-412.7397 484,-487 527.2353,-538.0376 550.8889,-637.5 484,-637.5"/>
<polygon fill="#000000" stroke="#000000" points="258.01,-177.9465 268.2009,-181.9955 263.005,-177.7233 268,-177.5 268,-177.5 268,-177.5 263.005,-177.7233 267.7991,-173.0045 258.01,-177.9465 258.01,-177.9465"/>
<text text-anchor="start" x="6.7735" y="-187.5" font-family="Arial" font-size="10.00" fill="#000000">FOREIGN KEY (store_id) REFERENCES store (store_id)</text>
</g>
</g>
</svg>
